STARTFONT 2.1
COMMENT
COMMENT Converted from OpenType font "FreeMonoOblique.ttf" by "otf2bdf 3.0".
COMMENT
FONT -FreeType-FreeMono-Bold-I-Normal--50-120-300-300-P-238-ISO10646-1
SIZE 12 300 300
FONTBOUNDINGBOX 73 51 -32 -10
STARTPROPERTIES 19
FOUNDRY "FreeType"
FAMILY_NAME "FreeMono"
WEIGHT_NAME "Bold"
SLANT "I"
SETWIDTH_NAME "Normal"
ADD_STYLE_NAME ""
PIXEL_SIZE 50
POINT_SIZE 120
RESOLUTION_X 300
RESOLUTION_Y 300
SPACING "P"
AVERAGE_WIDTH 238
CHARSET_REGISTRY "ISO10646"
CHARSET_ENCODING "1"
FONT_ASCENT 40
FONT_DESCENT 10
COPYRIGHT "Copyright 2002, 2003, 2005, 2008, 2009, 2010, 2012 GNU Freefont contributors."
_OTF_FONTFILE "FreeMonoOblique.ttf"
_OTF_PSNAME "FreeMonoOblique"
ENDPROPERTIES
CHARS 2246
STARTCHAR 0020
ENCODING 32
SWIDTH 600 0
DWIDTH 30 0
BBX 0 0 0 0
BITMAP
ENDCHAR
STARTCHAR 0021
ENCODING 33
SWIDTH 600 0
DWIDTH 30 0
BBX 11 32 12 -1
BITMAP
00E0
01E0
01E0
01E0
01C0
01C0
03C0
03C0
0380
0380
0380
0700
0700
0700
0700
0600
0600
0E00
0C00
0C00
0000
0000
0000
0000
0000
0000
0000
7800
FC00
FC00
FC00
7800
ENDCHAR
STARTCHAR 0022
ENCODING 34
SWIDTH 600 0
DWIDTH 30 0
BBX 18 14 10 16
BITMAP
7E0FC0
7E0FC0
7C0F80
7C0F80
7C0F80
780F00
F81F00
F81F00
F01E00
F01E00
F01E00
E01C00
E01C00
C01800
ENDCHAR
STARTCHAR 0023
ENCODING 35
SWIDTH 600 0
DWIDTH 30 0
BBX 22 35 7 -3
BITMAP
000C30
001830
001830
001860
003060
003060
0030C0
0030C0
0060C0
0060C0
006180
00E180
1FFFFC
1FFFFC
00C300
018300
018300
018600
038600
030600
030E00
FFFFF0
FFFFE0
060C00
061800
0E1800
0C1800
0C3800
0C3000
183000
183000
186000
186000
306000
304000
ENDCHAR
STARTCHAR 0024
ENCODING 36
SWIDTH 600 0
DWIDTH 30 0
BBX 23 36 6 -4
BITMAP
000380
000300
000300
000300
003FE6
007FFE
01E01E
018006
030004
060004
060000
060000
060000
078000
03E000
00FF00
001FE0
0001F0
000038
000018
000018
000018
600018
600030
600070
F000E0
DE07C0
CFFF00
03F800
00C000
00C000
00C000
01C000
018000
018000
018000
ENDCHAR
STARTCHAR 0025
ENCODING 37
SWIDTH 600 0
DWIDTH 30 0
BBX 22 30 7 1
BITMAP
00FC00
03FE00
030700
060300
0E0300
0C0300
0C0300
0C0600
0E0E00
061C00
07F800
01E00C
0000FC
0007E0
003F00
03F000
1F8000
FC0000
C01F00
007FC0
00E1C0
01C0E0
018060
030060
030060
0300E0
0300C0
038380
01FF00
00FE00
ENDCHAR
STARTCHAR 0026
ENCODING 38
SWIDTH 600 0
DWIDTH 30 0
BBX 19 27 7 -1
BITMAP
003E40
00FFC0
01C380
038000
030000
060000
060000
060000
060000
030000
030000
030000
078000
1F8000
39C0E0
30C1E0
60E180
606300
C06700
C03600
C03C00
C03800
C03800
E07C00
71EF80
3F8F80
1F0000
ENDCHAR
STARTCHAR 0027
ENCODING 39
SWIDTH 600 0
DWIDTH 30 0
BBX 7 14 17 16
BITMAP
7E
7E
7C
7C
7C
78
F8
F8
F0
F0
F0
E0
E0
C0
ENDCHAR
STARTCHAR 0028
ENCODING 40
SWIDTH 600 0
DWIDTH 30 0
BBX 12 36 17 -6
BITMAP
0030
0070
00E0
00C0
0180
0380
0300
0700
0E00
0E00
1C00
1C00
3800
3800
7000
7000
7000
7000
E000
E000
E000
E000
E000
E000
E000
E000
E000
E000
6000
7000
7000
7000
3000
3000
3800
1800
ENDCHAR
STARTCHAR 0029
ENCODING 41
SWIDTH 600 0
DWIDTH 30 0
BBX 12 36 7 -6
BITMAP
0180
01C0
01C0
00C0
00E0
00E0
00E0
0060
0070
0070
0070
0070
0070
0070
0070
0070
0070
00F0
00E0
00E0
00E0
01E0
01C0
01C0
0380
0380
0700
0700
0E00
0C00
1C00
3800
3000
7000
E000
C000
ENDCHAR
STARTCHAR 002A
ENCODING 42
SWIDTH 600 0
DWIDTH 30 0
BBX 18 17 11 13
BITMAP
006000
006000
006000
006000
00C000
00C000
E0C1C0
F8CFC0
3FFE00
07E000
03C000
07E000
0E6000
1C7000
383000
703800
601800
ENDCHAR
STARTCHAR 002B
ENCODING 43
SWIDTH 600 0
DWIDTH 30 0
BBX 22 24 7 2
BITMAP
000C00
000C00
000C00
000C00
000C00
001800
001800
001800
001800
003800
003000
FFFFFC
FFFFFC
003000
007000
006000
006000
006000
006000
00C000
00C000
00C000
00C000
00C000
ENDCHAR
STARTCHAR 002C
ENCODING 44
SWIDTH 600 0
DWIDTH 30 0
BBX 13 15 6 -7
BITMAP
03F8
03F0
07F0
07E0
0FC0
0F80
1F80
1F00
3E00
3C00
7800
7800
F000
E000
C000
ENDCHAR
STARTCHAR 002D
ENCODING 45
SWIDTH 600 0
DWIDTH 30 0
BBX 22 2 7 13
BITMAP
FFFFFC
FFFFFC
ENDCHAR
STARTCHAR 002E
ENCODING 46
SWIDTH 600 0
DWIDTH 30 0
BBX 8 7 12 -1
BITMAP
08
7E
7E
FF
FE
FE
78
ENDCHAR
STARTCHAR 002F
ENCODING 47
SWIDTH 600 0
DWIDTH 30 0
BBX 26 37 5 -4
BITMAP
000000C0
000001C0
00000180
00000300
00000700
00000600
00000C00
00001C00
00001800
00003000
00007000
00006000
0000C000
0001C000
00018000
00030000
00060000
00060000
000C0000
00180000
00380000
00300000
00600000
00E00000
00C00000
01800000
03800000
03000000
06000000
0E000000
0C000000
18000000
38000000
30000000
60000000
E0000000
C0000000
ENDCHAR
STARTCHAR 0030
ENCODING 48
SWIDTH 600 0
DWIDTH 30 0
BBX 20 32 8 -1
BITMAP
000400
007F80
00FFC0
0180E0
030060
060070
0C0030
0C0030
180030
180030
300030
300030
300030
200060
600060
600060
600060
600060
4000C0
C000C0
C000C0
C00180
C00180
C00180
C00300
C00300
E00600
600E00
701C00
387800
1FF000
0FC000
ENDCHAR
STARTCHAR 0031
ENCODING 49
SWIDTH 600 0
DWIDTH 30 0
BBX 19 31 6 0
BITMAP
000380
000700
001F00
003B00
007300
00E700
03C600
070600
060600
000600
000C00
000C00
000C00
000C00
000C00
001800
001800
001800
001800
003800
003000
003000
003000
003000
007000
006000
006000
006000
006000
FFFFE0
FFFFC0
ENDCHAR
STARTCHAR 0032
ENCODING 50
SWIDTH 600 0
DWIDTH 30 0
BBX 25 31 4 0
BITMAP
00004000
0007FC00
001FFE00
00380700
00700300
00E00380
00C00180
01800180
01000180
00000180
00000300
00000700
00000E00
00001C00
00003800
00007000
0001C000
00038000
00070000
000E0000
00380000
00700000
00E00000
03800000
07000000
0E000000
3C001000
70003000
E0003000
FFFFF000
FFFFF000
ENDCHAR
STARTCHAR 0033
ENCODING 51
SWIDTH 600 0
DWIDTH 30 0
BBX 23 32 6 -1
BITMAP
000100
003FF0
00FFF8
01C01C
03800E
000006
000006
000006
000006
000006
00000C
000018
000038
0000E0
001FC0
001F80
0001E0
000070
000030
000038
000018
000018
000018
000018
000030
000030
000060
C000E0
E003C0
7C0F00
3FFE00
07F000
ENDCHAR
STARTCHAR 0034
ENCODING 52
SWIDTH 600 0
DWIDTH 30 0
BBX 20 30 7 0
BITMAP
0000F0
0001F0
000330
000670
000E60
000C60
001860
003060
0060C0
00E0C0
00C0C0
0180C0
0300C0
070180
060180
0C0180
180180
300380
700300
600300
FFFFE0
FFFFE0
000700
000600
000600
000600
000600
000C00
01FF80
01FF80
ENDCHAR
STARTCHAR 0035
ENCODING 53
SWIDTH 600 0
DWIDTH 30 0
BBX 23 31 6 -1
BITMAP
00FFFE
00FFFE
018000
018000
018000
018000
038000
030000
030000
030000
031F80
06FFE0
07C0F0
060070
000038
000018
000018
000018
000018
000018
000018
000030
000030
000070
000060
0000C0
C001C0
E00380
780F00
3FFC00
07F000
ENDCHAR
STARTCHAR 0036
ENCODING 54
SWIDTH 600 0
DWIDTH 30 0
BBX 23 32 9 -1
BITMAP
000010
0003FE
001FE0
003C00
00F000
01C000
038000
070000
0E0000
0C0000
1C0000
180000
300000
307E00
71FF80
6383C0
6601C0
EC00E0
D80060
F00060
E00060
C00060
C00060
C000E0
C000C0
E000C0
600180
600300
300600
3C1C00
1FF800
07E000
ENDCHAR
STARTCHAR 0037
ENCODING 55
SWIDTH 600 0
DWIDTH 30 0
BBX 19 30 11 0
BITMAP
7FFFE0
FFFFE0
C00060
C000C0
C000C0
000180
000180
000300
000300
000600
000600
000C00
000C00
001800
001800
003000
007000
006000
00C000
00C000
018000
018000
030000
030000
060000
060000
0C0000
0C0000
180000
180000
ENDCHAR
STARTCHAR 0038
ENCODING 56
SWIDTH 600 0
DWIDTH 30 0
BBX 22 32 7 -1
BITMAP
000200
003FE0
00FFF0
01C038
038018
03001C
06000C
0E000C
0C000C
0C000C
0C0018
0C0018
0E0030
070060
0383C0
01FF00
01FF00
070380
1C01C0
3800E0
700060
600060
C00060
C00060
C00060
C000C0
C001C0
E00380
700700
3C1E00
1FF800
07E000
ENDCHAR
STARTCHAR 0039
ENCODING 57
SWIDTH 600 0
DWIDTH 30 0
BBX 23 32 7 -1
BITMAP
000100
001FE0
007FF0
00E038
01C01C
03800C
07000E
060006
060006
0C0006
0C0006
0C000E
0C001E
0C0036
0E007E
0700EC
07838C
03FF0C
00FC18
000018
000038
000030
000070
0000E0
0001C0
000380
000700
000E00
003C00
01F000
FFC000
7F0000
ENDCHAR
STARTCHAR 003A
ENCODING 58
SWIDTH 600 0
DWIDTH 30 0
BBX 11 22 12 -1
BITMAP
0780
0FC0
1FE0
1FC0
1FC0
1F80
0600
0000
0000
0000
0000
0000
0000
0000
0000
0800
7E00
7E00
FF00
FE00
FE00
7800
ENDCHAR
STARTCHAR 003B
ENCODING 59
SWIDTH 600 0
DWIDTH 30 0
BBX 16 28 6 -7
BITMAP
003C
007E
00FF
00FE
00FE
00FC
0030
0000
0000
0000
0000
0000
0000
0000
03F8
07F0
07E0
0FC0
0F80
0F80
1F00
1E00
3C00
3C00
7800
7000
E000
E000
ENDCHAR
STARTCHAR 003C
ENCODING 60
SWIDTH 600 0
DWIDTH 30 0
BBX 24 24 7 2
BITMAP
000001
000007
00001E
000078
0001E0
000780
003E00
00F800
03E000
0F8000
3E0000
F80000
F80000
3C0000
0F0000
078000
01E000
00F000
003C00
001F00
000780
0001E0
0000F0
000020
ENDCHAR
STARTCHAR 003D
ENCODING 61
SWIDTH 600 0
DWIDTH 30 0
BBX 26 9 5 10
BITMAP
7FFFFFC0
7FFFFFC0
00000000
00000000
00000000
00000000
00000000
FFFFFF80
FFFFFF00
ENDCHAR
STARTCHAR 003E
ENCODING 62
SWIDTH 600 0
DWIDTH 30 0
BBX 24 24 5 2
BITMAP
040000
0F0000
078000
01E000
00F800
003C00
000F00
000780
0001E0
0000F8
00003C
00000F
00001E
000078
0001E0
000780
001E00
007800
01E000
078000
1E0000
780000
E00000
800000
ENDCHAR
STARTCHAR 003F
ENCODING 63
SWIDTH 600 0
DWIDTH 30 0
BBX 17 29 12 0
BITMAP
0FFC00
3FFF00
700700
C00380
C00180
C00180
000180
000180
000300
000700
000E00
001C00
007000
03E000
078000
0E0000
0C0000
0C0000
000000
000000
000000
000000
000000
000000
3E0000
7E0000
FE0000
FE0000
7C0000
ENDCHAR
STARTCHAR 0040
ENCODING 64
SWIDTH 600 0
DWIDTH 30 0
BBX 21 34 7 -3
BITMAP
000FC0
007FE0
00F070
01C038
038018
070018
060018
0C0018
0C0018
180038
1801F0
380FF0
301E30
303830
307070
306060
60C060
60C060
60C060
60C0E0
E0E0C0
C070C0
C07FE0
C01FE0
C00000
C00000
C00000
C00000
E00000
600000
700600
381E00
1FF800
0FE000
ENDCHAR
STARTCHAR 0041
ENCODING 65
SWIDTH 600 0
DWIDTH 30 0
BBX 29 28 1 0
BITMAP
003FF800
003FFC00
0000EC00
0000CC00
00018C00
00018C00
00030C00
00070600
00060600
000E0600
000C0600
00180600
00180600
00300300
00700300
00600300
00E00300
00FFFF00
01FFFF80
03800180
03000180
07000180
06000180
0C000180
0C0001C0
180000C0
FFC01FF8
FFC03FF8
ENDCHAR
STARTCHAR 0042
ENCODING 66
SWIDTH 600 0
DWIDTH 30 0
BBX 28 28 2 0
BITMAP
03FFFF00
03FFFFC0
003001E0
00700070
00600030
00600030
00600030
00600030
00C00060
00C000E0
00C001C0
00C00700
01FFFE00
01FFFF00
01800780
018001C0
018000E0
03800060
03000060
03000060
03000060
030000E0
060000C0
06000180
06000380
06000F00
7FFFFC00
FFFFF000
ENDCHAR
STARTCHAR 0043
ENCODING 67
SWIDTH 600 0
DWIDTH 30 0
BBX 26 29 6 0
BITMAP
003FF0C0
00FFFCC0
01E01EC0
03800780
06000380
0C000180
18000180
38000180
30000000
70000000
60000000
60000000
E0000000
C0000000
C0000000
C0000000
C0000000
C0000000
C0000000
C0000000
C0000000
E0000000
60000C00
70001C00
38003800
3C00F000
1F03C000
07FF0000
01FC0000
ENDCHAR
STARTCHAR 0044
ENCODING 68
SWIDTH 600 0
DWIDTH 30 0
BBX 28 28 2 0
BITMAP
03FFFC00
03FFFF00
00600780
00E001C0
00C000E0
00C00060
00C00070
00C00030
01800030
01800030
01800030
01800030
03800030
03000070
03000060
03000060
03000060
070000E0
060000C0
060001C0
06000180
06000300
0C000700
0C000E00
0C003C00
0C00F000
7FFFE000
FFFF0000
ENDCHAR
STARTCHAR 0045
ENCODING 69
SWIDTH 600 0
DWIDTH 30 0
BBX 29 28 2 0
BITMAP
03FFFFF8
03FFFFF8
00300030
00700030
00600030
00600030
00600070
00600060
00C00000
00C02000
00C06000
00C06000
01FFE000
01FFE000
0180C000
0180C000
0180C000
03800000
03000000
030000C0
030000C0
03000180
06000180
06000180
06000180
06000380
7FFFFF00
FFFFFF00
ENDCHAR
STARTCHAR 0046
ENCODING 70
SWIDTH 600 0
DWIDTH 30 0
BBX 30 28 2 0
BITMAP
03FFFFFC
03FFFFFC
00300018
00700018
00600018
00600018
00600038
00600030
00C00000
00C02000
00C06000
00C06000
01FFE000
01FFE000
0180C000
0180C000
0180C000
03800000
03000000
03000000
03000000
03000000
06000000
06000000
06000000
06000000
7FFE0000
FFFE0000
ENDCHAR
STARTCHAR 0047
ENCODING 71
SWIDTH 600 0
DWIDTH 30 0
BBX 27 29 5 0
BITMAP
001FFC20
007FFF60
00F007E0
03C001E0
070000C0
0E0000C0
0C0000C0
18000000
38000000
30000000
30000000
60000000
60000000
60000000
60000000
C0000000
C007FFC0
C007FFC0
C0000600
C0000600
C0000600
C0000E00
E0000C00
60000C00
70000C00
3C001C00
1F00F800
07FFE000
01FF0000
ENDCHAR
STARTCHAR 0048
ENCODING 72
SWIDTH 600 0
DWIDTH 30 0
BBX 29 28 3 0
BITMAP
01FE07F8
03FE07F8
006000C0
00E000C0
00C000C0
00C000C0
00C001C0
00C00180
01C00180
01800180
01800180
01800300
01FFFF00
03FFFF00
03000300
03000700
03000600
03000600
06000600
06000600
06000E00
06000C00
0E000C00
0C000C00
0C000C00
0C001C00
FFC1FF80
FF81FF80
ENDCHAR
STARTCHAR 0049
ENCODING 73
SWIDTH 600 0
DWIDTH 30 0
BBX 24 28 6 0
BITMAP
03FFFF
07FFFF
000600
000600
000600
000600
000E00
000C00
000C00
000C00
000C00
001C00
001800
001800
001800
001800
003800
003000
003000
003000
003000
006000
006000
006000
006000
00E000
FFFFE0
FFFFC0
ENDCHAR
STARTCHAR 004A
ENCODING 74
SWIDTH 600 0
DWIDTH 30 0
BBX 30 29 5 -1
BITMAP
0007FFFC
000FFFFC
00000700
00000600
00000600
00000600
00000600
00000C00
00000C00
00000C00
00000C00
00001C00
00001800
00001800
00001800
00001800
30003800
70003000
70003000
60003000
60003000
60006000
C0006000
C000C000
E001C000
78038000
3C0E0000
1FFC0000
07F00000
ENDCHAR
STARTCHAR 004B
ENCODING 75
SWIDTH 600 0
DWIDTH 30 0
BBX 31 28 2 0
BITMAP
03FF81FE
03FF83FE
00300070
007000E0
00600180
00600700
00600E00
00603800
00C07000
00C0E000
00C38000
00C70000
01CF8000
01BBC000
01F0E000
01E07000
01803000
03803800
03001800
03001800
03001C00
03000C00
06000C00
06000C00
06000E00
06000600
7FF007E0
FFE007E0
ENDCHAR
STARTCHAR 004C
ENCODING 76
SWIDTH 600 0
DWIDTH 30 0
BBX 26 28 3 0
BITMAP
03FFF000
03FFF000
000C0000
001C0000
00180000
00180000
00180000
00180000
00380000
00300000
00300000
00300000
00300000
00600000
00600000
00600000
00600000
006000C0
00C000C0
00C000C0
00C000C0
00C00180
01C00180
01800180
01800180
01800380
7FFFFF00
FFFFFF00
ENDCHAR
STARTCHAR 004D
ENCODING 77
SWIDTH 600 0
DWIDTH 30 0
BBX 34 28 1 0
BITMAP
03F0001FC0
03F8001FC0
00D8003600
00D8007600
00D8006600
019C00CC00
018C01CC00
018C018C00
018C030C00
018C071C00
0306061800
03060C1800
03061C1800
0306181800
0703303800
0603703000
0603603000
0603C03000
0601C03000
0E01806000
0C00006000
0C00006000
0C00006000
0C00006000
180000C000
180000C000
FFC01FF800
FFC01FF800
ENDCHAR
STARTCHAR 004E
ENCODING 78
SWIDTH 600 0
DWIDTH 30 0
BBX 32 28 2 0
BITMAP
07F003FF
07F003FF
00780030
00D80030
00DC0030
00CC0030
00CC0030
00CE0060
01860060
01870060
01830060
01830060
030380C0
030180C0
030180C0
0300C0C0
0300C1C0
0600E180
06006180
06006180
06007180
06003300
0C003B00
0C001B00
0C001B00
0C001F00
FFC00E00
FFC00E00
ENDCHAR
STARTCHAR 004F
ENCODING 79
SWIDTH 600 0
DWIDTH 30 0
BBX 26 29 5 0
BITMAP
001FF800
007FFC00
00F00E00
01C00700
03000380
06000180
0C000180
180001C0
180000C0
300000C0
300000C0
600000C0
600000C0
600000C0
C00000C0
C0000180
C0000180
C0000180
C0000300
C0000300
C0000600
E0000E00
60001C00
70003800
38007000
3C00E000
1E07C000
0FFF0000
01F80000
ENDCHAR
STARTCHAR 0050
ENCODING 80
SWIDTH 600 0
DWIDTH 30 0
BBX 27 28 2 0
BITMAP
03FFFE00
03FFFF00
003003C0
007001C0
006000E0
00600060
00600060
00600060
00C00060
00C000C0
00C000C0
00C00180
01C00700
01801E00
01FFFC00
01FFE000
01800000
03800000
03000000
03000000
03000000
03000000
06000000
06000000
06000000
06000000
7FFE0000
FFFE0000
ENDCHAR
STARTCHAR 0051
ENCODING 81
SWIDTH 600 0
DWIDTH 30 0
BBX 26 33 5 -4
BITMAP
001FF800
007FFC00
00E00E00
01C00700
03000380
06000180
0C000180
180001C0
180000C0
300000C0
300000C0
600000C0
600000C0
600000C0
C00000C0
C0000180
C0000180
C0000180
C0000300
C0000300
C0000600
E0000E00
60001C00
70003800
38007000
3C00E000
1E07C000
07FF0000
01F80000
07800000
0FFC1C00
3FFFF800
7807E000
ENDCHAR
STARTCHAR 0052
ENCODING 82
SWIDTH 600 0
DWIDTH 30 0
BBX 27 28 2 0
BITMAP
03FFFE00
03FFFF80
003003C0
007001C0
006000E0
00600060
00600060
00600060
00C00060
00C000C0
00C00180
00C00700
01C01E00
01FFF800
01FFC000
0180F000
01803000
03803800
03001C00
03000C00
03000E00
03000600
06000600
06000700
06000300
06000380
7FF001E0
FFE001E0
ENDCHAR
STARTCHAR 0053
ENCODING 83
SWIDTH 600 0
DWIDTH 30 0
BBX 25 29 5 0
BITMAP
001FF180
007FFD80
00E00F80
01C00780
03800380
03000300
06000300
06000300
06000000
06000000
07000000
03800000
01F80000
007F8000
0003F000
00007800
00001C00
00000C00
00000C00
00000C00
60000C00
60000C00
60001800
60003800
F0007000
D800E000
DE07C000
CFFF0000
03F80000
ENDCHAR
STARTCHAR 0054
ENCODING 84
SWIDTH 600 0
DWIDTH 30 0
BBX 24 28 8 0
BITMAP
7FFFFF
7FFFFF
601C03
E01803
C01806
C01806
C01806
003000
003000
003000
003000
007000
006000
006000
006000
006000
00E000
00C000
00C000
00C000
00C000
01C000
018000
018000
018000
018000
FFFE00
FFFE00
ENDCHAR
STARTCHAR 0055
ENCODING 85
SWIDTH 600 0
DWIDTH 30 0
BBX 27 29 7 -1
BITMAP
7FE07FE0
7FE07FE0
0C000600
1C000600
18000600
18000600
18000E00
18000C00
38000C00
30000C00
30000C00
30001C00
30001800
60001800
60001800
60001800
60003800
E0003000
C0003000
C0003000
C0007000
C0006000
C000E000
E000C000
60018000
70070000
3C1E0000
1FFC0000
07E00000
ENDCHAR
STARTCHAR 0056
ENCODING 86
SWIDTH 600 0
DWIDTH 30 0
BBX 29 28 6 0
BITMAP
FFC01FF8
FFC01FF8
180000C0
18000180
1C000180
0C000300
0C000600
0C000600
0C000C00
0C000C00
0E001800
06003000
06003000
06006000
0600E000
0600C000
07018000
03018000
03030000
03060000
03060000
030C0000
039C0000
01980000
01B00000
01B00000
01E00000
01E00000
ENDCHAR
STARTCHAR 0057
ENCODING 87
SWIDTH 600 0
DWIDTH 30 0
BBX 29 28 6 0
BITMAP
7FE01FF8
7FE03FF0
180000C0
380000C0
300000C0
30000180
300E0180
301E0180
301E0300
303E0300
30360300
30770600
30630600
70E30600
60C30C00
61C30C00
61830C00
63831800
63031800
67031800
66033000
6E033000
6C033000
7C036000
F8036000
F8036000
F003C000
F001C000
ENDCHAR
STARTCHAR 0058
ENCODING 88
SWIDTH 600 0
DWIDTH 30 0
BBX 31 28 2 0
BITMAP
01FC01FE
03FC01FE
00E00030
00700060
003000C0
00380180
00180300
001C0600
000C0C00
000E1800
00073000
00076000
0003C000
00018000
0003C000
0006C000
000CE000
00186000
00307000
00603800
00C01800
01C01C00
03800C00
07000E00
0E000600
1C000700
FF807FC0
FF807FC0
ENDCHAR
STARTCHAR 0059
ENCODING 89
SWIDTH 600 0
DWIDTH 30 0
BBX 25 28 8 0
BITMAP
7F807F80
FF007F80
18000C00
1C001800
0C003000
0E007000
0600E000
0701C000
03018000
03830000
01860000
018C0000
01D80000
00F00000
00F00000
00600000
00E00000
00C00000
00C00000
00C00000
00C00000
01C00000
01800000
01800000
01800000
01800000
FFFE0000
FFFE0000
ENDCHAR
STARTCHAR 005A
ENCODING 90
SWIDTH 600 0
DWIDTH 30 0
BBX 24 28 5 0
BITMAP
01FFFF
01FFFF
038003
030006
03000C
030018
030038
060070
0600E0
0001C0
000380
000700
000E00
001C00
001800
003000
006000
00C000
01800C
03000C
060018
0E0018
1C0018
380018
700018
600030
FFFFF0
FFFFF0
ENDCHAR
STARTCHAR 005B
ENCODING 91
SWIDTH 600 0
DWIDTH 30 0
BBX 16 36 13 -6
BITMAP
01FF
01FF
0180
0180
0180
0300
0300
0300
0300
0700
0600
0600
0600
0600
0C00
0C00
0C00
0C00
0C00
1800
1800
1800
1800
1800
3000
3000
3000
3000
3000
6000
6000
6000
6000
6000
FF00
FF00
ENDCHAR
STARTCHAR 005C
ENCODING 92
SWIDTH 600 0
DWIDTH 30 0
BBX 11 37 12 -4
BITMAP
C000
C000
E000
6000
6000
6000
7000
3000
3000
3000
3800
1800
1800
1800
1C00
0C00
0C00
0C00
0600
0600
0600
0600
0300
0300
0300
0300
0180
0180
0180
0180
00C0
00C0
00C0
00E0
0060
0060
0060
ENDCHAR
STARTCHAR 005D
ENCODING 93
SWIDTH 600 0
DWIDTH 30 0
BBX 16 36 7 -6
BITMAP
01FF
01FE
0006
0006
0006
0006
000C
000C
000C
000C
0018
0018
0018
0018
0018
0030
0030
0030
0030
0060
0060
0060
0060
00C0
00C0
00C0
00C0
00C0
0180
0180
0180
0180
0300
0300
FF00
FF00
ENDCHAR
STARTCHAR 005E
ENCODING 94
SWIDTH 600 0
DWIDTH 30 0
BBX 18 13 10 18
BITMAP
001000
003000
007800
00DC00
018C00
030E00
060600
0C0700
180380
300180
6001C0
C000C0
8000C0
ENDCHAR
STARTCHAR 005F
ENCODING 95
SWIDTH 600 0
DWIDTH 30 0
BBX 30 3 -1 -6
BITMAP
FFFFFFFC
FFFFFFFC
FFFFFFFC
ENDCHAR
STARTCHAR 0060
ENCODING 96
SWIDTH 600 0
DWIDTH 30 0
BBX 7 7 13 25
BITMAP
E0
E0
70
38
1C
0E
06
ENDCHAR
STARTCHAR 0061
ENCODING 97
SWIDTH 600 0
DWIDTH 30 0
BBX 22 22 5 0
BITMAP
00FFE0
03FFF0
020038
000018
000018
000018
000018
000018
00FF30
07FFF0
1F00F0
380030
700070
600060
C00060
C00060
C001E0
C003E0
E00EC0
703CFC
3FF0FC
1FC000
ENDCHAR
STARTCHAR 0062
ENCODING 98
SWIDTH 600 0
DWIDTH 30 0
BBX 28 31 1 -1
BITMAP
03F00000
03F00000
00300000
00300000
00300000
00600000
00600000
00600000
00600000
0061FF00
00C7FF80
00CE03C0
00D800E0
00F00060
01E00070
01C00030
01800030
01800030
01000030
03000030
03000030
03000060
03000060
030000C0
070001C0
07800180
07800700
06C00E00
7C703C00
FC3FF000
000FC000
ENDCHAR
STARTCHAR 0063
ENCODING 99
SWIDTH 600 0
DWIDTH 30 0
BBX 24 23 6 -1
BITMAP
001FC0
00FFF3
03C07F
07001F
0E000F
180006
380006
300006
700000
600000
600000
C00000
C00000
C00000
C00000
C00000
C00000
60000C
70001C
380078
3E03E0
0FFF80
03F800
ENDCHAR
STARTCHAR 0064
ENCODING 100
SWIDTH 600 0
DWIDTH 30 0
BBX 26 31 5 -1
BITMAP
00000FC0
00000FC0
000000C0
000000C0
000000C0
00000180
00000180
00000180
00000180
007FC300
01FFE300
07807300
0E003B00
1C001B00
18000E00
30000E00
60000E00
60000E00
60000E00
C0000C00
C0000C00
C0000C00
C0001C00
C0001800
E0003800
60007800
7000D800
38039800
3C0F3F00
0FFC3F00
03F00000
ENDCHAR
STARTCHAR 0065
ENCODING 101
SWIDTH 600 0
DWIDTH 30 0
BBX 24 22 5 0
BITMAP
007FE0
01FFF8
07803C
0E000E
1C0006
380007
300003
600003
600003
FFFFFF
FFFFFF
C00000
C00000
C00000
C00000
E00000
600000
70000C
38003C
1F01F0
0FFFC0
01FE00
ENDCHAR
STARTCHAR 0066
ENCODING 102
SWIDTH 600 0
DWIDTH 30 0
BBX 27 30 6 0
BITMAP
0000FFC0
0003FFE0
00070000
000C0000
00180000
00180000
00180000
00300000
00300000
0FFFFE00
0FFFFC00
00700000
00600000
00600000
00600000
00600000
00C00000
00C00000
00C00000
00C00000
00C00000
01800000
01800000
01800000
01800000
03800000
03000000
03000000
FFFFC000
FFFFC000
ENDCHAR
STARTCHAR 0067
ENCODING 103
SWIDTH 600 0
DWIDTH 30 0
BBX 27 30 5 -8
BITMAP
00FF87E0
03FFE7E0
0700E600
0C003600
18003E00
30001C00
70001C00
60001C00
60001C00
C0001800
C0001800
C0003800
C0003800
C0007800
E000F000
6001F000
7003B000
3C0F3000
1FFC7000
07F06000
00006000
00006000
00006000
0000C000
0000C000
00018000
00030000
000E0000
3FFC0000
3FF00000
ENDCHAR
STARTCHAR 0068
ENCODING 104
SWIDTH 600 0
DWIDTH 30 0
BBX 25 30 3 0
BITMAP
07F00000
07E00000
00600000
00600000
00600000
00E00000
00C00000
00C00000
00C04000
00C7F800
018FFE00
01B80E00
01F00700
01C00300
03800300
03000300
03000300
03000700
03000700
07000700
06000700
06000600
06000E00
06000E00
0C000E00
0C000C00
0C000C00
0C001C00
FF80FF80
FF80FF80
ENDCHAR
STARTCHAR 0069
ENCODING 105
SWIDTH 600 0
DWIDTH 30 0
BBX 21 31 5 0
BITMAP
000380
000380
000380
000700
000700
000000
000000
000000
000000
000000
03FE00
03FE00
000600
000600
000E00
000C00
000C00
000C00
000C00
001800
001800
001800
001800
001800
003000
003000
003000
003000
007000
FFFFF8
FFFFF0
ENDCHAR
STARTCHAR 006A
ENCODING 106
SWIDTH 600 0
DWIDTH 30 0
BBX 22 40 4 -9
BITMAP
00001C
000018
000038
000038
000038
000000
000000
000000
000000
000000
03FFFC
03FFFC
000018
000018
000018
000018
000038
000030
000030
000030
000030
000060
000060
000060
000060
0000E0
0000C0
0000C0
0000C0
0000C0
0001C0
000180
000180
000180
000300
000700
000E00
001C00
FFF800
FFE000
ENDCHAR
STARTCHAR 006B
ENCODING 107
SWIDTH 600 0
DWIDTH 30 0
BBX 26 30 3 0
BITMAP
01F80000
03F00000
00300000
00300000
00300000
00700000
00600000
00600000
00600000
00607FC0
00C07FC0
00C03800
00C07000
00C0C000
00C38000
01870000
018C0000
01B80000
01F80000
03DC0000
038E0000
03070000
03038000
03038000
0601C000
0600E000
06007000
06003800
7E01FF00
FC01FF00
ENDCHAR
STARTCHAR 006C
ENCODING 108
SWIDTH 600 0
DWIDTH 30 0
BBX 21 30 5 0
BITMAP
00FF80
00FF80
000180
000180
000380
000300
000300
000300
000300
000600
000600
000600
000600
000E00
000C00
000C00
000C00
000C00
001C00
001800
001800
001800
001800
003000
003000
003000
003000
007000
FFFFF8
FFFFF0
ENDCHAR
STARTCHAR 006D
ENCODING 109
SWIDTH 600 0
DWIDTH 30 0
BBX 29 21 1 1
BITMAP
0F9F83F0
0FBFCFF8
01E0DC38
03C0F018
03806018
0300C018
0300C018
0700C030
0600C030
0600C030
06018030
06018030
0C018060
0C018060
0C030060
0C030060
0C030060
180300C0
180300C0
FF07C0F8
FF07C0F0
ENDCHAR
STARTCHAR 006E
ENCODING 110
SWIDTH 600 0
DWIDTH 30 0
BBX 24 21 3 1
BITMAP
07C7FC
0F8FFE
01B806
01F007
01C003
018003
030003
030003
030007
030006
070006
060006
060006
06000E
06000C
0E000C
0C000C
0C000C
0C0018
FF80FF
FF80FF
ENDCHAR
STARTCHAR 006F
ENCODING 111
SWIDTH 600 0
DWIDTH 30 0
BBX 23 22 6 0
BITMAP
007FC0
01FFF0
038078
0E001C
1C000C
18000E
300006
600006
600006
600006
C00006
C00006
C0000C
C0000C
C00018
E00038
600030
7000E0
3801C0
1E0780
0FFE00
03F800
ENDCHAR
STARTCHAR 0070
ENCODING 112
SWIDTH 600 0
DWIDTH 30 0
BBX 31 30 -1 -8
BITMAP
01F87FE0
03F1FFF0
00338038
0036001C
003C000E
00780006
00700006
00700006
00600006
00600006
00E00006
00E0000C
00E0000C
00E00018
01F00038
01F00070
01B800E0
019E0780
018FFF00
0383F800
03000000
03000000
03000000
03000000
07000000
06000000
06000000
06000000
7FF80000
FFF80000
ENDCHAR
STARTCHAR 0071
ENCODING 113
SWIDTH 600 0
DWIDTH 30 0
BBX 28 30 5 -8
BITMAP
00FFC3F0
03FFE3F0
07007300
0E003B00
18001F00
30000E00
70000E00
60000E00
E0000E00
C0000E00
C0000C00
C0000C00
C0001C00
C0003C00
E0007800
6000F800
7801D800
3C079800
1FFE3800
03F83000
00003000
00003000
00003000
00007000
00006000
00006000
00006000
00006000
003FFC00
003FFC00
ENDCHAR
STARTCHAR 0072
ENCODING 114
SWIDTH 600 0
DWIDTH 30 0
BBX 27 21 4 1
BITMAP
03F81FC0
03F87FE0
0031E0E0
00338000
00370000
003C0000
00780000
00700000
00600000
00600000
00600000
00C00000
00C00000
00C00000
00C00000
01C00000
01800000
01800000
01800000
7FFFE000
FFFFE000
ENDCHAR
STARTCHAR 0073
ENCODING 115
SWIDTH 600 0
DWIDTH 30 0
BBX 23 22 5 0
BITMAP
007FE6
00FFFE
01C03E
03000C
06000C
06000C
060000
070000
03E000
01FF80
003FE0
0000F0
000038
000018
200018
600018
600038
600030
F000E0
FE03C0
CFFF80
03FC00
ENDCHAR
STARTCHAR 0074
ENCODING 116
SWIDTH 600 0
DWIDTH 30 0
BBX 18 29 7 -1
BITMAP
030000
030000
070000
060000
060000
060000
060000
FFFFC0
FFFFC0
0C0000
0C0000
1C0000
180000
180000
180000
180000
380000
300000
300000
300000
300000
700000
600000
600000
600000
7000C0
380FC0
1FFF00
0FF000
ENDCHAR
STARTCHAR 0075
ENCODING 117
SWIDTH 600 0
DWIDTH 30 0
BBX 22 22 6 -1
BITMAP
FC01FC
FC01FC
1C000C
18000C
18001C
180018
180018
300018
300018
300030
300030
300030
600030
600070
600060
600060
6000E0
6003E0
7007E0
383CF8
3FF8F8
0FC000
ENDCHAR
STARTCHAR 0076
ENCODING 118
SWIDTH 600 0
DWIDTH 30 0
BBX 27 21 6 0
BITMAP
FFC07FE0
FFC0FFE0
18000600
18000C00
1C001C00
0C001800
0C003000
0C007000
0E006000
0600C000
0600C000
06018000
07030000
03030000
03060000
030C0000
038C0000
01980000
01B00000
01F00000
01E00000
ENDCHAR
STARTCHAR 0077
ENCODING 119
SWIDTH 600 0
DWIDTH 30 0
BBX 27 21 6 0
BITMAP
FF001FE0
FF003FE0
30000300
30000700
30000600
301C0600
303C0C00
303C0C00
307C1800
306C1800
30CC3800
30CC3000
318C3000
31866000
33066000
3706C000
3606C000
3E06C000
3C078000
38078000
38070000
ENDCHAR
STARTCHAR 0078
ENCODING 120
SWIDTH 600 0
DWIDTH 30 0
BBX 27 21 3 0
BITMAP
07F80FE0
07F81FE0
01C00380
00C00700
00E00E00
00703800
00387000
001CE000
000DC000
00070000
000F0000
001F8000
0039C000
0060E000
01C06000
03807000
07003800
0C001C00
38000E00
FF80FF80
FF81FF00
ENDCHAR
STARTCHAR 0079
ENCODING 121
SWIDTH 600 0
DWIDTH 30 0
BBX 31 30 1 -9
BITMAP
03FC01FE
03FC01FC
00C00030
00C00060
00E00060
006000C0
00600180
00700180
00300300
00300600
00300C00
00380C00
00181800
00183000
001C3000
000C6000
000CC000
000CC000
000F8000
00070000
00060000
00060000
000C0000
00180000
00180000
00300000
00600000
00C00000
FFFC0000
FFFC0000
ENDCHAR
STARTCHAR 007A
ENCODING 122
SWIDTH 600 0
DWIDTH 30 0
BBX 22 21 6 0
BITMAP
07FFFC
07FFFC
0E0038
0C0070
0C00E0
0C01C0
000380
000700
000E00
001C00
003000
006000
00C000
018000
030000
0E0030
1C0060
380060
700060
FFFFE0
FFFFE0
ENDCHAR
STARTCHAR 007B
ENCODING 123
SWIDTH 600 0
DWIDTH 30 0
BBX 16 36 11 -6
BITMAP
000F
001F
0038
0070
0060
0060
00C0
00C0
00C0
00C0
01C0
0180
0180
0180
0380
0700
1E00
F800
F800
1C00
0600
0600
0600
0600
0600
0C00
0C00
0C00
0C00
1C00
1800
1800
1800
1C00
0F00
0700
ENDCHAR
STARTCHAR 007C
ENCODING 124
SWIDTH 600 0
DWIDTH 30 0
BBX 9 36 13 -6
BITMAP
0080
0180
0180
0180
0180
0300
0300
0300
0300
0700
0600
0600
0600
0600
0C00
0C00
0C00
0C00
0C00
1800
1800
1800
1800
1800
3000
3000
3000
3000
6000
6000
6000
6000
6000
C000
C000
C000
ENDCHAR
STARTCHAR 007D
ENCODING 125
SWIDTH 600 0
DWIDTH 30 0
BBX 16 36 8 -6
BITMAP
00E0
00F0
0038
0018
0018
0018
0018
0018
0038
0030
0030
0030
0030
0060
0060
0070
0038
001F
001F
0078
00E0
00C0
00C0
0180
0180
0180
0180
0380
0300
0300
0300
0700
0600
0E00
7C00
F000
ENDCHAR
STARTCHAR 007E
ENCODING 126
SWIDTH 600 0
DWIDTH 30 0
BBX 22 6 7 11
BITMAP
078000
1FE00C
38F038
703C70
C01FE0
000780
ENDCHAR
STARTCHAR 00A0
ENCODING 160
SWIDTH 600 0
DWIDTH 30 0
BBX 0 0 0 0
BITMAP
ENDCHAR
STARTCHAR 00A1
ENCODING 161
SWIDTH 600 0
DWIDTH 30 0
BBX 11 32 11 -10
BITMAP
03C0
07E0
07E0
07E0
03C0
0000
0000
0000
0000
0000
0000
0000
0600
0600
0E00
0C00
0C00
1C00
1C00
1C00
1C00
3800
3800
3800
7800
7800
7000
7000
F000
F000
F000
E000
ENDCHAR
STARTCHAR 00A2
ENCODING 162
SWIDTH 600 0
DWIDTH 30 0
BBX 19 31 9 0
BITMAP
000800
001800
001800
001800
001800
003800
007E00
03FF60
0703E0
1C01E0
1800C0
3000C0
6000C0
600000
C00000
C00000
C00000
C00000
C00000
C00000
E00100
700700
3C1E00
1FFC00
0FE000
030000
030000
030000
030000
060000
060000
ENDCHAR
STARTCHAR 00A3
ENCODING 163
SWIDTH 600 0
DWIDTH 30 0
BBX 22 29 5 0
BITMAP
0007C0
001FF0
003838
00601C
00C008
00C000
018000
018000
018000
018000
018000
018000
018000
7FFE00
7FFE00
018000
018000
018000
018000
038000
030000
030000
060000
06000C
0C000C
1C001C
380038
FFFFF0
FFFFE0
ENDCHAR
STARTCHAR 00A4
ENCODING 164
SWIDTH 600 0
DWIDTH 30 0
BBX 22 21 7 4
BITMAP
080004
1C001C
0E3F38
07FFF0
07C3E0
0300C0
0600E0
0C0060
0C0060
180060
180060
180060
1800C0
1800C0
1C0180
0C0300
1F0F80
3FFD80
71F1C0
C000E0
800000
ENDCHAR
STARTCHAR 00A5
ENCODING 165
SWIDTH 600 0
DWIDTH 30 0
BBX 25 28 8 0
BITMAP
FF007F80
FF007F80
18000C00
1C001800
0C003000
0E006000
0600C000
0701C000
03038000
03070000
018E0000
018C0000
01D80000
00F00000
7FFFC000
7FFFC000
00E00000
00C00000
00C00000
FFFF8000
FFFF8000
01800000
01800000
01800000
01800000
01800000
7FFC0000
7FFC0000
ENDCHAR
STARTCHAR 00A6
ENCODING 166
SWIDTH 600 0
DWIDTH 30 0
BBX 9 36 13 -6
BITMAP
0180
0180
0180
0180
0180
0300
0300
0300
0300
0600
0600
0600
0600
0600
0C00
0C00
0000
0000
0000
0000
1800
1800
1800
1800
3000
3000
3000
3000
6000
6000
6000
6000
6000
C000
C000
C000
ENDCHAR
STARTCHAR 00A7
ENCODING 167
SWIDTH 600 0
DWIDTH 30 0
BBX 26 33 5 -3
BITMAP
0007FFC0
001FFFC0
003800C0
00700180
00E00180
00C00180
00C00000
00C00000
03E00000
0FF00000
1C3C0000
301E0000
30078000
3003C000
3800F000
1C007800
0E001E00
07800E00
03C00700
00F00300
007C0300
001E0700
00070E00
0003FC00
0001F000
0000C000
0000C000
6000C000
6001C000
C0038000
C0070000
FFFE0000
FFF80000
ENDCHAR
STARTCHAR 00A8
ENCODING 168
SWIDTH 600 0
DWIDTH 30 0
BBX 16 5 13 26
BITMAP
700E
F81F
F81F
F81F
700E
ENDCHAR
STARTCHAR 00A9
ENCODING 169
SWIDTH 600 0
DWIDTH 30 0
BBX 30 30 3 -1
BITMAP
0003FC00
001FFF00
007C07C0
00E001E0
01C00070
03000030
0601C038
0C0FFC18
181C3C1C
38301C0C
30600C0C
6060080C
60C0000C
60C0000C
C180000C
C180000C
C1800018
C1800018
C1800018
C1C00030
C0C03070
E0E0E060
607FC0C0
701E0180
30000300
38000E00
1E003C00
0F80F800
03FFE000
00FF0000
ENDCHAR
STARTCHAR 00AA
ENCODING 170
SWIDTH 600 0
DWIDTH 30 0
BBX 16 19 10 10
BITMAP
03FC
07FE
0006
0006
0006
01E4
0FFC
1C0C
300C
6008
6018
7078
7FFF
1F9F
0000
0000
0000
FFFE
FFFE
ENDCHAR
STARTCHAR 00AB
ENCODING 171
SWIDTH 600 0
DWIDTH 30 0
BBX 26 21 5 0
BITMAP
000600C0
000E01C0
003C0380
00780700
00E01E00
01C03C00
07807800
0F00F000
1E03E000
3C07C000
F80F8000
7C078000
3C03C000
1E03C000
0F01E000
0700F000
07807000
03C03800
01C01C00
00E01C00
00600C00
ENDCHAR
STARTCHAR 00AC
ENCODING 172
SWIDTH 600 0
DWIDTH 30 0
BBX 23 13 8 9
BITMAP
FFFFFE
FFFFFE
00000E
00000C
00000C
00000C
00000C
000018
000018
000018
000018
000018
000030
ENDCHAR
STARTCHAR 00AD
ENCODING 173
SWIDTH 600 0
DWIDTH 30 0
BBX 22 2 7 13
BITMAP
FFFFFC
FFFFFC
ENDCHAR
STARTCHAR 00AE
ENCODING 174
SWIDTH 600 0
DWIDTH 30 0
BBX 30 30 3 -1
BITMAP
0003FC00
001FFF00
003C07C0
00F001E0
01C00070
03000030
06000038
0C3FF018
187FF81C
38181C0C
30180C0C
60100C0C
60301C0C
6030380C
C03FE00C
C03FC00C
C020E018
C0606018
C0607018
C0603030
C0403070
E3F81C60
63F81CC0
70000180
38000300
3C000E00
1E001C00
0F80F800
03FFE000
00FF0000
ENDCHAR
STARTCHAR 00AF
ENCODING 175
SWIDTH 600 0
DWIDTH 30 0
BBX 15 3 14 26
BITMAP
3FF8
FFFE
7FF8
ENDCHAR
STARTCHAR 00B0
ENCODING 176
SWIDTH 600 0
DWIDTH 30 0
BBX 15 15 13 17
BITMAP
03F0
0FF8
1C1C
380E
7006
6006
C006
C006
C006
C00C
C01C
E038
7070
3FE0
1F80
ENDCHAR
STARTCHAR 00B1
ENCODING 177
SWIDTH 600 0
DWIDTH 30 0
BBX 26 26 4 0
BITMAP
0000C000
00018000
00018000
00018000
00018000
00030000
00030000
00030000
00030000
1FFFFFC0
1FFFFFC0
00060000
00060000
00060000
000E0000
000C0000
000C0000
000C0000
000C0000
00180000
00000000
00000000
00000000
00000000
FFFFFE00
FFFFFC00
ENDCHAR
STARTCHAR 00B2
ENCODING 178
SWIDTH 600 0
DWIDTH 30 0
BBX 14 18 13 19
BITMAP
00E0
03F8
0E1C
1C0C
180C
000C
0018
0038
0070
00E0
0180
0700
0E00
1C00
7000
E030
FFE0
FFE0
ENDCHAR
STARTCHAR 00B3
ENCODING 179
SWIDTH 600 0
DWIDTH 30 0
BBX 14 18 13 19
BITMAP
01F0
07F8
0C1C
000C
000C
000C
0018
01F0
01E0
0030
0018
0018
0018
0018
0030
E060
7FC0
1F00
ENDCHAR
STARTCHAR 00B4
ENCODING 180
SWIDTH 600 0
DWIDTH 30 0
BBX 9 7 19 25
BITMAP
0180
0380
0E00
1C00
3800
E000
C000
ENDCHAR
STARTCHAR 00B5
ENCODING 181
SWIDTH 600 0
DWIDTH 30 0
BBX 24 31 4 -10
BITMAP
1F807F
3F007F
030003
030003
030007
070006
060006
060006
060006
06000E
0E000C
0C000C
0C000C
0C000C
0C0018
180018
180038
1C00F8
1C01F8
1E0FBE
37FE3E
33F000
300000
300000
700000
600000
600000
600000
600000
E00000
C00000
ENDCHAR
STARTCHAR 00B6
ENCODING 182
SWIDTH 600 0
DWIDTH 30 0
BBX 25 33 7 -3
BITMAP
003FFF80
01FFFF80
07E61800
0F861800
1E063000
3C0E3000
3C0C3000
380C3000
780C6000
780C6000
78186000
78186000
7C186000
3E18C000
1FB8C000
0FF0C000
01F0C000
0030C000
00318000
00718000
00618000
00618000
00630000
00630000
00C30000
00C30000
00C30000
00C60000
00C60000
01860000
01860000
FFCFE000
FFDFE000
ENDCHAR
STARTCHAR 00B7
ENCODING 183
SWIDTH 600 0
DWIDTH 30 0
BBX 5 5 15 9
BITMAP
70
F8
F8
F8
70
ENDCHAR
STARTCHAR 00B8
ENCODING 184
SWIDTH 600 0
DWIDTH 30 0
BBX 8 9 10 -9
BITMAP
0C
18
1C
1F
03
03
C7
FE
7C
ENDCHAR
STARTCHAR 00B9
ENCODING 185
SWIDTH 600 0
DWIDTH 30 0
BBX 11 17 13 20
BITMAP
03C0
1FC0
1CC0
00C0
0080
0180
0180
0180
0180
0300
0300
0300
0300
0200
0600
FFE0
FFE0
ENDCHAR
STARTCHAR 00BA
ENCODING 186
SWIDTH 600 0
DWIDTH 30 0
BBX 17 19 10 10
BITMAP
01FE00
03FF00
0E0300
0C0380
180180
380180
300180
300180
300300
300700
380E00
1C1C00
0FF800
07E000
000000
000000
000000
FFFE00
FFFE00
ENDCHAR
STARTCHAR 00BB
ENCODING 187
SWIDTH 600 0
DWIDTH 30 0
BBX 26 21 3 0
BITMAP
0400C000
0E00E000
07007000
03807000
03C03800
01E03C00
01E01E00
00F00F00
00780F80
007C0780
003E07C0
007C0F80
00F01F00
01E03E00
03C07800
0780F000
0E01E000
1C03C000
38070000
700E0000
C00C0000
ENDCHAR
STARTCHAR 00BC
ENCODING 188
SWIDTH 600 0
DWIDTH 30 0
BBX 27 31 4 0
BITMAP
00400000
03800000
1F800000
19800000
01800000
01800040
010000C0
03000180
03000700
03000E00
03001C00
06003800
06007000
0600E000
0601C0E0
040381E0
FFE70340
FFEE06C0
00180CC0
003018C0
00601880
00C03180
01806180
0300C180
0601FFC0
1C01FFC0
38000300
30000300
00000300
00001F80
00001F80
ENDCHAR
STARTCHAR 00BD
ENCODING 189
SWIDTH 600 0
DWIDTH 30 0
BBX 28 30 4 1
BITMAP
03C00000
0FC00000
1C800000
01800000
01800040
018000C0
018001C0
01000300
03000600
03000C00
03001800
02003000
06006380
0600CFE0
0603B870
FFE73030
FFEE6030
001C0030
00380070
007000E0
00E001C0
01C00380
03800700
07000C00
0C003800
18007000
3000C000
000180C0
0003FFC0
0003FF80
ENDCHAR
STARTCHAR 00BE
ENCODING 190
SWIDTH 600 0
DWIDTH 30 0
BBX 28 30 3 0
BITMAP
03F80000
0FFC0000
000C0000
000C0000
000C0020
00180060
003800C0
01E00180
00F00300
00380600
00180C00
00181800
00183000
0030E0F0
E061C1F0
7FC381A0
1F070360
000E0660
001C0E60
00380C60
007018C0
00C030C0
018070C0
030060C0
0600FFE0
0C00FFE0
18000180
10000180
00000FC0
00000FC0
ENDCHAR
STARTCHAR 00BF
ENCODING 191
SWIDTH 600 0
DWIDTH 30 0
BBX 17 29 5 -8
BITMAP
001F00
003F80
003F80
003F00
003E00
000000
000000
000000
000000
000000
000000
001800
001800
003800
00F000
03E000
070000
1C0000
380000
700000
600000
C00000
C00000
C00180
C00180
E00180
700700
7FFE00
1FF800
ENDCHAR
STARTCHAR 00C0
ENCODING 192
SWIDTH 600 0
DWIDTH 30 0
BBX 29 39 1 0
BITMAP
00038000
00038000
0001C000
0000E000
00007000
00003800
00001800
00000000
00000000
00000000
00000000
003FF800
003FFC00
0000EC00
0000CC00
00018C00
00018C00
00030C00
00070600
00060600
000E0600
000C0600
00180600
00180600
00300300
00700300
00600300
00E00300
00FFFF00
01FFFF80
03800180
03000180
07000180
06000180
0C000180
0C0001C0
180000C0
FFC01FF8
FFC03FF8
ENDCHAR
STARTCHAR 00C1
ENCODING 193
SWIDTH 600 0
DWIDTH 30 0
BBX 29 39 1 0
BITMAP
000000C0
000001C0
00000700
00000E00
00001C00
00007000
00006000
00000000
00000000
00000000
00000000
003FF800
003FFC00
0000EC00
0000CC00
00018C00
00018C00
00030C00
00070600
00060600
000E0600
000C0600
00180600
00180600
00300300
00700300
00600300
00E00300
00FFFF00
01FFFF80
03800180
03000180
07000180
06000180
0C000180
0C0001C0
180000C0
FFC01FF8
FFC03FF8
ENDCHAR
STARTCHAR 00C2
ENCODING 194
SWIDTH 600 0
DWIDTH 30 0
BBX 29 37 1 0
BITMAP
00001C00
00003E00
0000FF00
0001C780
000383C0
000E01C0
000C00C0
00000000
00000000
003FF800
003FFC00
0000EC00
0000CC00
00018C00
00018C00
00030C00
00070600
00060600
000E0600
000C0600
00180600
00180600
00300300
00700300
00600300
00E00300
00FFFF00
01FFFF80
03800180
03000180
07000180
06000180
0C000180
0C0001C0
180000C0
FFC01FF8
FFC03FF8
ENDCHAR
STARTCHAR 00C3
ENCODING 195
SWIDTH 600 0
DWIDTH 30 0
BBX 29 35 1 0
BITMAP
0001F030
0007FC70
000E3FE0
000C0780
00000000
00000000
00000000
003FF800
003FFC00
0000EC00
0000CC00
00018C00
00018C00
00030C00
00070600
00060600
000E0600
000C0600
00180600
00180600
00300300
00700300
00600300
00E00300
00FFFF00
01FFFF80
03800180
03000180
07000180
06000180
0C000180
0C0001C0
180000C0
FFC01FF8
FFC03FF8
ENDCHAR
STARTCHAR 00C4
ENCODING 196
SWIDTH 600 0
DWIDTH 30 0
BBX 29 36 1 0
BITMAP
000700E0
000F81F0
000F81F0
000F81F0
000700E0
00000000
00000000
00000000
003FF800
003FFC00
0000EC00
0000CC00
00018C00
00018C00
00030C00
00070600
00060600
000E0600
000C0600
00180600
00180600
00300300
00700300
00600300
00E00300
00FFFF00
01FFFF80
03800180
03000180
07000180
06000180
0C000180
0C0001C0
180000C0
FFC01FF8
FFC03FF8
ENDCHAR
STARTCHAR 00C5
ENCODING 197
SWIDTH 600 0
DWIDTH 30 0
BBX 29 39 1 0
BITMAP
00000600
00003F80
00007180
0000C0C0
0000C0C0
0000C080
0000C180
00007F00
00003C00
00000000
00000000
003FF800
003FFC00
0000EC00
0000CC00
00018C00
00018C00
00030C00
00070600
00060600
000E0600
000C0600
00180600
00180600
00300300
00700300
00600300
00E00300
00FFFF00
01FFFF80
03800180
03000180
07000180
06000180
0C000180
0C0001C0
180000C0
FFC01FF8
FFC03FF8
ENDCHAR
STARTCHAR 00C6
ENCODING 198
SWIDTH 600 0
DWIDTH 30 0
BBX 33 28 1 0
BITMAP
001FFFFF80
001FFFFF80
0001980180
0003180180
0003180380
0006180300
0006380300
000C300300
000C300000
0018300000
001830C000
003060C000
00307FC000
00607F8000
0060618000
00C0E18000
00C0C00000
01FFC00000
01FFC00000
0300C00000
0301C00000
0601800C00
0601800C00
0C01800C00
0C01801C00
1803001800
FF3FFFF800
FE3FFFF800
ENDCHAR
STARTCHAR 00C7
ENCODING 199
SWIDTH 600 0
DWIDTH 30 0
BBX 26 37 6 -8
BITMAP
001FF0C0
007FFCC0
01E01EC0
03800780
07000380
0E000180
1C000180
18000180
30000000
30000000
70000000
60000000
60000000
60000000
60000000
C0000000
C0000000
C0000000
C0000000
C0000000
C0000000
E0000000
60000C00
70001C00
30003800
1800F000
0E07C000
07FF0000
00F80000
00800000
01C00000
01F00000
00300000
00300000
0C700000
0FE00000
07C00000
ENDCHAR
STARTCHAR 00C8
ENCODING 200
SWIDTH 600 0
DWIDTH 30 0
BBX 29 39 2 0
BITMAP
00070000
00070000
00038000
0001C000
0000E000
00007000
00003000
00000000
00000000
00000000
00000000
03FFFFF8
03FFFFF8
00300030
00700030
00600030
00600030
00600070
00600060
00C00000
00C02000
00C06000
00C06000
01FFE000
01FFE000
0180C000
0180C000
0180C000
03800000
03000000
030000C0
030000C0
03000180
06000180
06000180
06000180
06000380
7FFFFF00
FFFFFF00
ENDCHAR
STARTCHAR 00C9
ENCODING 201
SWIDTH 600 0
DWIDTH 30 0
BBX 29 39 2 0
BITMAP
00000180
00000380
00000E00
00001C00
00003800
0000E000
0000C000
00000000
00000000
00000000
00000000
03FFFFF8
03FFFFF8
00300030
00700030
00600030
00600030
00600070
00600060
00C00000
00C02000
00C06000
00C06000
01FFE000
01FFE000
0180C000
0180C000
0180C000
03800000
03000000
030000C0
030000C0
03000180
06000180
06000180
06000180
06000380
7FFFFF00
FFFFFF00
ENDCHAR
STARTCHAR 00CA
ENCODING 202
SWIDTH 600 0
DWIDTH 30 0
BBX 29 37 2 0
BITMAP
00003800
00007C00
0001FE00
00038F00
00070780
001C0380
00180180
00000000
00000000
03FFFFF8
03FFFFF8
00300030
00700030
00600030
00600030
00600070
00600060
00C00000
00C02000
00C06000
00C06000
01FFE000
01FFE000
0180C000
0180C000
0180C000
03800000
03000000
030000C0
030000C0
03000180
06000180
06000180
06000180
06000380
7FFFFF00
FFFFFF00
ENDCHAR
STARTCHAR 00CB
ENCODING 203
SWIDTH 600 0
DWIDTH 30 0
BBX 29 36 2 0
BITMAP
000E01C0
001F03E0
001F03E0
001F03E0
000E01C0
00000000
00000000
00000000
03FFFFF8
03FFFFF8
00300030
00700030
00600030
00600030
00600070
00600060
00C00000
00C02000
00C06000
00C06000
01FFE000
01FFE000
0180C000
0180C000
0180C000
03800000
03000000
030000C0
030000C0
03000180
06000180
06000180
06000180
06000380
7FFFFF00
FFFFFF00
ENDCHAR
STARTCHAR 00CC
ENCODING 204
SWIDTH 600 0
DWIDTH 30 0
BBX 24 39 6 0
BITMAP
007000
007000
003800
001C00
000E00
000700
000300
000000
000000
000000
000000
03FFFF
07FFFF
000600
000600
000600
000600
000E00
000C00
000C00
000C00
000C00
001C00
001800
001800
001800
001800
003800
003000
003000
003000
003000
006000
006000
006000
006000
00E000
FFFFE0
FFFFC0
ENDCHAR
STARTCHAR 00CD
ENCODING 205
SWIDTH 600 0
DWIDTH 30 0
BBX 24 39 6 0
BITMAP
000018
000038
0000E0
0001C0
000380
000E00
000C00
000000
000000
000000
000000
03FFFF
07FFFF
000600
000600
000600
000600
000E00
000C00
000C00
000C00
000C00
001C00
001800
001800
001800
001800
003800
003000
003000
003000
003000
006000
006000
006000
006000
00E000
FFFFE0
FFFFC0
ENDCHAR
STARTCHAR 00CE
ENCODING 206
SWIDTH 600 0
DWIDTH 30 0
BBX 24 37 6 0
BITMAP
0000E0
0001F0
0007F8
000E3C
001C1E
00700E
006006
000000
000000
03FFFF
07FFFF
000600
000600
000600
000600
000E00
000C00
000C00
000C00
000C00
001C00
001800
001800
001800
001800
003800
003000
003000
003000
003000
006000
006000
006000
006000
00E000
FFFFE0
FFFFC0
ENDCHAR
STARTCHAR 00CF
ENCODING 207
SWIDTH 600 0
DWIDTH 30 0
BBX 24 36 6 0
BITMAP
00700E
00F81F
00F81F
00F81F
00700E
000000
000000
000000
03FFFF
07FFFF
000600
000600
000600
000600
000E00
000C00
000C00
000C00
000C00
001C00
001800
001800
001800
001800
003800
003000
003000
003000
003000
006000
006000
006000
006000
00E000
FFFFE0
FFFFC0
ENDCHAR
STARTCHAR 00D0
ENCODING 208
SWIDTH 600 0
DWIDTH 30 0
BBX 28 28 2 0
BITMAP
03FFFC00
03FFFF00
00600780
00E001C0
00C000E0
00C00060
00C00070
00C00030
01800030
01800030
01800030
01800030
7FFFC030
7FFFC070
03000060
03000060
03000060
070000E0
060000C0
060001C0
06000180
06000300
0C000700
0C000E00
0C003C00
0C00F000
7FFFE000
FFFF0000
ENDCHAR
STARTCHAR 00D1
ENCODING 209
SWIDTH 600 0
DWIDTH 30 0
BBX 32 35 2 0
BITMAP
0003E060
000FF8E0
001C7FC0
00180F00
00000000
00000000
00000000
07F003FF
07F003FF
00780030
00D80030
00DC0030
00CC0030
00CC0030
00CE0060
01860060
01870060
01830060
01830060
030380C0
030180C0
030180C0
0300C0C0
0300C1C0
0600E180
06006180
06006180
06007180
06003300
0C003B00
0C001B00
0C001B00
0C001F00
FFC00E00
FFC00E00
ENDCHAR
STARTCHAR 00D2
ENCODING 210
SWIDTH 600 0
DWIDTH 30 0
BBX 26 40 5 -1
BITMAP
00380000
00380000
001C0000
000E0000
00070000
00038000
00018000
00000000
00000000
00000000
00000000
001FF800
007FFC00
00F00E00
01C00700
03000380
06000180
0C000180
180001C0
180000C0
300000C0
300000C0
600000C0
600000C0
600000C0
C00000C0
C0000180
C0000180
C0000180
C0000300
C0000300
C0000600
E0000E00
60001C00
70003800
38007000
3C00E000
1E07C000
0FFF0000
01F80000
ENDCHAR
STARTCHAR 00D3
ENCODING 211
SWIDTH 600 0
DWIDTH 30 0
BBX 26 40 5 -1
BITMAP
00000C00
00001C00
00007000
0000E000
0001C000
00070000
00060000
00000000
00000000
00000000
00000000
001FF800
007FFC00
00F00E00
01C00700
03000380
06000180
0C000180
180001C0
180000C0
300000C0
300000C0
600000C0
600000C0
600000C0
C00000C0
C0000180
C0000180
C0000180
C0000300
C0000300
C0000600
E0000E00
60001C00
70003800
38007000
3C00E000
1E07C000
0FFF0000
01F80000
ENDCHAR
STARTCHAR 00D4
ENCODING 212
SWIDTH 600 0
DWIDTH 30 0
BBX 26 38 5 -1
BITMAP
0000E000
0001F000
0007F800
000E3C00
001C1E00
00700E00
00600600
00000000
00000000
001FF800
007FFC00
00F00E00
01C00700
03000380
06000180
0C000180
180001C0
180000C0
300000C0
300000C0
600000C0
600000C0
600000C0
C00000C0
C0000180
C0000180
C0000180
C0000300
C0000300
C0000600
E0000E00
60001C00
70003800
38007000
3C00E000
1E07C000
0FFF0000
01F80000
ENDCHAR
STARTCHAR 00D5
ENCODING 213
SWIDTH 600 0
DWIDTH 30 0
BBX 26 36 5 -1
BITMAP
000F8180
003FE380
0071FF00
00603C00
00000000
00000000
00000000
001FF800
007FFC00
00F00E00
01C00700
03000380
06000180
0C000180
180001C0
180000C0
300000C0
300000C0
600000C0
600000C0
600000C0
C00000C0
C0000180
C0000180
C0000180
C0000300
C0000300
C0000600
E0000E00
60001C00
70003800
38007000
3C00E000
1E07C000
0FFF0000
01F80000
ENDCHAR
STARTCHAR 00D6
ENCODING 214
SWIDTH 600 0
DWIDTH 30 0
BBX 26 37 5 -1
BITMAP
001C0380
003E07C0
003E07C0
003E07C0
001C0380
00000000
00000000
00000000
001FF800
007FFC00
00F00E00
01C00700
03000380
06000180
0C000180
180001C0
180000C0
300000C0
300000C0
600000C0
600000C0
600000C0
C00000C0
C0000180
C0000180
C0000180
C0000300
C0000300
C0000600
E0000E00
60001C00
70003800
38007000
3C00E000
1E07C000
0FFF0000
01F80000
ENDCHAR
STARTCHAR 00D7
ENCODING 215
SWIDTH 600 0
DWIDTH 30 0
BBX 22 18 7 5
BITMAP
0C000C
0E0018
060070
0700E0
0381C0
01C380
00EE00
00FC00
007800
007800
00FC00
038C00
070E00
0E0700
1C0380
3001C0
E000C0
C000C0
ENDCHAR
STARTCHAR 00D8
ENCODING 216
SWIDTH 600 0
DWIDTH 30 0
BBX 33 32 2 -2
BITMAP
0000000180
0000000300
0003FF0600
000FFF8C00
001E01D800
003800F000
0060007000
00C000F000
018001B000
0380033800
0300061800
06000C1800
0600181800
0C00301800
0C00601800
1C00C01800
1801801800
1803003000
1806003000
181C003000
1838006000
1870006000
18E000C000
1DC001C000
0F80038000
0F00070000
0F000E0000
1F801C0000
3BC0F80000
71FFE00000
E07F000000
C000000000
ENDCHAR
STARTCHAR 00D9
ENCODING 217
SWIDTH 600 0
DWIDTH 30 0
BBX 27 40 7 -1
BITMAP
00E00000
00E00000
00700000
00380000
001C0000
000E0000
00060000
00000000
00000000
00000000
00000000
7FE07FE0
7FE07FE0
0C000600
1C000600
18000600
18000600
18000E00
18000C00
38000C00
30000C00
30000C00
30001C00
30001800
60001800
60001800
60001800
60003800
E0003000
C0003000
C0003000
C0007000
C0006000
C000E000
E000C000
60018000
70070000
3C1E0000
1FFC0000
07E00000
ENDCHAR
STARTCHAR 00DA
ENCODING 218
SWIDTH 600 0
DWIDTH 30 0
BBX 27 40 7 -1
BITMAP
00003000
00007000
0001C000
00038000
00070000
001C0000
00180000
00000000
00000000
00000000
00000000
7FE07FE0
7FE07FE0
0C000600
1C000600
18000600
18000600
18000E00
18000C00
38000C00
30000C00
30000C00
30001C00
30001800
60001800
60001800
60001800
60003800
E0003000
C0003000
C0003000
C0007000
C0006000
C000E000
E000C000
60018000
70070000
3C1E0000
1FFC0000
07E00000
ENDCHAR
STARTCHAR 00DB
ENCODING 219
SWIDTH 600 0
DWIDTH 30 0
BBX 27 38 7 -1
BITMAP
00070000
000F8000
003FC000
0071E000
00E0F000
03807000
03003000
00000000
00000000
7FE07FE0
7FE07FE0
0C000600
1C000600
18000600
18000600
18000E00
18000C00
38000C00
30000C00
30000C00
30001C00
30001800
60001800
60001800
60001800
60003800
E0003000
C0003000
C0003000
C0007000
C0006000
C000E000
E000C000
60018000
70070000
3C1E0000
1FFC0000
07E00000
ENDCHAR
STARTCHAR 00DC
ENCODING 220
SWIDTH 600 0
DWIDTH 30 0
BBX 27 37 7 -1
BITMAP
01C03800
03E07C00
03E07C00
03E07C00
01C03800
00000000
00000000
00000000
7FE07FE0
7FE07FE0
0C000600
1C000600
18000600
18000600
18000E00
18000C00
38000C00
30000C00
30000C00
30001C00
30001800
60001800
60001800
60001800
60003800
E0003000
C0003000
C0003000
C0007000
C0006000
C000E000
E000C000
60018000
70070000
3C1E0000
1FFC0000
07E00000
ENDCHAR
STARTCHAR 00DD
ENCODING 221
SWIDTH 600 0
DWIDTH 30 0
BBX 25 39 8 0
BITMAP
00006000
0000E000
00038000
00070000
000E0000
00380000
00300000
00000000
00000000
00000000
00000000
7F807F80
FF007F80
18000C00
1C001800
0C003000
0E007000
0600E000
0701C000
03018000
03830000
01860000
018C0000
01D80000
00F00000
00F00000
00600000
00E00000
00C00000
00C00000
00C00000
00C00000
01C00000
01800000
01800000
01800000
01800000
FFFE0000
FFFE0000
ENDCHAR
STARTCHAR 00DE
ENCODING 222
SWIDTH 600 0
DWIDTH 30 0
BBX 26 28 2 0
BITMAP
03FFF000
03FFF000
00300000
00700000
007FE000
007FFE00
00603F00
00600380
00C001C0
00C000C0
00C000C0
00C000C0
01C000C0
018000C0
01800180
01800380
01800700
03800E00
03003C00
03FFF000
03FFC000
03000000
06000000
06000000
06000000
06000000
7FFE0000
FFFE0000
ENDCHAR
STARTCHAR 00DF
ENCODING 223
SWIDTH 600 0
DWIDTH 30 0
BBX 25 31 2 -1
BITMAP
0001F800
0007FC00
001E0E00
00180700
00300300
00700300
00600300
00600300
00600600
00600E00
00C01C00
00C1F000
00C1F800
00C03C00
01C00E00
01800700
01800380
01800180
01800180
03800180
03000180
03000180
03000180
03000300
07000300
060C0700
060C0600
060C0C00
7F8E1C00
FF07F000
0003E000
ENDCHAR
STARTCHAR 00E0
ENCODING 224
SWIDTH 600 0
DWIDTH 30 0
BBX 22 34 5 -1
BITMAP
003800
003800
001C00
000E00
000700
000380
000180
000000
000000
000000
000000
000000
00FFE0
03FFF0
020038
000018
000018
000018
000018
000018
00FF30
07FFF0
1F00F0
380030
700070
600060
C00060
C00060
C001E0
C003E0
E00EC0
703CFC
3FF0FC
1FC000
ENDCHAR
STARTCHAR 00E1
ENCODING 225
SWIDTH 600 0
DWIDTH 30 0
BBX 22 33 5 -1
BITMAP
000030
000070
0001C0
000380
000700
001C00
001800
000000
000000
000000
000000
00FFE0
03FFF0
020038
000018
000018
000018
000018
000018
00FF30
07FFF0
1F00F0
380030
700070
600060
C00060
C00060
C001E0
C003E0
E00EC0
703CFC
3FF0FC
1FC000
ENDCHAR
STARTCHAR 00E2
ENCODING 226
SWIDTH 600 0
DWIDTH 30 0
BBX 22 32 5 -1
BITMAP
0001C0
0003E0
000FF0
001C78
00383C
00E01C
00C00C
000000
000000
000000
00FFE0
03FFF0
020038
000018
000018
000018
000018
000018
00FF30
07FFF0
1F00F0
380030
700070
600060
C00060
C00060
C001E0
C003E0
E00EC0
703CFC
3FF0FC
1FC000
ENDCHAR
STARTCHAR 00E3
ENCODING 227
SWIDTH 600 0
DWIDTH 30 0
BBX 24 31 5 -1
BITMAP
001F03
007FC7
00E3FE
00C078
000000
000000
000000
000000
000000
00FFE0
03FFF0
020038
000018
000018
000018
000018
000018
00FF30
07FFF0
1F00F0
380030
700070
600060
C00060
C00060
C001E0
C003E0
E00EC0
703CFC
3FF0FC
1FC000
ENDCHAR
STARTCHAR 00E4
ENCODING 228
SWIDTH 600 0
DWIDTH 30 0
BBX 23 31 5 -1
BITMAP
00E01C
01F03E
01F03E
01F03E
00E01C
000000
000000
000000
000000
00FFE0
03FFF0
020038
000018
000018
000018
000018
000018
00FF30
07FFF0
1F00F0
380030
700070
600060
C00060
C00060
C001E0
C003E0
E00EC0
703CFC
3FF0FC
1FC000
ENDCHAR
STARTCHAR 00E5
ENCODING 229
SWIDTH 600 0
DWIDTH 30 0
BBX 22 34 5 -1
BITMAP
0000C0
0007F0
000E30
001818
001818
001810
001830
000FE0
000780
000000
000000
000000
00FFE0
03FFF0
020038
000018
000018
000018
000018
000018
00FF30
07FFF0
1F00F0
380030
700070
600060
C00060
C00060
C001E0
C003E0
E00EC0
703CFC
3FF0FC
1FC000
ENDCHAR
STARTCHAR 00E6
ENCODING 230
SWIDTH 600 0
DWIDTH 30 0
BBX 29 22 2 0
BITMAP
01FE0FE0
03FF1FF0
0003B030
0001E038
0001C018
0001C018
00018018
00018018
01FF0018
0FFFFFF8
1E07FFF8
38030000
60030000
E0070000
C0070000
C0070000
C00F0000
C01F8060
E03D80E0
70EDC3C0
3FCCFF00
1F007C00
ENDCHAR
STARTCHAR 00E7
ENCODING 231
SWIDTH 600 0
DWIDTH 30 0
BBX 24 30 6 -8
BITMAP
007FE3
01FFFB
03803F
0E000F
0C0006
180006
300006
700004
600000
600000
C00000
C00000
C00000
C00000
C00000
C00000
E00008
700018
780070
3E03C0
1FFF00
03F800
018000
01C000
01F000
003000
003000
0C7000
0FE000
07C000
ENDCHAR
STARTCHAR 00E8
ENCODING 232
SWIDTH 600 0
DWIDTH 30 0
BBX 24 33 5 -1
BITMAP
003800
003800
001C00
000E00
000700
000380
000180
000000
000000
000000
000000
007FE0
01FFF8
07803C
0E000E
1C0006
380007
300003
600003
600003
FFFFFF
FFFFFF
C00000
C00000
C00000
C00000
E00000
600000
70000C
38003C
1F01F0
0FFFC0
01FE00
ENDCHAR
STARTCHAR 00E9
ENCODING 233
SWIDTH 600 0
DWIDTH 30 0
BBX 24 33 5 -1
BITMAP
000030
000070
0001C0
000380
000700
001C00
001800
000000
000000
000000
000000
007FE0
01FFF8
07803C
0E000E
1C0006
380007
300003
600003
600003
FFFFFF
FFFFFF
C00000
C00000
C00000
C00000
E00000
600000
70000C
38003C
1F01F0
0FFFC0
01FE00
ENDCHAR
STARTCHAR 00EA
ENCODING 234
SWIDTH 600 0
DWIDTH 30 0
BBX 24 32 5 -1
BITMAP
0001C0
0003E0
000FF0
001C78
00383C
00E01C
00C00C
000000
000000
000000
007FE0
01FFF8
07803C
0E000E
1C0006
380007
300003
600003
600003
FFFFFF
FFFFFF
C00000
C00000
C00000
C00000
E00000
600000
70000C
38003C
1F01F0
0FFFC0
01FE00
ENDCHAR
STARTCHAR 00EB
ENCODING 235
SWIDTH 600 0
DWIDTH 30 0
BBX 24 31 5 -1
BITMAP
00E01C
01F03E
01F03E
01F03E
00E01C
000000
000000
000000
000000
007FE0
01FFF8
07803C
0E000E
1C0006
380007
300003
600003
600003
FFFFFF
FFFFFF
C00000
C00000
C00000
C00000
E00000
600000
70000C
38003C
1F01F0
0FFFC0
01FE00
ENDCHAR
STARTCHAR 00EC
ENCODING 236
SWIDTH 600 0
DWIDTH 30 0
BBX 21 32 5 0
BITMAP
007000
007000
003800
001C00
000E00
000700
000300
000000
000000
000000
000000
03FE00
03FE00
000600
000600
000E00
000C00
000C00
000C00
000C00
001800
001800
001800
001800
001800
003000
003000
003000
003000
007000
FFFFF8
FFFFF0
ENDCHAR
STARTCHAR 00ED
ENCODING 237
SWIDTH 600 0
DWIDTH 30 0
BBX 21 32 5 0
BITMAP
000030
000070
0001C0
000380
000700
001C00
001800
000000
000000
000000
000000
03FE00
03FE00
000600
000600
000E00
000C00
000C00
000C00
000C00
001800
001800
001800
001800
001800
003000
003000
003000
003000
007000
FFFFF8
FFFFF0
ENDCHAR
STARTCHAR 00EE
ENCODING 238
SWIDTH 600 0
DWIDTH 30 0
BBX 21 31 5 0
BITMAP
000380
0007C0
001FE0
0038F0
007078
01C038
018018
000000
000000
000000
03FE00
03FE00
000600
000600
000E00
000C00
000C00
000C00
000C00
001800
001800
001800
001800
001800
003000
003000
003000
003000
007000
FFFFF8
FFFFF0
ENDCHAR
STARTCHAR 00EF
ENCODING 239
SWIDTH 600 0
DWIDTH 30 0
BBX 23 30 5 0
BITMAP
00E01C
01F03E
01F03E
01F03E
00E01C
000000
000000
000000
000000
03FE00
03FE00
000600
000600
000E00
000C00
000C00
000C00
000C00
001800
001800
001800
001800
001800
003000
003000
003000
003000
007000
FFFFF8
FFFFF0
ENDCHAR
STARTCHAR 00F0
ENCODING 240
SWIDTH 600 0
DWIDTH 30 0
BBX 23 32 6 -1
BITMAP
007006
007E1E
001FFC
0003E0
000FE0
003C70
003030
000038
000018
00001C
007FCC
01FFFE
03807E
0E001E
1C000E
18000E
300006
600006
600006
600006
C00006
C00006
C0000C
C0000C
C00018
E00038
600030
7000E0
3801C0
1E0780
0FFE00
03F000
ENDCHAR
STARTCHAR 00F1
ENCODING 241
SWIDTH 600 0
DWIDTH 30 0
BBX 26 30 3 0
BITMAP
0007C0C0
001FF1C0
0038FF80
00301E00
00000000
00000000
00000000
00000000
00000000
07C7FC00
0F8FFE00
01B80600
01F00700
01C00300
01800300
03000300
03000300
03000700
03000600
07000600
06000600
06000600
06000E00
06000C00
0E000C00
0C000C00
0C000C00
0C001800
FF80FF00
FF80FF00
ENDCHAR
STARTCHAR 00F2
ENCODING 242
SWIDTH 600 0
DWIDTH 30 0
BBX 23 33 6 -1
BITMAP
007000
007000
003800
001C00
000E00
000700
000300
000000
000000
000000
000000
007FC0
01FFF0
038078
0E001C
1C000C
18000E
300006
600006
600006
600006
C00006
C00006
C0000C
C0000C
C00018
E00038
600030
7000E0
3801C0
1E0780
0FFE00
03F800
ENDCHAR
STARTCHAR 00F3
ENCODING 243
SWIDTH 600 0
DWIDTH 30 0
BBX 23 33 6 -1
BITMAP
000060
0000E0
000380
000700
000E00
003800
003000
000000
000000
000000
000000
007FC0
01FFF0
038078
0E001C
1C000C
18000E
300006
600006
600006
600006
C00006
C00006
C0000C
C0000C
C00018
E00038
600030
7000E0
3801C0
1E0780
0FFE00
03F800
ENDCHAR
STARTCHAR 00F4
ENCODING 244
SWIDTH 600 0
DWIDTH 30 0
BBX 23 32 6 -1
BITMAP
000380
0007C0
001FE0
0038F0
007078
01C038
018018
000000
000000
000000
007FC0
01FFF0
038078
0E001C
1C000C
18000E
300006
600006
600006
600006
C00006
C00006
C0000C
C0000C
C00018
E00038
600030
7000E0
3801C0
1E0780
0FFE00
03F800
ENDCHAR
STARTCHAR 00F5
ENCODING 245
SWIDTH 600 0
DWIDTH 30 0
BBX 23 30 6 -1
BITMAP
003E06
00FF8E
01C7FC
0180F0
000000
000000
000000
000000
007FC0
01FFF0
038078
0E001C
1C000C
18000E
300006
600006
600006
600006
C00006
C00006
C0000C
C0000C
C00018
E00038
600030
7000E0
3801C0
1E0780
0FFE00
03F800
ENDCHAR
STARTCHAR 00F6
ENCODING 246
SWIDTH 600 0
DWIDTH 30 0
BBX 23 31 6 -1
BITMAP
01C038
03E07C
03E07C
03E07C
01C038
000000
000000
000000
000000
007FC0
01FFF0
038078
0E001C
1C000C
18000E
300006
600006
600006
600006
C00006
C00006
C0000C
C0000C
C00018
E00038
600030
7000E0
3801C0
1E0780
0FFE00
03F800
ENDCHAR
STARTCHAR 00F7
ENCODING 247
SWIDTH 600 0
DWIDTH 30 0
BBX 22 26 7 1
BITMAP
000C00
001E00
003E00
003E00
001C00
000000
000000
000000
000000
000000
000000
000000
FFFFFC
FFFFFC
000000
000000
000000
000000
000000
000000
000000
01C000
03E000
03E000
03E000
01C000
ENDCHAR
STARTCHAR 00F8
ENCODING 248
SWIDTH 600 0
DWIDTH 30 0
BBX 29 25 3 -2
BITMAP
00000018
00000038
000FF860
003FFEC0
00700F80
01C00380
03800780
03001DC0
060038C0
0C0060C0
0C00C0C0
1C0180C0
180700C0
180E00C0
181C0180
18300180
18600300
1CC00300
0F800600
0F001C00
0F003800
1FC0F000
31FFC000
607F0000
C0000000
ENDCHAR
STARTCHAR 00F9
ENCODING 249
SWIDTH 600 0
DWIDTH 30 0
BBX 22 33 6 -1
BITMAP
007000
007000
003800
001C00
000E00
000700
000300
000000
000000
000000
000000
FC01FC
FC01FC
1C000C
18000C
18001C
180018
180018
300018
300018
300030
300030
300030
600030
600070
600060
600060
6000E0
6003E0
7007E0
383CF8
3FF8F8
0FC000
ENDCHAR
STARTCHAR 00FA
ENCODING 250
SWIDTH 600 0
DWIDTH 30 0
BBX 22 33 6 -1
BITMAP
000060
0000E0
000380
000700
000E00
003800
003000
000000
000000
000000
000000
FC01FC
FC01FC
1C000C
18000C
18001C
180018
180018
300018
300018
300030
300030
300030
600030
600070
600060
600060
6000E0
6003E0
7007E0
383CF8
3FF8F8
0FC000
ENDCHAR
STARTCHAR 00FB
ENCODING 251
SWIDTH 600 0
DWIDTH 30 0
BBX 22 32 6 -1
BITMAP
000700
000F80
003FC0
0071E0
00E0F0
038070
030030
000000
000000
000000
FC01FC
FC01FC
1C000C
18000C
18001C
180018
180018
300018
300018
300030
300030
300030
600030
600070
600060
600060
6000E0
6003E0
7007E0
383CF8
3FF8F8
0FC000
ENDCHAR
STARTCHAR 00FC
ENCODING 252
SWIDTH 600 0
DWIDTH 30 0
BBX 22 31 6 -1
BITMAP
01C038
03E07C
03E07C
03E07C
01C038
000000
000000
000000
000000
FC01FC
FC01FC
1C000C
18000C
18001C
180018
180018
300018
300018
300030
300030
300030
600030
600070
600060
600060
6000E0
6003E0
7007E0
383CF8
3FF8F8
0FC000
ENDCHAR
STARTCHAR 00FD
ENCODING 253
SWIDTH 600 0
DWIDTH 30 0
BBX 31 41 1 -9
BITMAP
00000300
00000700
00001C00
00003800
00007000
0001C000
00018000
00000000
00000000
00000000
00000000
03FC01FE
03FC01FC
00C00030
00C00060
00E00060
006000C0
00600180
00700180
00300300
00300600
00300C00
00380C00
00181800
00183000
001C3000
000C6000
000CC000
000CC000
000F8000
00070000
00060000
00060000
000C0000
00180000
00180000
00300000
00600000
00C00000
FFFC0000
FFFC0000
ENDCHAR
STARTCHAR 00FE
ENCODING 254
SWIDTH 600 0
DWIDTH 30 0
BBX 31 38 -1 -9
BITMAP
00FC0000
00FC0000
000C0000
000C0000
001C0000
00180000
00180000
00180000
00187FE0
0031FFF0
00338038
0036001C
003C000C
00780006
00700006
00700006
00600006
00600006
00E00006
00E0000C
00E0000C
00E00018
00F00038
01F00070
01B800E0
019E0780
018FFF00
0383F800
03000000
03000000
03000000
03000000
07000000
06000000
06000000
06000000
7FF80000
FFF80000
ENDCHAR
STARTCHAR 00FF
ENCODING 255
SWIDTH 600 0
DWIDTH 30 0
BBX 31 39 1 -9
BITMAP
000E01C0
001F03E0
001F03E0
001F03E0
000E01C0
00000000
00000000
00000000
00000000
03FC01FE
03FC01FC
00C00030
00C00060
00E00060
006000C0
00600180
00700180
00300300
00300600
00300C00
00380C00
00181800
00183000
001C3000
000C6000
000CC000
000CC000
000F8000
00070000
00060000
00060000
000C0000
00180000
00180000
00300000
00600000
00C00000
FFFC0000
FFFC0000
ENDCHAR
STARTCHAR 0100
ENCODING 256
SWIDTH 600 0
DWIDTH 30 0
BBX 29 34 1 0
BITMAP
0001FFC0
0007FFF0
0003FFC0
00000000
00000000
00000000
003FF800
003FFC00
0000EC00
0000CC00
00018C00
00018C00
00030C00
00070600
00060600
000E0600
000C0600
00180600
00180600
00300300
00700300
00600300
00E00300
00FFFF00
01FFFF80
03800180
03000180
07000180
06000180
0C000180
0C0001C0
180000C0
FFC01FF8
FFC03FF8
ENDCHAR
STARTCHAR 0101
ENCODING 257
SWIDTH 600 0
DWIDTH 30 0
BBX 24 29 5 -1
BITMAP
001FFC
007FFF
003FFC
000000
000000
000000
000000
00FFE0
03FFF0
020038
000018
000018
000018
000018
000018
00FF30
07FFF0
1F00F0
380030
700070
600060
C00060
C00060
C001E0
C003E0
E00EC0
703CFC
3FF0FC
1FC000
ENDCHAR
STARTCHAR 0102
ENCODING 258
SWIDTH 600 0
DWIDTH 30 0
BBX 29 37 1 0
BITMAP
00020000
00060060
00060060
000700C0
00038380
0003FF00
0000FC00
00000000
00000000
003FF800
003FFC00
0000EC00
0000CC00
00018C00
00018C00
00030C00
00070600
00060600
000E0600
000C0600
00180600
00180600
00300300
00700300
00600300
00E00300
00FFFF00
01FFFF80
03800180
03000180
07000180
06000180
0C000180
0C0001C0
180000C0
FFC01FF8
FFC03FF8
ENDCHAR
STARTCHAR 0103
ENCODING 259
SWIDTH 600 0
DWIDTH 30 0
BBX 23 32 5 -1
BITMAP
002000
006006
006006
00700C
003838
003FF0
000FC0
000000
000000
000000
00FFE0
03FFF0
020038
000018
000018
000018
000018
000018
00FF30
07FFF0
1F00F0
380030
700070
600060
C00060
C00060
C001E0
C003E0
E00EC0
703CFC
3FF0FC
1FC000
ENDCHAR
STARTCHAR 0104
ENCODING 260
SWIDTH 600 0
DWIDTH 30 0
BBX 28 36 1 -8
BITMAP
003FF800
003FFC00
0000EC00
0000CC00
00018C00
00018C00
00030C00
00070600
00060600
000E0600
000C0600
00180600
00180600
00300300
00700300
00600300
00E00300
00FFFF00
01FFFF80
03800180
03000180
07000180
06000180
0C000180
0C0001C0
180000C0
FFC03FF0
FFC03FF0
000001C0
00000300
00000C00
00000C00
00001800
00001800
00001FC0
00000F00
ENDCHAR
STARTCHAR 0105
ENCODING 261
SWIDTH 600 0
DWIDTH 30 0
BBX 22 29 5 -7
BITMAP
00FFE0
03FFF0
020038
000018
000018
000018
000018
000018
00FF30
07FFF0
1F00F0
380030
700070
600060
C00060
C00060
C001E0
C003E0
E00EC0
703CFC
3FF0FC
1FC030
0000C0
000180
000180
000300
000300
0003F8
0001F0
ENDCHAR
STARTCHAR 0106
ENCODING 262
SWIDTH 600 0
DWIDTH 30 0
BBX 26 39 6 -1
BITMAP
00006000
0000E000
00038000
00070000
000E0000
00380000
00300000
00000000
00000000
00000000
003FF0C0
00FFFCC0
01E01EC0
03800780
06000380
0C000180
18000180
38000180
30000000
70000000
60000000
60000000
E0000000
C0000000
C0000000
C0000000
C0000000
C0000000
C0000000
C0000000
C0000000
E0000000
60000C00
70001C00
38003800
3C00F000
1F03C000
07FF0000
01FC0000
ENDCHAR
STARTCHAR 0107
ENCODING 263
SWIDTH 600 0
DWIDTH 30 0
BBX 24 33 6 -1
BITMAP
000060
0000E0
000380
000700
000E00
003800
003000
000000
000000
000000
001FC0
00FFF3
03C07F
07001F
0E000F
180006
380006
300006
700000
600000
600000
C00000
C00000
C00000
C00000
C00000
C00000
60000C
70001C
380078
3E03E0
0FFF80
03F800
ENDCHAR
STARTCHAR 0108
ENCODING 264
SWIDTH 600 0
DWIDTH 30 0
BBX 26 39 6 -1
BITMAP
00008000
0001C000
0007E000
000E7000
00383800
00701C00
00E00E00
00000000
00000000
00000000
003FF0C0
00FFFCC0
01E01EC0
03800780
06000380
0C000180
18000180
38000180
30000000
70000000
60000000
60000000
E0000000
C0000000
C0000000
C0000000
C0000000
C0000000
C0000000
C0000000
C0000000
E0000000
60000C00
70001C00
38003800
3C00F000
1F03C000
07FF0000
01FC0000
ENDCHAR
STARTCHAR 0109
ENCODING 265
SWIDTH 600 0
DWIDTH 30 0
BBX 24 32 6 -1
BITMAP
000100
000380
0007C0
001CE0
003870
00F038
01C01C
000008
000000
001FC0
00FFF3
03C07F
07001F
0E000F
180006
380006
300006
700000
600000
600000
C00000
C00000
C00000
C00000
C00000
C00000
60000C
70001C
380078
3E03E0
0FFF80
03F800
ENDCHAR
STARTCHAR 010A
ENCODING 266
SWIDTH 600 0
DWIDTH 30 0
BBX 26 37 6 -1
BITMAP
0003C000
0007C000
0007C000
00078000
00030000
00000000
00000000
00000000
003FF0C0
00FFFCC0
01E01EC0
03800780
06000380
0C000180
18000180
38000180
30000000
70000000
60000000
60000000
E0000000
C0000000
C0000000
C0000000
C0000000
C0000000
C0000000
C0000000
C0000000
E0000000
60000C00
70001C00
38003800
3C00F000
1F03C000
07FF0000
01FC0000
ENDCHAR
STARTCHAR 010B
ENCODING 267
SWIDTH 600 0
DWIDTH 30 0
BBX 24 31 6 -1
BITMAP
000300
000780
000F80
000F80
000700
000000
000000
000000
001FC0
00FFF3
03C07F
07001F
0E000F
180006
380006
300006
700000
600000
600000
C00000
C00000
C00000
C00000
C00000
C00000
60000C
70001C
380078
3E03E0
0FFF80
03F800
ENDCHAR
STARTCHAR 010C
ENCODING 268
SWIDTH 600 0
DWIDTH 30 0
BBX 26 39 6 -1
BITMAP
001C01C0
001E0380
000F0E00
00079C00
0003F000
0001E000
0000C000
00000000
00000000
00000000
003FF0C0
00FFFCC0
01E01EC0
03800780
06000380
0C000180
18000180
38000180
30000000
70000000
60000000
60000000
E0000000
C0000000
C0000000
C0000000
C0000000
C0000000
C0000000
C0000000
C0000000
E0000000
60000C00
70001C00
38003800
3C00F000
1F03C000
07FF0000
01FC0000
ENDCHAR
STARTCHAR 010D
ENCODING 269
SWIDTH 600 0
DWIDTH 30 0
BBX 24 33 6 -1
BITMAP
007007
00780E
003C38
001E70
000FC0
000780
000300
000000
000000
000000
001FC0
00FFF3
03C07F
07001F
0E000F
180006
380006
300006
700000
600000
600000
C00000
C00000
C00000
C00000
C00000
C00000
60000C
70001C
380078
3E03E0
0FFF80
03F800
ENDCHAR
STARTCHAR 010E
ENCODING 270
SWIDTH 600 0
DWIDTH 30 0
BBX 28 38 2 0
BITMAP
00070070
000780E0
0003C380
0001E700
0000FC00
00007800
00003000
00000000
00000000
00000000
03FFFC00
03FFFF00
00600780
00E001C0
00C000E0
00C00060
00C00070
00C00030
01800030
01800030
01800030
01800030
03800030
03000070
03000060
03000060
03000060
070000E0
060000C0
060001C0
06000180
06000300
0C000700
0C000E00
0C003C00
0C00F000
7FFFE000
FFFF0000
ENDCHAR
STARTCHAR 010F
ENCODING 271
SWIDTH 600 0
DWIDTH 30 0
BBX 36 32 2 -1
BITMAP
00000000F0
00000FC1E0
00000FC1C0
000000C380
000000C380
000000C700
0000018600
0000018C00
0000018C00
0000018000
007FC30000
01FFE30000
0780730000
0E003B0000
1C001B0000
18000E0000
30000E0000
60000E0000
60000E0000
60000E0000
C0000C0000
C0000C0000
C0000C0000
C0001C0000
C000180000
E000380000
6000780000
7000D80000
3803980000
3C0F3F0000
0FFC3F0000
03F0000000
ENDCHAR
STARTCHAR 0110
ENCODING 272
SWIDTH 600 0
DWIDTH 30 0
BBX 28 28 2 0
BITMAP
03FFFC00
03FFFF00
00600780
00E001C0
00C000E0
00C00060
00C00070
00C00030
01800030
01800030
01800030
01800030
7FFFC030
7FFFC070
03000060
03000060
03000060
070000E0
060000C0
060001C0
06000180
06000300
0C000700
0C000E00
0C003C00
0C00F000
7FFFE000
FFFF0000
ENDCHAR
STARTCHAR 0111
ENCODING 273
SWIDTH 600 0
DWIDTH 30 0
BBX 30 31 5 -1
BITMAP
00000FC0
00000FC0
000000C0
000000C0
0001FFFC
0001FFF8
00000180
00000180
00040180
007FC300
01FFE300
07807300
0E003B00
1C001B00
18000E00
30000E00
60000E00
60000E00
60000E00
C0000C00
C0000C00
C0000C00
C0001C00
C0001C00
E0003800
60007800
7000D800
38039800
3C0F3F00
0FFC3F00
03F00000
ENDCHAR
STARTCHAR 0112
ENCODING 274
SWIDTH 600 0
DWIDTH 30 0
BBX 29 33 2 0
BITMAP
0001FFC0
0007FFF0
0003FFC0
00000000
00000000
03FFFFF8
03FFFFF8
00300030
00700030
00600030
00600030
00600070
00600060
00C00000
00C02000
00C06000
00C06000
01FFE000
01FFE000
0180C000
0180C000
0180C000
03800000
03000000
030000C0
030000C0
03000180
06000180
06000180
06000180
06000380
7FFFFF00
FFFFFF00
ENDCHAR
STARTCHAR 0113
ENCODING 275
SWIDTH 600 0
DWIDTH 30 0
BBX 24 29 5 -1
BITMAP
001FFC
007FFF
003FFC
000000
000000
000000
000000
007FE0
01FFF8
07803C
0E000E
1C0006
380007
300003
600003
600003
FFFFFF
FFFFFF
C00000
C00000
C00000
C00000
E00000
600000
70000C
38003C
1F01F0
0FFFC0
01FE00
ENDCHAR
STARTCHAR 0114
ENCODING 276
SWIDTH 600 0
DWIDTH 30 0
BBX 29 36 2 0
BITMAP
000400C0
000C00C0
000E01C0
00070380
0007FF00
0001FC00
00000000
00000000
03FFFFF8
03FFFFF8
00300030
00700030
00600030
00600030
00600070
00600060
00C00000
00C02000
00C06000
00C06000
01FFE000
01FFE000
0180C000
0180C000
0180C000
03800000
03000000
030000C0
030000C0
03000180
06000180
06000180
06000180
06000380
7FFFFF00
FFFFFF00
ENDCHAR
STARTCHAR 0115
ENCODING 277
SWIDTH 600 0
DWIDTH 30 0
BBX 24 30 5 -1
BITMAP
004004
00C00C
00E00C
006038
007DF0
003FE0
000200
000000
007FE0
01FFF8
07803C
0E000E
1C0006
380007
300003
600003
600003
FFFFFF
FFFFFF
C00000
C00000
C00000
C00000
E00000
600000
70000C
38003C
1F01F0
0FFFC0
01FE00
ENDCHAR
STARTCHAR 0116
ENCODING 278
SWIDTH 600 0
DWIDTH 30 0
BBX 29 37 2 0
BITMAP
00003800
00007C00
00007C00
00007C00
00003800
00000000
00000000
00000000
00000000
03FFFFF8
03FFFFF8
00300030
00700030
00600030
00600030
00600070
00600060
00C00000
00C02000
00C06000
00C06000
01FFE000
01FFE000
0180C000
0180C000
0180C000
03800000
03000000
030000C0
030000C0
03000180
06000180
06000180
06000180
06000380
7FFFFF00
FFFFFF00
ENDCHAR
STARTCHAR 0117
ENCODING 279
SWIDTH 600 0
DWIDTH 30 0
BBX 24 31 5 -1
BITMAP
000700
000F80
000F80
000F80
000700
000000
000000
000000
000000
007FE0
01FFF8
07803C
0E000E
1C0006
380007
300003
600003
600003
FFFFFF
FFFFFF
C00000
C00000
C00000
C00000
E00000
600000
70000C
38003C
1F01F0
0FFFC0
01FE00
ENDCHAR
STARTCHAR 0118
ENCODING 280
SWIDTH 600 0
DWIDTH 30 0
BBX 28 36 3 -8
BITMAP
03FFFFF0
03FFFFF0
00600060
00E00060
00C00060
00C00060
00C000E0
00C000C0
01800000
01806000
01806000
0180C000
03FFC000
03FFC000
0300C000
0301C000
03018000
07000000
06000000
06000180
06000180
06000300
0C000300
0C000300
0C000300
0C000700
FFFFFE00
FFFFFE00
00001C00
00003000
0000C000
0000C000
00018000
00018000
0001FC00
0000F000
ENDCHAR
STARTCHAR 0119
ENCODING 281
SWIDTH 600 0
DWIDTH 30 0
BBX 24 29 5 -7
BITMAP
007FE0
01FFF8
07803C
0E000E
1C0006
380007
300003
600003
600003
FFFFFF
FFFFFF
C00000
C00000
C00000
C00000
E00000
600000
70000C
38003C
1E03F0
0FFFC0
03FF00
000C00
003800
003000
006000
006000
007F00
003E00
ENDCHAR
STARTCHAR 011A
ENCODING 282
SWIDTH 600 0
DWIDTH 30 0
BBX 29 38 2 0
BITMAP
00070070
000780E0
0003C380
0001E700
0000FC00
00007800
00003000
00000000
00000000
00000000
03FFFFF8
03FFFFF8
00300030
00700030
00600030
00600030
00600070
00600060
00C00000
00C02000
00C06000
00C06000
01FFE000
01FFE000
0180C000
0180C000
0180C000
03800000
03000000
030000C0
030000C0
03000180
06000180
06000180
06000180
06000380
7FFFFF00
FFFFFF00
ENDCHAR
STARTCHAR 011B
ENCODING 283
SWIDTH 600 0
DWIDTH 30 0
BBX 25 33 5 -1
BITMAP
00380380
003C0700
001E1C00
000F3800
0007E000
0003C000
00018000
00000000
00000000
00000000
00000000
007FE000
01FFF800
07803C00
0E000E00
1C000600
38000700
30000300
60000300
60000300
FFFFFF00
FFFFFF00
C0000000
C0000000
C0000000
C0000000
E0000000
60000000
70000C00
38003C00
1F01F000
0FFFC000
01FE0000
ENDCHAR
STARTCHAR 011C
ENCODING 284
SWIDTH 600 0
DWIDTH 30 0
BBX 27 39 5 -1
BITMAP
00002000
0000F000
0001F800
00079C00
000E0E00
001C0700
00300300
00000000
00000000
00000000
001FFC20
007FFF60
00F007E0
03C001E0
070000C0
0E0000C0
0C0000C0
18000000
38000000
30000000
30000000
60000000
60000000
60000000
60000000
C0000000
C007FFC0
C007FFC0
C0000600
C0000600
C0000600
C0000E00
E0000C00
60000C00
70000C00
3C001C00
1F00F800
07FFE000
01FF0000
ENDCHAR
STARTCHAR 011D
ENCODING 285
SWIDTH 600 0
DWIDTH 30 0
BBX 27 39 5 -8
BITMAP
0001C000
0003E000
000F7000
001C3800
00381C00
00600E00
00400400
00000000
00000000
00FF87E0
03FFE7E0
0700E600
0C003600
18003E00
30001C00
70001C00
60001C00
60001C00
C0001800
C0001800
C0003800
C0003800
C0007800
E000F000
6001F000
7003B000
3C0F3000
1FFC7000
07F06000
00006000
00006000
00006000
0000C000
0000C000
00018000
00030000
000E0000
3FFC0000
3FF00000
ENDCHAR
STARTCHAR 011E
ENCODING 286
SWIDTH 600 0
DWIDTH 30 0
BBX 27 38 5 -1
BITMAP
00040000
000C00C0
000C00C0
000E0180
00070700
0007FE00
0001F800
00000000
00000000
001FFC20
007FFF60
00F007E0
03C001E0
070000C0
0E0000C0
0C0000C0
18000000
38000000
30000000
30000000
60000000
60000000
60000000
60000000
C0000000
C007FFC0
C007FFC0
C0000600
C0000600
C0000600
C0000E00
E0000C00
60000C00
70000C00
3C001C00
1F00F800
07FFE000
01FF0000
ENDCHAR
STARTCHAR 011F
ENCODING 287
SWIDTH 600 0
DWIDTH 30 0
BBX 27 40 5 -9
BITMAP
00200000
00600600
00600600
00700C00
00383800
003FF000
000FC000
00000000
00000000
00000000
00FF87E0
03FFE7E0
0700E600
0C003600
18003E00
30001C00
70001C00
60001C00
60001C00
C0001800
C0001800
C0003800
C0003800
C0007800
E000F000
6001F000
7003B000
3C0F3000
1FFC7000
07F06000
00006000
00006000
00006000
0000C000
0000C000
00018000
00030000
000E0000
3FFC0000
3FF00000
ENDCHAR
STARTCHAR 0120
ENCODING 288
SWIDTH 600 0
DWIDTH 30 0
BBX 27 37 5 -1
BITMAP
0000E000
0001F000
0001F000
0001E000
0000C000
00000000
00000000
00000000
001FFC20
007FFF60
00F007E0
03C001E0
070000C0
0E0000C0
0C0000C0
18000000
38000000
30000000
30000000
60000000
60000000
60000000
60000000
C0000000
C007FFC0
C007FFC0
C0000600
C0000600
C0000600
C0000E00
E0000C00
60000C00
70000C00
3C001C00
1F00F800
07FFE000
01FF0000
ENDCHAR
STARTCHAR 0121
ENCODING 289
SWIDTH 600 0
DWIDTH 30 0
BBX 27 38 5 -9
BITMAP
00018000
0003C000
0007C000
0007C000
00038000
00000000
00000000
00000000
00FF87E0
03FFE7E0
0700E600
0C003600
18003E00
30001C00
70001C00
60001C00
60001C00
C0001800
C0001800
C0003800
C0003800
C0007800
E000F000
6001F000
7003B000
3C0F3000
1FFC7000
07F06000
00006000
00006000
00006000
0000C000
0000C000
00018000
00030000
000E0000
3FFC0000
3FF00000
ENDCHAR
STARTCHAR 0122
ENCODING 290
SWIDTH 600 0
DWIDTH 30 0
BBX 27 38 5 -9
BITMAP
001FFC20
007FFF60
00F007E0
03C001E0
070000C0
0E0000C0
0C0000C0
18000000
38000000
30000000
30000000
60000000
60000000
60000000
60000000
C0000000
C007FFC0
C007FFC0
C0000600
C0000600
C0000600
C0000E00
E0000C00
60000C00
70000C00
3C001C00
1F00F800
07FFE000
01FF0000
00000000
00000000
00380000
00700000
00600000
00E00000
00C00000
01800000
01000000
ENDCHAR
STARTCHAR 0123
ENCODING 291
SWIDTH 600 0
DWIDTH 30 0
BBX 27 41 5 -9
BITMAP
00006000
00006000
0000C000
0001C000
00038000
00038000
00070000
000F0000
001E0000
00000000
00000000
00FF87E0
03FFE7E0
0700E600
0C003600
18003E00
30001C00
70001C00
60001C00
60001C00
C0001800
C0001800
C0003800
C0003800
C0007800
E000F000
6001F000
7003B000
3C0F3000
1FFC7000
07F06000
00006000
00006000
00006000
0000C000
0000C000
00018000
00030000
000E0000
3FFC0000
3FF00000
ENDCHAR
STARTCHAR 0124
ENCODING 292
SWIDTH 600 0
DWIDTH 30 0
BBX 29 38 3 0
BITMAP
00001800
00003C00
0000FE00
0001CF00
00078780
000E03C0
001C01C0
00000000
00000000
00000000
01FE07F8
03FE07F8
006000C0
00E000C0
00C000C0
00C000C0
00C001C0
00C00180
01C00180
01800180
01800180
01800300
01FFFF00
03FFFF00
03000300
03000700
03000600
03000600
06000600
06000600
06000E00
06000C00
0E000C00
0C000C00
0C000C00
0C001C00
FFC1FF80
FF81FF80
ENDCHAR
STARTCHAR 0125
ENCODING 293
SWIDTH 600 0
DWIDTH 30 0
BBX 26 40 3 0
BITMAP
00001800
00003C00
0000FE00
0001C700
00038380
000E01C0
001C00C0
00000000
00000000
00000000
07F00000
07E00000
00600000
00600000
00600000
00E00000
00C00000
00C00000
00C04000
00C7F800
018FFE00
01B80E00
01F00700
01C00300
03800300
03000300
03000300
03000700
03000700
07000700
06000700
06000600
06000E00
06000E00
0C000E00
0C000C00
0C000C00
0C001C00
FF80FF80
FF80FF80
ENDCHAR
STARTCHAR 0126
ENCODING 294
SWIDTH 600 0
DWIDTH 30 0
BBX 29 28 3 0
BITMAP
01FE07F8
03FE07F8
006000C0
00E000C0
00C000C0
00C000C0
07FFFFF0
07FFFFE0
01C00180
01800180
01800180
01800300
01FFFF00
03FFFF00
03000300
03000700
03000600
03000600
06000600
06000600
06000E00
06000C00
0E000C00
0C000C00
0C000C00
0C001800
FFC1FF80
FF81FF80
ENDCHAR
STARTCHAR 0127
ENCODING 295
SWIDTH 600 0
DWIDTH 30 0
BBX 25 30 3 0
BITMAP
03F00000
07E00000
00600000
00600000
0FFE0000
0FFE0000
00C00000
00C00000
00C00000
00C7F800
018FFE00
01B80E00
01E00700
01C00300
01800300
03000300
03000300
03000700
03000700
06000700
06000700
06000600
06000E00
06000E00
0C000E00
0C000C00
0C000C00
0C001C00
FF80FF80
FF80FF80
ENDCHAR
STARTCHAR 0128
ENCODING 296
SWIDTH 600 0
DWIDTH 30 0
BBX 24 35 6 0
BITMAP
001F03
003FC7
00E1FE
00C078
000000
000000
000000
03FFFF
07FFFF
000600
000600
000600
000600
000E00
000C00
000C00
000C00
000C00
001C00
001800
001800
001800
001800
003800
003000
003000
003000
003000
006000
006000
006000
006000
00E000
FFFFE0
FFFFC0
ENDCHAR
STARTCHAR 0129
ENCODING 297
SWIDTH 600 0
DWIDTH 30 0
BBX 23 27 5 0
BITMAP
003E02
007F8E
00E3FC
0080F0
000000
000000
03FE00
03FE00
000600
000600
000E00
000C00
000C00
000C00
000C00
001800
001800
001800
001800
001800
003000
003000
003000
003000
007000
FFFFF8
FFFFF0
ENDCHAR
STARTCHAR 012A
ENCODING 298
SWIDTH 600 0
DWIDTH 30 0
BBX 24 34 6 0
BITMAP
001FFC
007FFF
003FFC
000000
000000
000000
03FFFF
07FFFF
000600
000600
000600
000600
000E00
000C00
000C00
000C00
000C00
001C00
001800
001800
001800
001800
003800
003000
003000
003000
003000
006000
006000
006000
006000
00E000
FFFFE0
FFFFC0
ENDCHAR
STARTCHAR 012B
ENCODING 299
SWIDTH 600 0
DWIDTH 30 0
BBX 24 29 5 0
BITMAP
001FFC
007FFF
003FFC
000000
000000
000000
000000
000000
03FE00
03FE00
000600
000600
000E00
000C00
000C00
000C00
000C00
001800
001800
001800
001800
001800
003000
003000
003000
003000
007000
FFFFF8
FFFFF0
ENDCHAR
STARTCHAR 012C
ENCODING 300
SWIDTH 600 0
DWIDTH 30 0
BBX 24 36 6 0
BITMAP
006006
006006
00700E
00381C
003FF8
000FE0
000000
000000
03FFFF
07FFFF
000600
000600
000600
000600
000E00
000C00
000C00
000C00
000C00
001C00
001800
001800
001800
001800
003800
003000
003000
003000
003000
006000
006000
006000
006000
00E000
FFFFE0
FFFFC0
ENDCHAR
STARTCHAR 012D
ENCODING 301
SWIDTH 600 0
DWIDTH 30 0
BBX 23 29 5 0
BITMAP
006006
006006
00600C
007018
003FF0
001FE0
000300
000000
03FE00
03FE00
000600
000600
000E00
000C00
000C00
000C00
000C00
001800
001800
001800
001800
001800
003000
003000
003000
003000
007000
FFFFF8
FFFFF0
ENDCHAR
STARTCHAR 012E
ENCODING 302
SWIDTH 600 0
DWIDTH 30 0
BBX 23 36 6 -8
BITMAP
03FFFE
03FFFE
000600
000600
000600
000600
000E00
000C00
000C00
000C00
000C00
001C00
001800
001800
001800
001800
003800
003000
003000
003000
003000
006000
006000
006000
006000
00E000
FFFFC0
FFFFC0
000700
000C00
003800
003000
006000
006000
007F00
003C00
ENDCHAR
STARTCHAR 012F
ENCODING 303
SWIDTH 600 0
DWIDTH 30 0
BBX 20 39 5 -8
BITMAP
000380
000380
000380
000380
000380
000000
000000
000000
000000
000000
03FE00
03FE00
000E00
000C00
000C00
000C00
000C00
001C00
001800
001800
001800
001800
001800
003800
003000
003000
003000
003000
007000
FFFFF0
FFFFF0
0000C0
000380
000600
000600
000C00
000C00
000FE0
0007C0
ENDCHAR
STARTCHAR 0130
ENCODING 304
SWIDTH 600 0
DWIDTH 30 0
BBX 24 37 6 0
BITMAP
000380
0007C0
0007C0
0007C0
000380
000000
000000
000000
000000
03FFFF
07FFFF
000600
000600
000600
000600
000E00
000C00
000C00
000C00
000C00
001C00
001800
001800
001800
001800
003800
003000
003000
003000
003000
006000
006000
006000
006000
00E000
FFFFE0
FFFFC0
ENDCHAR
STARTCHAR 0131
ENCODING 305
SWIDTH 600 0
DWIDTH 30 0
BBX 21 21 5 0
BITMAP
03FE00
03FE00
000600
000600
000E00
000C00
000C00
000C00
000C00
001800
001800
001800
001800
001800
003000
003000
003000
003000
007000
FFFFF8
FFFFF0
ENDCHAR
STARTCHAR 0132
ENCODING 306
SWIDTH 600 0
DWIDTH 30 0
BBX 33 29 1 -1
BITMAP
03FF0FFF80
03FE0FFF00
0060003000
0060003000
0060003000
0060003000
00E0007000
00C0006000
00C0006000
00C0006000
00C0006000
01C000E000
018000C000
018000C000
018000C000
018000C000
038C018000
031C018000
0318018000
0318018000
0318038000
0618030000
0630030000
0630070000
0638060000
0E180C0000
7FDC1C0000
FFCFF80000
0007E00000
ENDCHAR
STARTCHAR 0133
ENCODING 307
SWIDTH 600 0
DWIDTH 30 0
BBX 30 40 2 -9
BITMAP
000E001C
000E001C
000E001C
001C001C
001C0038
00000000
00000000
00000000
00000000
00000000
0FF80FFC
0FF80FFC
0018000C
0018000C
00380018
00300018
00300018
00300018
00300038
00600030
00600030
00600030
00600030
00600070
00C00060
00C00060
00C00060
00C00060
01C000C0
FFFF80C0
FFFF80C0
000000C0
000001C0
00000180
00000180
00000300
00000700
00001E00
007FF800
007FE000
ENDCHAR
STARTCHAR 0134
ENCODING 308
SWIDTH 600 0
DWIDTH 30 0
BBX 30 39 5 -1
BITMAP
00000080
000003C0
000007E0
00001E70
00003838
0000701C
0000C00C
00000000
00000000
00000000
0007FFFC
000FFFFC
00000700
00000600
00000600
00000600
00000600
00000C00
00000C00
00000C00
00000C00
00001C00
00001800
00001800
00001800
00001800
30003800
70003000
70003000
60003000
60003000
60006000
C0006000
C000C000
E001C000
78038000
3C0E0000
1FFC0000
07F00000
ENDCHAR
STARTCHAR 0135
ENCODING 309
SWIDTH 600 0
DWIDTH 30 0
BBX 23 41 4 -9
BITMAP
000080
0001C0
0003E0
000E70
001C38
00781C
00E00E
000004
000000
000000
000000
03FFFC
03FFFC
000018
000018
000018
000018
000038
000030
000030
000030
000030
000060
000060
000060
000060
0000E0
0000C0
0000C0
0000C0
0000C0
0001C0
000180
000180
000180
000300
000700
000E00
001C00
FFF800
FFE000
ENDCHAR
STARTCHAR 0136
ENCODING 310
SWIDTH 600 0
DWIDTH 30 0
BBX 31 38 2 -10
BITMAP
03FF81FE
03FF83FE
00300070
007000E0
00600180
00600700
00600E00
00603800
00C07000
00C0E000
00C38000
00C70000
01CF8000
01BBC000
01F0E000
01E07000
01803000
03803800
03001800
03001800
03001C00
03000C00
06000C00
06000C00
06000E00
06000600
7FF007E0
FFE007E0
00000000
00000000
00000000
00070000
000E0000
000C0000
001C0000
00180000
00300000
00200000
ENDCHAR
STARTCHAR 0137
ENCODING 311
SWIDTH 600 0
DWIDTH 30 0
BBX 26 40 3 -10
BITMAP
01F80000
03F00000
00300000
00300000
00300000
00700000
00600000
00600000
00600000
00607FC0
00C07FC0
00C03800
00C07000
00C0C000
00C38000
01870000
018C0000
01B80000
01F80000
03DC0000
038E0000
03070000
03038000
03038000
0601C000
0600E000
06007000
06003800
7E01FF00
FC01FF00
00000000
00000000
00000000
00380000
00700000
00600000
00E00000
00C00000
01800000
01000000
ENDCHAR
STARTCHAR 0138
ENCODING 312
SWIDTH 600 0
DWIDTH 30 0
BBX 26 21 4 0
BITMAP
0FC07FC0
0FC0FF80
00C03800
00C07000
01C1C000
01838000
018E0000
019C0000
01F00000
03E00000
03C00000
03E00000
03780000
031C0000
060E0000
06070000
06038000
0601C000
0E00E000
FC03FE00
FC03FE00
ENDCHAR
STARTCHAR 0139
ENCODING 313
SWIDTH 600 0
DWIDTH 30 0
BBX 26 38 3 0
BITMAP
00003000
00007000
0001C000
00038000
00070000
001C0000
00180000
00000000
00000000
00000000
03FFF000
03FFF000
000C0000
001C0000
00180000
00180000
00180000
00180000
00380000
00300000
00300000
00300000
00300000
00600000
00600000
00600000
00600000
006000C0
00C000C0
00C000C0
00C000C0
00C00180
01C00180
01800180
01800180
01800380
7FFFFF00
FFFFFF00
ENDCHAR
STARTCHAR 013A
ENCODING 314
SWIDTH 600 0
DWIDTH 30 0
BBX 22 40 5 0
BITMAP
00000C
00001C
000070
0000E0
0001C0
000700
000600
000000
000000
000000
00FF80
00FF80
000180
000180
000380
000300
000300
000300
000300
000600
000600
000600
000600
000E00
000C00
000C00
000C00
000C00
001C00
001800
001800
001800
001800
003000
003000
003000
003000
007000
FFFFF8
FFFFF0
ENDCHAR
STARTCHAR 013B
ENCODING 315
SWIDTH 600 0
DWIDTH 30 0
BBX 26 38 3 -10
BITMAP
03FFF000
03FFF000
000C0000
001C0000
00180000
00180000
00180000
00180000
00380000
00300000
00300000
00300000
00300000
00600000
00600000
00600000
00600000
006000C0
00C000C0
00C000C0
00C000C0
00C00180
01C00180
01800180
01800180
01800380
7FFFFF00
FFFFFF00
00000000
00000000
00000000
000E0000
001C0000
00180000
00380000
00300000
00600000
00400000
ENDCHAR
STARTCHAR 013C
ENCODING 316
SWIDTH 600 0
DWIDTH 30 0
BBX 21 40 5 -10
BITMAP
00FF80
00FF80
000180
000180
000380
000300
000300
000300
000300
000600
000600
000600
000600
000E00
000C00
000C00
000C00
000C00
001C00
001800
001800
001800
001800
003000
003000
003000
003000
007000
FFFFF8
FFFFF0
000000
000000
000000
007000
00E000
00C000
01C000
018000
030000
020000
ENDCHAR
STARTCHAR 013D
ENCODING 317
SWIDTH 600 0
DWIDTH 30 0
BBX 30 31 3 0
BITMAP
0000003C
00000078
00000070
03FFF0E0
03FFF0E0
000C01C0
001C0180
00180300
00180300
00180000
00180000
00380000
00300000
00300000
00300000
00300000
00600000
00600000
00600000
00600000
006000C0
00C000C0
00C000C0
00C000C0
00C00180
01C00180
01800180
01800180
01800380
7FFFFF00
FFFFFF00
ENDCHAR
STARTCHAR 013E
ENCODING 318
SWIDTH 600 0
DWIDTH 30 0
BBX 28 31 4 0
BITMAP
000000F0
00FF81E0
00FF81C0
00018380
00018380
00030700
00030600
00030C00
00030C00
00070000
00060000
00060000
00060000
00060000
000E0000
000C0000
000C0000
000C0000
000C0000
00180000
00180000
00180000
00180000
00180000
00300000
00300000
00300000
00300000
00700000
FFFFF800
FFFFF000
ENDCHAR
STARTCHAR 013F
ENCODING 319
SWIDTH 600 0
DWIDTH 30 0
BBX 26 28 3 0
BITMAP
03FFF000
03FFF000
000C0000
001C0000
00180000
00180000
00180000
00180000
00380E00
00301F00
00301F00
00301F00
00300E00
00600000
00600000
00600000
00600000
006000C0
00C000C0
00C000C0
00C000C0
00C00180
01C00180
01800180
01800180
01800380
7FFFFF00
FFFFFF00
ENDCHAR
STARTCHAR 0140
ENCODING 320
SWIDTH 600 0
DWIDTH 30 0
BBX 26 30 2 0
BITMAP
007FC000
007FC000
0001C000
00018000
00018000
00018000
00018000
00030000
00030000
00030000
00030380
000707C0
000607C0
000607C0
00060380
00060000
000E0000
000C0000
000C0000
000C0000
000C0000
00180000
00180000
00180000
00180000
00180000
00300000
00300000
7FFFF800
FFFFF800
ENDCHAR
STARTCHAR 0141
ENCODING 321
SWIDTH 600 0
DWIDTH 30 0
BBX 26 28 3 0
BITMAP
03FFF000
03FFF000
000C0000
001C0000
00180000
00180000
00180000
00180000
00380800
00307800
0030F000
0033C000
003F0000
007C0000
01F00000
07E00000
1E600000
38E000C0
70C000C0
00C000C0
00C000C0
00C00180
01C00180
01800180
01800180
01800180
7FFFFF00
FFFFFF00
ENDCHAR
STARTCHAR 0142
ENCODING 322
SWIDTH 600 0
DWIDTH 30 0
BBX 21 30 5 0
BITMAP
00FF80
00FF80
000180
000380
000300
000300
000300
000300
000700
000600
000618
000678
0007F0
000FC0
001F00
007C00
01EC00
078C00
061800
001800
001800
001800
003800
003000
003000
003000
003000
007000
FFFFF8
FFFFF0
ENDCHAR
STARTCHAR 0143
ENCODING 323
SWIDTH 600 0
DWIDTH 30 0
BBX 32 39 2 0
BITMAP
00000180
00000380
00000E00
00001C00
00003800
0000E000
0000C000
00000000
00000000
00000000
00000000
07F003FF
07F003FF
00780030
00D80030
00DC0030
00CC0030
00CC0030
00CE0060
01860060
01870060
01830060
01830060
030380C0
030180C0
030180C0
0300C0C0
0300C1C0
0600E180
06006180
06006180
06007180
06003300
0C003B00
0C001B00
0C001B00
0C001F00
FFC00E00
FFC00E00
ENDCHAR
STARTCHAR 0144
ENCODING 324
SWIDTH 600 0
DWIDTH 30 0
BBX 24 32 3 0
BITMAP
000003
000007
00001C
000038
000070
0001C0
000180
000000
000000
000000
000000
07C7FC
0F8FFE
01B806
01F007
01C003
018003
030003
030003
030007
030006
070006
060006
060006
06000E
06000C
0E000C
0C000C
0C000C
0C0018
FF80FF
FF80FF
ENDCHAR
STARTCHAR 0145
ENCODING 325
SWIDTH 600 0
DWIDTH 30 0
BBX 32 38 2 -10
BITMAP
07F003FF
07F003FF
00780030
00D80030
00DC0030
00CC0030
00CC0030
00CE0060
01860060
01870060
01830060
01830060
030380C0
030180C0
030180C0
0300C0C0
0300C1C0
0600E180
06006180
06006180
06007180
06003300
0C003B00
0C001B00
0C001B00
0C001F00
FFC00E00
FFC00E00
00000000
00000000
00000000
00070000
000E0000
000C0000
001C0000
00180000
00300000
00200000
ENDCHAR
STARTCHAR 0146
ENCODING 326
SWIDTH 600 0
DWIDTH 30 0
BBX 24 31 3 -9
BITMAP
07C7FC
0F8FFE
01B806
01F007
01C003
018003
030003
030003
030007
030006
070006
060006
060006
06000E
06000C
0E000C
0C000C
0C000C
0C0018
FF80FF
FF80FF
000000
000000
000000
000E00
001C00
001800
003800
003000
006000
004000
ENDCHAR
STARTCHAR 0147
ENCODING 327
SWIDTH 600 0
DWIDTH 30 0
BBX 32 38 2 0
BITMAP
00070070
000780E0
0003C380
0001E700
0000FC00
00007800
00003000
00000000
00000000
00000000
07F003FF
07F003FF
00780030
00D80030
00DC0030
00CC0030
00CC0030
00CE0060
01860060
01870060
01830060
01830060
030380C0
030180C0
030180C0
0300C0C0
0300C1C0
0600E180
06006180
06006180
06007180
06003300
0C003B00
0C001B00
0C001B00
0C001F00
FFC00E00
FFC00E00
ENDCHAR
STARTCHAR 0148
ENCODING 328
SWIDTH 600 0
DWIDTH 30 0
BBX 27 31 3 0
BITMAP
000E00E0
000F01C0
00078700
0003CE00
0001F800
0000F000
00006000
00000000
00000000
00000000
07C7FC00
0F8FFE00
01B80600
01F00700
01C00300
01800300
03000300
03000300
03000700
03000600
07000600
06000600
06000600
06000E00
06000C00
0E000C00
0C000C00
0C000C00
0C001800
FF80FF00
FF80FF00
ENDCHAR
STARTCHAR 0149
ENCODING 329
SWIDTH 600 0
DWIDTH 30 0
BBX 24 34 3 0
BITMAP
01E000
03C000
038000
070000
070000
0E0000
0C0000
180000
180000
000000
000000
000000
000000
07C7FC
0F8FFE
01B806
01F007
01C003
018003
030003
030003
030007
030006
070006
060006
060006
06000E
06000C
0E000C
0C000C
0C000C
0C0018
FF80FF
FF80FF
ENDCHAR
STARTCHAR 014A
ENCODING 330
SWIDTH 600 0
DWIDTH 30 0
BBX 27 28 3 1
BITMAP
03E1FF00
03E7FF80
006E01C0
00F800C0
00F000E0
00E00060
00C00060
00C00060
01C00060
01800060
01800060
01800060
01800060
030000C0
030000C0
030000C0
030000C0
03000180
06000180
06000180
06000300
06000300
0E000600
0C000600
0C000C00
0C001C00
FF8FF800
FF8FE000
ENDCHAR
STARTCHAR 014B
ENCODING 331
SWIDTH 600 0
DWIDTH 30 0
BBX 24 27 3 -5
BITMAP
07C7FC
0F8FFE
01B806
01F007
01C003
018003
030003
030003
030003
030006
070006
060006
060006
060006
06000C
0E000C
0C000C
0C000C
0C001C
FF8018
FF8018
000018
000030
000070
0010E0
003FC0
001F80
ENDCHAR
STARTCHAR 014C
ENCODING 332
SWIDTH 600 0
DWIDTH 30 0
BBX 26 34 5 -1
BITMAP
0007FF00
001FFFC0
000FFF00
00000000
00000000
001FF800
007FFC00
00F00E00
01C00700
03000380
06000180
0C000180
180001C0
180000C0
300000C0
300000C0
600000C0
600000C0
600000C0
C00000C0
C0000180
C0000180
C0000180
C0000300
C0000300
C0000600
E0000E00
60001C00
70003800
38007000
3C00E000
1E07C000
0FFF0000
01F80000
ENDCHAR
STARTCHAR 014D
ENCODING 333
SWIDTH 600 0
DWIDTH 30 0
BBX 23 29 6 -1
BITMAP
003FF8
00FFFE
007FF8
000000
000000
000000
000000
007FC0
01FFF0
038078
0E001C
1C000C
18000E
300006
600006
600006
600006
C00006
C00006
C0000C
C0000C
C00018
E00038
600030
7000E0
3801C0
1E0780
0FFE00
03F800
ENDCHAR
STARTCHAR 014E
ENCODING 334
SWIDTH 600 0
DWIDTH 30 0
BBX 26 37 5 -1
BITMAP
00300300
00300300
00380700
001C0E00
001FFC00
0007F000
00000000
00000000
001FF800
007FFC00
00F00E00
01C00700
03000380
06000180
0C000180
180001C0
180000C0
300000C0
300000C0
600000C0
600000C0
600000C0
C00000C0
C0000180
C0000180
C0000180
C0000300
C0000300
C0000600
E0000E00
60001C00
70003800
38007000
3C00E000
1E07C000
0FFF0000
01F80000
ENDCHAR
STARTCHAR 014F
ENCODING 335
SWIDTH 600 0
DWIDTH 30 0
BBX 23 30 6 -1
BITMAP
00C00C
00C00C
00C018
00E030
007FE0
003FC0
000600
000000
007FC0
01FFF0
038078
0E001C
1C000C
18000E
300006
600006
600006
600006
C00006
C00006
C0000C
C0000C
C00018
E00038
600030
7000E0
3801C0
1E0780
0FFE00
03F800
ENDCHAR
STARTCHAR 0150
ENCODING 336
SWIDTH 600 0
DWIDTH 30 0
BBX 29 39 5 -1
BITMAP
00001C18
00003870
000070E0
0000E1C0
00038300
00070E00
00060C00
00000000
00000000
00000000
001FF800
007FFC00
00F00E00
01C00700
03000380
06000180
0C000180
180001C0
180000C0
300000C0
300000C0
600000C0
600000C0
600000C0
C00000C0
C0000180
C0000180
C0000180
C0000300
C0000300
C0000600
E0000E00
60001C00
70003800
38007000
3C00E000
1E07C000
0FFF0000
01F80000
ENDCHAR
STARTCHAR 0151
ENCODING 337
SWIDTH 600 0
DWIDTH 30 0
BBX 27 35 6 -1
BITMAP
00007060
0000E1C0
0001C380
00038700
000E0C00
001C3800
00183000
00000000
00000000
00000000
00000000
00000000
00000000
007FC000
01FFF000
03807800
0E001C00
1C000C00
18000E00
30000600
60000600
60000600
60000600
C0000600
C0000600
C0000C00
C0000C00
C0001800
E0003800
60003000
7000E000
3801C000
1E078000
0FFE0000
03F80000
ENDCHAR
STARTCHAR 0152
ENCODING 338
SWIDTH 600 0
DWIDTH 30 0
BBX 31 28 3 0
BITMAP
000FFFFE
007FFFFE
00F06006
03C06006
0700600E
0E00600C
0C00E00C
1800C00C
3000C00C
3000C000
6000C300
60018300
6001FE00
C001FE00
C0018600
C0038400
C0030000
C0030000
C0030000
C0030000
C0070000
60060030
60060030
70060030
38060070
1F0C0060
0FFFFFE0
03FFFFE0
ENDCHAR
STARTCHAR 0153
ENCODING 339
SWIDTH 600 0
DWIDTH 30 0
BBX 28 22 3 0
BITMAP
03F01FC0
07F83FE0
0E1C6060
1C0CC070
180F8030
30078030
30070030
60070030
60060030
6007FFF0
C007FFF0
C0060000
C00C0000
C00C0000
C01E0000
C01E0000
C0360000
E03600C0
606701C0
71C38780
3F81FE00
1F00F800
ENDCHAR
STARTCHAR 0154
ENCODING 340
SWIDTH 600 0
DWIDTH 30 0
BBX 27 38 2 0
BITMAP
00000600
00000E00
00003800
00007000
0000E000
00038000
00030000
00000000
00000000
00000000
03FFFE00
03FFFF80
003003C0
007001C0
006000E0
00600060
00600060
00600060
00C00060
00C000C0
00C00180
00C00700
01C01E00
01FFF800
01FFC000
0180F000
01803000
03803800
03001C00
03000C00
03000E00
03000600
06000600
06000700
06000300
06000380
7FF001E0
FFE001E0
ENDCHAR
STARTCHAR 0155
ENCODING 341
SWIDTH 600 0
DWIDTH 30 0
BBX 27 32 4 0
BITMAP
00000600
00000E00
00003800
00007000
0000E000
00038000
00030000
00000000
00000000
00000000
00000000
03F81FC0
03F87FE0
0031E0E0
00338000
00370000
003C0000
00780000
00700000
00600000
00600000
00600000
00C00000
00C00000
00C00000
00C00000
01C00000
01800000
01800000
01800000
7FFFE000
FFFFE000
ENDCHAR
STARTCHAR 0156
ENCODING 342
SWIDTH 600 0
DWIDTH 30 0
BBX 27 38 2 -10
BITMAP
03FFFE00
03FFFF80
003003C0
007001C0
006000E0
00600060
00600060
00600060
00C00060
00C000C0
00C00180
00C00700
01C01E00
01FFF800
01FFC000
0180F000
01803000
03803800
03001C00
03000C00
03000E00
03000600
06000600
06000700
06000300
06000380
7FF001E0
FFE001E0
00000000
00000000
00000000
000E0000
001C0000
00180000
00380000
00300000
00600000
00400000
ENDCHAR
STARTCHAR 0157
ENCODING 343
SWIDTH 600 0
DWIDTH 30 0
BBX 27 31 4 -9
BITMAP
03F81FC0
03F87FE0
0031E0E0
00338000
00370000
003C0000
00780000
00700000
00600000
00600000
00600000
00C00000
00C00000
00C00000
00C00000
01C00000
01800000
01800000
01800000
7FFFE000
FFFFE000
00000000
00000000
00000000
00380000
00700000
00600000
00E00000
00C00000
01800000
01000000
ENDCHAR
STARTCHAR 0158
ENCODING 344
SWIDTH 600 0
DWIDTH 30 0
BBX 28 38 2 0
BITMAP
00070070
000780E0
0003C380
0001E700
0000FC00
00007800
00003000
00000000
00000000
00000000
03FFFE00
03FFFF80
003003C0
007001C0
006000E0
00600060
00600060
00600060
00C00060
00C000C0
00C00180
00C00700
01C01E00
01FFF800
01FFC000
0180F000
01803000
03803800
03001C00
03000C00
03000E00
03000600
06000600
06000700
06000300
06000380
7FF001E0
FFE001E0
ENDCHAR
STARTCHAR 0159
ENCODING 345
SWIDTH 600 0
DWIDTH 30 0
BBX 27 32 4 0
BITMAP
001C01C0
001E0380
000F0E00
00079C00
0003F000
0001E000
0000C000
00000000
00000000
00000000
00000000
03F81FC0
03F87FE0
0031E0E0
00338000
00370000
003C0000
00780000
00700000
00600000
00600000
00600000
00C00000
00C00000
00C00000
00C00000
01C00000
01800000
01800000
01800000
7FFFE000
FFFFE000
ENDCHAR
STARTCHAR 015A
ENCODING 346
SWIDTH 600 0
DWIDTH 30 0
BBX 25 40 5 -1
BITMAP
00000C00
00001C00
00007000
0000E000
0001C000
00070000
00060000
00000000
00000000
00000000
00000000
001FF180
007FFD80
00E00F80
01C00780
03800380
03000300
06000300
06000300
06000000
06000000
07000000
03800000
01F80000
007F8000
0003F000
00007800
00001C00
00000C00
00000C00
00000C00
60000C00
60000C00
60001800
60003800
F0007000
D800E000
DE07C000
CFFF0000
03F80000
ENDCHAR
STARTCHAR 015B
ENCODING 347
SWIDTH 600 0
DWIDTH 30 0
BBX 23 33 5 -1
BITMAP
000030
000070
0001C0
000380
000700
001C00
001800
000000
000000
000000
000000
007FE6
00FFFE
01C03E
03000C
06000C
06000C
060000
070000
03E000
01FF80
003FE0
0000F0
000038
000018
200018
600018
600038
600030
F000E0
FE03C0
CFFF80
03FC00
ENDCHAR
STARTCHAR 015C
ENCODING 348
SWIDTH 600 0
DWIDTH 30 0
BBX 25 39 5 -1
BITMAP
00004000
0000E000
0003F000
00073800
001C1C00
00380E00
00700700
00000000
00000000
00000000
001FF180
007FFD80
00E00F80
01C00780
03800380
03000300
06000300
06000300
06000000
06000000
07000000
03800000
01F80000
007F8000
0003F000
00007800
00001C00
00000C00
00000C00
00000C00
60000C00
60000C00
60001800
60003800
F0007000
D800E000
DE07C000
CFFF0000
03F80000
ENDCHAR
STARTCHAR 015D
ENCODING 349
SWIDTH 600 0
DWIDTH 30 0
BBX 23 32 5 -1
BITMAP
000080
0003C0
0007E0
000EF0
003878
00703C
00E01C
008000
000000
000000
007FE6
00FFFE
01C03E
03000C
06000C
06000C
060000
070000
03E000
01FF80
003FE0
0000F0
000038
000018
200018
600018
600038
600030
F000E0
FE03C0
CFFF80
03FC00
ENDCHAR
STARTCHAR 015E
ENCODING 350
SWIDTH 600 0
DWIDTH 30 0
BBX 25 37 5 -8
BITMAP
001FF180
007FFD80
00F00F80
01C00780
03800380
03000300
06000300
06000300
06000000
06000000
07000000
03C00000
01FC0000
007FC000
0003F000
00007800
00001C00
00000C00
00000C00
00000C00
60000C00
60000C00
60001800
60003800
F0007000
D800E000
DE03C000
CFFF0000
03FC0000
00C00000
00C00000
00F00000
00380000
00180000
00380000
07F00000
03E00000
ENDCHAR
STARTCHAR 015F
ENCODING 351
SWIDTH 600 0
DWIDTH 30 0
BBX 23 30 5 -8
BITMAP
007FE6
00FFFE
01C03E
03000C
06000C
06000C
060000
070000
03E000
01FF80
003FE0
0000F0
000038
000018
200018
600018
600038
600030
F000F0
FE03C0
CFFF80
03FC00
004000
00E000
00F800
001800
001800
063800
07F000
03E000
ENDCHAR
STARTCHAR 0160
ENCODING 352
SWIDTH 600 0
DWIDTH 30 0
BBX 25 39 5 -1
BITMAP
00380380
003C0700
001E1C00
000F3800
0007E000
0003C000
00018000
00000000
00000000
00000000
001FF180
007FFD80
00E00F80
01C00780
03800380
03000300
06000300
06000300
06000000
06000000
07000000
03800000
01F80000
007F8000
0003F000
00007800
00001C00
00000C00
00000C00
00000C00
60000C00
60000C00
60001800
60003800
F0007000
D800E000
DE07C000
CFFF0000
03F80000
ENDCHAR
STARTCHAR 0161
ENCODING 353
SWIDTH 600 0
DWIDTH 30 0
BBX 25 33 5 -1
BITMAP
00380380
003C0700
001E1C00
000F3800
0007E000
0003C000
00018000
00000000
00000000
00000000
00000000
007FE600
00FFFE00
01C03E00
03000C00
06000C00
06000C00
06000000
07000000
03E00000
01FF8000
003FE000
0000F000
00003800
00001800
20001800
60001800
60003800
60003000
F000E000
FE03C000
CFFF8000
03FC0000
ENDCHAR
STARTCHAR 0162
ENCODING 354
SWIDTH 600 0
DWIDTH 30 0
BBX 24 37 8 -9
BITMAP
7FFFFF
7FFFFF
600C03
E01803
C01806
C01806
C01806
003000
003000
003000
003000
003000
006000
006000
006000
006000
004000
00C000
00C000
00C000
00C000
018000
018000
018000
018000
018000
FFFC00
FFFC00
030000
030000
038000
07C000
00C000
00C000
31C000
3F8000
1F0000
ENDCHAR
STARTCHAR 0163
ENCODING 355
SWIDTH 600 0
DWIDTH 30 0
BBX 18 38 7 -10
BITMAP
030000
030000
070000
060000
060000
060000
060000
FFFFC0
FFFFC0
0C0000
0C0000
1C0000
180000
180000
180000
180000
380000
300000
300000
300000
300000
700000
600000
600000
600000
7000C0
380FC0
1FFF00
0FF000
060000
060000
078000
07C000
00C000
00C000
318000
3F8000
0E0000
ENDCHAR
STARTCHAR 0164
ENCODING 356
SWIDTH 600 0
DWIDTH 30 0
BBX 24 38 8 0
BITMAP
01C01C
01E038
00F0E0
0079C0
003F00
001E00
000C00
000000
000000
000000
7FFFFF
7FFFFF
601C03
E01803
C01806
C01806
C01806
003000
003000
003000
003000
007000
006000
006000
006000
006000
00E000
00C000
00C000
00C000
00C000
01C000
018000
018000
018000
018000
FFFE00
FFFE00
ENDCHAR
STARTCHAR 0165
ENCODING 357
SWIDTH 600 0
DWIDTH 30 0
BBX 28 32 7 -1
BITMAP
000000F0
000001E0
000001C0
03000380
03000380
07000700
06000600
06000C00
06000C00
06000000
FFFFC000
FFFFC000
0C000000
0C000000
1C000000
18000000
18000000
18000000
18000000
38000000
30000000
30000000
30000000
30000000
70000000
60000000
60000000
60000000
7000C000
380FC000
1FFF0000
0FF00000
ENDCHAR
STARTCHAR 0166
ENCODING 358
SWIDTH 600 0
DWIDTH 30 0
BBX 24 28 8 0
BITMAP
7FFFFF
7FFFFF
601C03
E01803
C01806
C01806
C01806
003000
003000
003000
003000
1FFFC0
1FFF80
006000
006000
006000
00E000
00C000
00C000
00C000
00C000
018000
018000
018000
018000
018000
FFFE00
FFFE00
ENDCHAR
STARTCHAR 0167
ENCODING 359
SWIDTH 600 0
DWIDTH 30 0
BBX 20 29 5 -1
BITMAP
00C000
00C000
01C000
018000
018000
018000
018000
3FFFF0
3FFFF0
030000
030000
070000
060000
FFFFC0
FFFFC0
060000
0E0000
0C0000
0C0000
0C0000
0C0000
1C0000
180000
180000
180000
1C0030
0E03F0
07FFC0
03FC00
ENDCHAR
STARTCHAR 0168
ENCODING 360
SWIDTH 600 0
DWIDTH 30 0
BBX 27 36 7 -1
BITMAP
003C0600
007F0E00
01E7FC00
0181F000
00000000
00000000
00000000
7FE07FE0
7FE07FE0
0C000600
1C000600
18000600
18000600
18000E00
18000C00
38000C00
30000C00
30000C00
30001C00
30001800
60001800
60001800
60001800
60003800
E0003000
C0003000
C0003000
C0007000
C0006000
C000E000
E000C000
60018000
70070000
3C1E0000
1FFC0000
07E00000
ENDCHAR
STARTCHAR 0169
ENCODING 361
SWIDTH 600 0
DWIDTH 30 0
BBX 22 30 6 -1
BITMAP
001000
00FE1C
01FFF8
0303F0
000000
000000
000000
000000
FC01FC
FC01FC
1C000C
18000C
18001C
180018
180018
300018
300018
300030
300030
300030
600030
600070
600060
600060
6000E0
6003E0
7007E0
383CF8
3FF8F8
0FC000
ENDCHAR
STARTCHAR 016A
ENCODING 362
SWIDTH 600 0
DWIDTH 30 0
BBX 27 35 7 -1
BITMAP
003FF800
00FFFE00
007FF800
00000000
00000000
00000000
7FE07FE0
7FE07FE0
0C000600
1C000600
18000600
18000600
18000E00
18000C00
38000C00
30000C00
30000C00
30001C00
30001800
60001800
60001800
60001800
60003800
E0003000
C0003000
C0003000
C0007000
C0006000
C000E000
E000C000
60018000
70070000
3C1E0000
1FFC0000
07E00000
ENDCHAR
STARTCHAR 016B
ENCODING 363
SWIDTH 600 0
DWIDTH 30 0
BBX 22 29 6 -1
BITMAP
007FF0
01FFFC
00FFF0
000000
000000
000000
000000
FC01FC
FC01FC
1C000C
18000C
18001C
180018
180018
300018
300018
300030
300030
300030
600030
600070
600060
600060
6000E0
6003E0
7007E0
383CF8
3FF8F8
0FC000
ENDCHAR
STARTCHAR 016C
ENCODING 364
SWIDTH 600 0
DWIDTH 30 0
BBX 27 37 7 -1
BITMAP
00C00C00
00C00C00
00E01C00
00703800
007FF000
001FC000
00000000
00000000
7FE07FE0
7FE07FE0
0C000600
1C000600
18000600
18000600
18000E00
18000C00
38000C00
30000C00
30000C00
30001C00
30001800
60001800
60001800
60001800
60003800
E0003000
C0003000
C0003000
C0007000
C0006000
C000E000
E000C000
60018000
70070000
3C1E0000
1FFC0000
07E00000
ENDCHAR
STARTCHAR 016D
ENCODING 365
SWIDTH 600 0
DWIDTH 30 0
BBX 22 30 6 -1
BITMAP
008008
018018
018018
00C070
00FBE0
007FC0
000C00
000000
FC01FC
FC01FC
1C000C
18000C
18001C
180018
180018
300018
300018
300030
300030
300030
600030
600070
600060
600060
6000E0
6003E0
7007E0
383CF8
3FF8F8
0FC000
ENDCHAR
STARTCHAR 016E
ENCODING 366
SWIDTH 600 0
DWIDTH 30 0
BBX 27 40 7 -1
BITMAP
00018000
000FE000
001C6000
00303000
00303000
00302000
00306000
001FC000
000F0000
00000000
00000000
7FE07FE0
7FE07FE0
0C000600
1C000600
18000600
18000600
18000E00
18000C00
38000C00
30000C00
30000C00
30001C00
30001800
60001800
60001800
60001800
60003800
E0003000
C0003000
C0003000
C0007000
C0006000
C000E000
E000C000
60018000
70070000
3C1E0000
1FFC0000
07E00000
ENDCHAR
STARTCHAR 016F
ENCODING 367
SWIDTH 600 0
DWIDTH 30 0
BBX 22 34 6 -1
BITMAP
000180
000FE0
001C60
003030
003030
003020
003060
001FC0
000F00
000000
000000
000000
FC01FC
FC01FC
1C000C
18000C
18001C
180018
180018
300018
300018
300030
300030
300030
600030
600070
600060
600060
6000E0
6003E0
7007E0
383CF8
3FF8F8
0FC000
ENDCHAR
STARTCHAR 0170
ENCODING 368
SWIDTH 600 0
DWIDTH 30 0
BBX 27 41 7 -1
BITMAP
0001C180
00038700
00070E00
000E1C00
00383000
0070E000
0060C000
00000000
00000000
00000000
00000000
00000000
7FE07FE0
7FE07FE0
0C000600
1C000600
18000600
18000600
18000E00
18000C00
38000C00
30000C00
30000C00
30001C00
30001800
60001800
60001800
60001800
60003800
E0003000
C0003000
C0003000
C0007000
C0006000
C000E000
E000C000
60018000
70070000
3C1E0000
1FFC0000
07E00000
ENDCHAR
STARTCHAR 0171
ENCODING 369
SWIDTH 600 0
DWIDTH 30 0
BBX 23 33 6 -1
BITMAP
000706
000E1C
001C38
003870
00E0C0
01C380
018300
000000
000000
000000
000000
FC01FC
FC01FC
1C000C
18000C
18001C
180018
180018
300018
300018
300030
300030
300030
600030
600070
600060
600060
6000E0
6003E0
7007E0
383CF8
3FF8F8
0FC000
ENDCHAR
STARTCHAR 0172
ENCODING 370
SWIDTH 600 0
DWIDTH 30 0
BBX 27 36 7 -8
BITMAP
7FE07FE0
7FE07FE0
0C000600
1C000600
18000600
18000600
18000E00
18000C00
38000C00
30000C00
30000C00
30001C00
30001800
60001800
60001800
60001800
60003800
E0003000
C0003000
C0003000
C0007000
C0006000
C000E000
E001C000
60038000
70070000
3C1E0000
1FFC0000
07F00000
00600000
01C00000
01800000
03000000
03000000
03F80000
01E00000
ENDCHAR
STARTCHAR 0173
ENCODING 371
SWIDTH 600 0
DWIDTH 30 0
BBX 22 29 6 -8
BITMAP
FC01FC
FC01FC
1C000C
18000C
18001C
180018
180018
300018
300018
300030
300030
300030
600030
600070
600060
600060
6000E0
6003E0
7007E0
383CF8
3FF8F8
0FC060
0001C0
000300
000300
000600
000600
0007F0
0003E0
ENDCHAR
STARTCHAR 0174
ENCODING 372
SWIDTH 600 0
DWIDTH 30 0
BBX 29 38 6 0
BITMAP
00008000
0001C000
0007E000
000E7000
00383800
00701C00
00E00E00
00000000
00000000
00000000
7FE01FF8
7FE03FF0
180000C0
380000C0
300000C0
30000180
300E0180
301E0180
301E0300
303E0300
30360300
30770600
30630600
70E30600
60C30C00
61C30C00
61830C00
63831800
63031800
67031800
66033000
6E033000
6C033000
7C036000
F8036000
F8036000
F003C000
F001C000
ENDCHAR
STARTCHAR 0175
ENCODING 373
SWIDTH 600 0
DWIDTH 30 0
BBX 27 31 6 0
BITMAP
00010000
00078000
000FC000
001DE000
0070F000
00E07800
01C03800
01000000
00000000
00000000
FF001FE0
FF003FE0
30000300
30000700
30000600
301C0600
303C0C00
303C0C00
307C1800
306C1800
30CC3800
30CC3000
318C3000
31866000
33066000
3706C000
3606C000
3E06C000
3C078000
38078000
38070000
ENDCHAR
STARTCHAR 0176
ENCODING 374
SWIDTH 600 0
DWIDTH 30 0
BBX 25 38 8 0
BITMAP
00030000
00078000
001FC000
0039E000
00F0F000
01C07000
03803800
00000000
00000000
00000000
7F807F80
FF007F80
18000C00
1C001800
0C003000
0E007000
0600E000
0701C000
03018000
03830000
01860000
018C0000
01D80000
00F00000
00F00000
00600000
00E00000
00C00000
00C00000
00C00000
00C00000
01C00000
01800000
01800000
01800000
01800000
FFFE0000
FFFE0000
ENDCHAR
STARTCHAR 0177
ENCODING 375
SWIDTH 600 0
DWIDTH 30 0
BBX 31 40 1 -9
BITMAP
00000800
00003C00
00007E00
0000EF00
00038780
000703C0
000E01C0
00080000
00000000
00000000
03FC01FE
03FC01FC
00C00030
00C00060
00E00060
006000C0
00600180
00700180
00300300
00300600
00300C00
00380C00
00181800
00183000
001C3000
000C6000
000CC000
000CC000
000F8000
00070000
00060000
00060000
000C0000
00180000
00180000
00300000
00600000
00C00000
FFFC0000
FFFC0000
ENDCHAR
STARTCHAR 0178
ENCODING 376
SWIDTH 600 0
DWIDTH 30 0
BBX 25 37 8 0
BITMAP
01C03800
03E07C00
03E07C00
03E07C00
01C03800
00000000
00000000
00000000
00000000
7F807F80
FF007F80
18000C00
1C001800
0C003000
0E007000
0600E000
0701C000
03018000
03830000
01860000
018C0000
01D80000
00F00000
00F00000
00600000
00E00000
00C00000
00C00000
00C00000
00C00000
01C00000
01800000
01800000
01800000
01800000
FFFE0000
FFFE0000
ENDCHAR
STARTCHAR 0179
ENCODING 377
SWIDTH 600 0
DWIDTH 30 0
BBX 24 38 5 0
BITMAP
000018
000038
0000E0
0001C0
000380
000E00
000C00
000000
000000
000000
01FFFF
01FFFF
038003
030006
03000C
030018
030038
060070
0600E0
0001C0
000380
000700
000E00
001C00
001800
003000
006000
00C000
01800C
03000C
060018
0E0018
1C0018
380018
700018
600030
FFFFF0
FFFFF0
ENDCHAR
STARTCHAR 017A
ENCODING 378
SWIDTH 600 0
DWIDTH 30 0
BBX 22 31 6 0
BITMAP
000060
0000E0
000380
000700
000E00
003800
003000
000000
000000
000000
07FFFC
07FFFC
0E0038
0C0070
0C00E0
0C01C0
000380
000700
000E00
001C00
003000
006000
00C000
018000
030000
0E0030
1C0060
380060
700060
FFFFE0
FFFFE0
ENDCHAR
STARTCHAR 017B
ENCODING 379
SWIDTH 600 0
DWIDTH 30 0
BBX 24 36 5 0
BITMAP
0001C0
0003E0
0003E0
0003E0
0001C0
000000
000000
000000
01FFFF
01FFFF
038003
030006
03000C
030018
030038
060070
0600E0
0001C0
000380
000700
000E00
001C00
001800
003000
006000
00C000
01800C
03000C
060018
0E0018
1C0018
380018
700018
600030
FFFFF0
FFFFF0
ENDCHAR
STARTCHAR 017C
ENCODING 380
SWIDTH 600 0
DWIDTH 30 0
BBX 22 30 6 0
BITMAP
000700
000F80
000F80
000F80
000700
000000
000000
000000
000000
07FFFC
07FFFC
0E0038
0C0070
0C00E0
0C01C0
000380
000700
000E00
001C00
003000
006000
00C000
018000
030000
0E0030
1C0060
380060
700060
FFFFE0
FFFFE0
ENDCHAR
STARTCHAR 017D
ENCODING 381
SWIDTH 600 0
DWIDTH 30 0
BBX 25 38 5 0
BITMAP
00380380
003C0700
001E1C00
000F3800
0007E000
0003C000
00018000
00000000
00000000
00000000
01FFFF00
01FFFF00
03800300
03000600
03000C00
03001800
03003800
06007000
0600E000
0001C000
00038000
00070000
000E0000
001C0000
00180000
00300000
00600000
00C00000
01800C00
03000C00
06001800
0E001800
1C001800
38001800
70001800
60003000
FFFFF000
FFFFF000
ENDCHAR
STARTCHAR 017E
ENCODING 382
SWIDTH 600 0
DWIDTH 30 0
BBX 23 32 6 0
BITMAP
00E00E
00F01C
007870
003CE0
001F80
000F00
000600
000000
000000
000000
000000
07FFFC
07FFFC
0E0038
0C0070
0C00E0
0C01C0
000380
000700
000E00
001C00
003000
006000
00C000
018000
030000
0E0030
1C0060
380060
700060
FFFFE0
FFFFE0
ENDCHAR
STARTCHAR 017F
ENCODING 383
SWIDTH 600 0
DWIDTH 30 0
BBX 27 30 6 0
BITMAP
0000FFC0
0003FFE0
00070000
000C0000
00180000
00180000
00180000
00300000
00300000
0FF00000
0FF00000
00700000
00600000
00600000
00600000
00600000
00E00000
00C00000
00C00000
00C00000
00C00000
01800000
01800000
01800000
01800000
03800000
03000000
03000000
FFFFC000
FFFFC000
ENDCHAR
STARTCHAR 0180
ENCODING 384
SWIDTH 600 0
DWIDTH 30 0
BBX 28 31 -2 -1
BITMAP
03F00000
03F00000
00300000
00300000
03FFF000
07FFE000
00600000
00600000
00600000
00C1FF00
00C7FF80
00CE01C0
00D800E0
00F00060
01E00070
01C00030
01800030
01800030
03000030
03000030
03000030
03000060
03000060
070000C0
070000C0
07800180
07800700
06C00E00
FC703C00
FC3FF800
000FC000
ENDCHAR
STARTCHAR 0181
ENCODING 385
SWIDTH 600 0
DWIDTH 30 0
BBX 28 28 -1 0
BITMAP
03FFFF00
0FFFFFC0
1C3001E0
38700070
30600030
30600030
38600030
1E600030
0EC00060
00C000E0
00C001C0
00C00700
01FFFE00
01FFFF00
01800780
018001C0
018000E0
03800060
03000060
03000060
03000060
030000C0
060000C0
06000180
06000380
06000F00
7FFFFC00
FFFFF000
ENDCHAR
STARTCHAR 0182
ENCODING 386
SWIDTH 600 0
DWIDTH 30 0
BBX 29 28 2 0
BITMAP
03FFFFF8
07FFFFF8
00600018
00600018
00600038
00E00030
00C00030
00C00030
00C00000
00C00000
01800000
01800000
01FFF800
01FFFE00
03800F00
03000380
030001C0
030000C0
030000C0
070000C0
060000C0
06000180
06000180
06000300
0C000700
0C001E00
FFFFF800
FFFFE000
ENDCHAR
STARTCHAR 0183
ENCODING 387
SWIDTH 600 0
DWIDTH 30 0
BBX 30 31 -2 -1
BITMAP
03FFFFFC
03FFFFFC
00300000
00300000
00700000
00600000
00600000
00600000
00600000
00C1FF00
00C7FF80
00CE01C0
00D800E0
01F00060
01E00070
01C00030
01800030
01800030
03000030
03000030
03000030
03000060
03000060
070000C0
070000C0
07800180
07800700
06C00E00
FC703C00
FC3FF800
000FC000
ENDCHAR
STARTCHAR 0184
ENCODING 388
SWIDTH 600 0
DWIDTH 30 0
BBX 26 29 0 0
BITMAP
00318000
00678000
007E0000
007C0000
00F00000
03E00000
07C00000
0EC00000
00C00000
00C00000
01C00000
01800000
01800000
01FFF800
01FFFE00
03000F00
03000380
030001C0
030000C0
070000C0
060000C0
060000C0
060001C0
06000180
0E000300
0C000700
0C001E00
FFFFF800
FFFFE000
ENDCHAR
STARTCHAR 0185
ENCODING 389
SWIDTH 600 0
DWIDTH 30 0
BBX 28 30 -2 0
BITMAP
0031C000
00338000
003F0000
003C0000
00700000
01E00000
03E00000
07600000
04C1FF00
00C7FF80
00CC01C0
00D800E0
00F00060
01E00070
01C00030
01800030
01800030
01000030
03000030
03000030
03000060
03000060
070000C0
070000C0
07800180
07800700
06C00E00
FC703C00
FC3FF800
000FC000
ENDCHAR
STARTCHAR 0186
ENCODING 390
SWIDTH 600 0
DWIDTH 30 0
BBX 26 29 6 0
BITMAP
061FF800
067FFC00
0FE00E00
0F800700
0E000380
0C000180
1C0001C0
180000C0
000000C0
000000C0
000000C0
000000C0
000000C0
000001C0
00000180
00000180
00000180
00000380
00000300
00000700
00000600
00000C00
C0001C00
C0003800
E0007000
7001E000
3C078000
1FFE0000
03F80000
ENDCHAR
STARTCHAR 0187
ENCODING 391
SWIDTH 600 0
DWIDTH 30 0
BBX 34 33 2 -1
BITMAP
0000000F00
0000003F80
00000071C0
00000060C0
001FF8E0C0
007FFCC000
01E00EC000
038007C000
070003C000
0E00018000
1C00018000
1800018000
3000000000
3000000000
7000000000
6000000000
6000000000
6000000000
6000000000
C000000000
C000000000
C000000000
C000000000
C000000000
C000000000
E000000000
60000E0000
70001C0000
3800380000
1C00700000
0F03E00000
07FF800000
01FC000000
ENDCHAR
STARTCHAR 0188
ENCODING 392
SWIDTH 600 0
DWIDTH 30 0
BBX 31 25 4 -1
BITMAP
00000078
000001FC
0000038E
007FE706
01FFF606
07803E00
0E001E00
1C000E00
18000C00
30000C00
30000000
60000000
60000000
C0000000
C0000000
C0000000
C0000000
C0000000
C0000000
E0001800
60003800
7800F000
3C07C000
1FFF0000
03F80000
ENDCHAR
STARTCHAR 0189
ENCODING 393
SWIDTH 600 0
DWIDTH 30 0
BBX 28 28 2 0
BITMAP
03FFFC00
03FFFF00
00600780
00E001C0
00C000E0
00C00060
00C00070
00C00030
01800030
01800030
01800030
01800030
7FFFC030
7FFFC070
03000060
03000060
03000060
070000E0
060000C0
060001C0
06000180
06000300
0C000700
0C000E00
0C003C00
0C00F000
7FFFE000
FFFF0000
ENDCHAR
STARTCHAR 018A
ENCODING 394
SWIDTH 600 0
DWIDTH 30 0
BBX 28 28 -1 0
BITMAP
0FFFFC00
3FFFFF00
70600780
E0E001C0
C0C000E0
C0C00060
E0C00070
70C00030
31800030
01800030
01800030
01800030
03800060
03000060
03000060
03000060
030000C0
070000C0
060000C0
06000180
06000380
06000300
0C000600
0C001C00
0C003800
0C00F000
7FFFE000
7FFF0000
ENDCHAR
STARTCHAR 018B
ENCODING 395
SWIDTH 600 0
DWIDTH 30 0
BBX 29 28 1 0
BITMAP
03FFFFF8
07FFFFF8
06000300
06000300
06000300
0C000300
0C000700
0C000600
00000600
00000600
00000600
00000E00
00FFFC00
07FFFC00
0F000C00
1C000C00
30001800
60001800
60001800
C0001800
C0003800
C0003000
C0003000
E0003000
60003000
78007000
3FFFFE00
0FFFFE00
ENDCHAR
STARTCHAR 018C
ENCODING 396
SWIDTH 600 0
DWIDTH 30 0
BBX 29 31 0 -1
BITMAP
03FFFFF8
03FFFFF8
000000C0
000001C0
00000180
00000180
00000180
00000180
00000380
00FF8300
03FFE300
07807300
0E003B00
1C001E00
38001E00
30000E00
60000E00
60000E00
60000C00
C0000C00
C0000C00
C0001C00
C0001C00
C0003800
E0003800
60007800
7000D800
38039800
3E0F3F00
0FFC3F00
03F00000
ENDCHAR
STARTCHAR 018D
ENCODING 397
SWIDTH 600 0
DWIDTH 30 0
BBX 26 33 1 -10
BITMAP
0003F800
001FFC00
003C0F00
00E00700
01C00380
03800180
030001C0
060000C0
0E0000C0
0C0000C0
0C0000C0
180000C0
180000C0
18000180
18000180
18000380
18000300
1C000600
0E000E00
0E001C00
07807000
03FFE000
00FF8000
000FE000
00003000
00001800
00001800
60001800
60003000
FE007000
C7FFE000
C0FF8000
C0000000
ENDCHAR
STARTCHAR 018E
ENCODING 398
SWIDTH 600 0
DWIDTH 30 0
BBX 29 28 2 0
BITMAP
03FFFFF8
03FFFFF8
03000380
03000300
03000300
07000300
06000300
06000700
00000600
000C0600
001C0600
00180600
001FFC00
001FFC00
00180C00
00300C00
00301C00
00001800
00001800
60001800
60001800
60003800
40003000
40003000
C0003000
C0003000
FFFFFE00
FFFFFE00
ENDCHAR
STARTCHAR 018F
ENCODING 399
SWIDTH 600 0
DWIDTH 30 0
BBX 25 29 2 0
BITMAP
003FE000
00FFF800
03C03C00
07000E00
0E000600
1C000700
18000300
00000380
00000180
00000180
00000180
00000180
00000180
00000180
7FFFFF80
7FFFFF80
C0000300
C0000300
C0000300
C0000600
C0000600
C0000C00
E0001800
60003800
70007000
3801E000
1E078000
0FFF0000
03F80000
ENDCHAR
STARTCHAR 0190
ENCODING 400
SWIDTH 600 0
DWIDTH 30 0
BBX 24 29 3 0
BITMAP
003FE3
00FFFB
01C01F
03800F
070007
060006
0E0006
0C0006
0C0000
0C0000
0E0000
070000
07C000
01FF00
07FF00
0F0000
3C0000
300000
600000
600000
C00018
C00018
C00038
E00038
E00070
7001F0
3C07B0
1FFE20
07F000
ENDCHAR
STARTCHAR 0191
ENCODING 401
SWIDTH 600 0
DWIDTH 30 0
BBX 35 33 -3 -5
BITMAP
001FFFFFE0
001FFFFFC0
00030000C0
00030000C0
00030000C0
00030001C0
0003000180
0006000180
0006000000
0006030000
0006030000
000E030000
000FFF0000
000FFE0000
000C060000
000C060000
0018060000
0018000000
0018000000
0018000000
0018000000
0030000000
0030000000
0030000000
0030000000
0070000000
0060000000
0060000000
00C0000000
00C0000000
4380000000
FF00000000
7E00000000
ENDCHAR
STARTCHAR 0192
ENCODING 402
SWIDTH 600 0
DWIDTH 30 0
BBX 28 36 4 -5
BITMAP
00000080
00000FF0
00003FF0
00007000
0000E000
0000C000
00018000
00018000
00018000
00018000
00030000
00030000
00FFFC00
00FFFC00
00070000
00060000
00060000
00060000
00060000
000E0000
000C0000
000C0000
000C0000
000C0000
001C0000
00180000
00180000
00180000
00180000
00300000
00300000
00600000
00E00000
C3C00000
FF000000
7C000000
ENDCHAR
STARTCHAR 0193
ENCODING 403
SWIDTH 600 0
DWIDTH 30 0
BBX 34 33 2 -1
BITMAP
0000000F00
0000003F80
00000071C0
00000060C0
001FF8C0C0
007FFEC000
01E00FC000
038003C000
0700018000
0E00018000
0C00018000
1C00000000
3800000000
3000000000
3000000000
7000000000
6000000000
6000000000
6000000000
6000000000
C007FF8000
C007FF8000
C000060000
C000060000
C0000C0000
C0000C0000
E0000C0000
60000C0000
70000C0000
3800380000
1F01F80000
0FFFC00000
01FE000000
ENDCHAR
STARTCHAR 0194
ENCODING 404
SWIDTH 600 0
DWIDTH 30 0
BBX 24 29 6 -1
BITMAP
FE00FF
FE00FF
300038
180030
180060
0C00C0
0C0180
0E0300
060600
060C00
031C00
033800
01B000
01E000
01C000
01C000
03E000
066000
0E7000
1C3000
183000
383000
303000
303000
306000
306000
38C000
1F8000
0F0000
ENDCHAR
STARTCHAR 0195
ENCODING 405
SWIDTH 600 0
DWIDTH 30 0
BBX 32 31 -2 -1
BITMAP
03F00000
07E00000
00600000
00600000
00600000
00E00000
00C00000
00C00000
00C00000
00DFE07F
01FFE07F
01B07003
01C03007
01C03006
01803006
03003006
03003006
0300300E
0300600C
0700600C
0600600C
0600600C
06006018
0600C018
0E00C018
0C00C018
0C00C030
0C00E070
FF8070E0
FF807FC0
00001F00
ENDCHAR
STARTCHAR 0196
ENCODING 406
SWIDTH 600 0
DWIDTH 30 0
BBX 11 28 11 0
BITMAP
FE00
FE00
0C00
0C00
0C00
0C00
1C00
1800
1800
1800
1800
3800
3000
3000
3000
3000
6000
6000
6000
6000
6000
C000
C000
C000
C000
C0E0
7FC0
7F00
ENDCHAR
STARTCHAR 0197
ENCODING 407
SWIDTH 600 0
DWIDTH 30 0
BBX 24 28 3 0
BITMAP
03FFFF
07FFFF
000600
000600
000600
000600
000E00
000C00
000C00
000C00
000C00
001C00
07FFF0
07FFE0
001800
001800
003800
003000
003000
003000
003000
006000
006000
006000
006000
00E000
FFFFE0
FFFFC0
ENDCHAR
STARTCHAR 0198
ENCODING 408
SWIDTH 600 0
DWIDTH 30 0
BBX 34 28 -1 0
BITMAP
03FF81FF00
03FF81FF80
00300071C0
007000E0C0
00600180C0
00600701C0
00600E0380
0060180F00
00C0700E00
00C0C00000
00C1800000
00C7000000
01CF800000
01BBE00000
01F0E00000
01E0700000
0180380000
0380380000
0300180000
03001C0000
03000C0000
03000C0000
06000C0000
06000E0000
06000E0000
0600060000
7FF007E000
FFE007E000
ENDCHAR
STARTCHAR 0199
ENCODING 409
SWIDTH 600 0
DWIDTH 30 0
BBX 25 31 0 0
BITMAP
00004000
0003FC00
000FFC00
001C0000
00380000
00300000
00600000
00600000
00600000
00E00000
00C07F80
00C0FF80
00C03800
00C07000
0181C000
01838000
018E0000
019C0000
01B80000
03F80000
03DC0000
038E0000
03060000
07070000
06038000
0601C000
0600E000
06006000
0C007000
FC01FF00
FC01FF00
ENDCHAR
STARTCHAR 019A
ENCODING 410
SWIDTH 600 0
DWIDTH 30 0
BBX 20 30 2 0
BITMAP
00FF80
00FF80
000180
000300
000300
000300
000300
000300
000600
000600
000600
000600
000E00
000C00
03FFF0
03FFF0
000C00
001C00
001800
001800
001800
001800
003000
003000
003000
003000
007000
006000
FFFFF0
FFFFF0
ENDCHAR
STARTCHAR 019B
ENCODING 411
SWIDTH 600 0
DWIDTH 30 0
BBX 24 31 0 0
BITMAP
007C00
00FE00
007F1C
000378
0003E0
000380
000F80
003D80
007180
006180
0001C0
0003C0
0003C0
0006E0
000C60
001C60
001860
003070
007030
006030
00C030
018018
018018
030018
060018
0E000C
0C000C
18000C
38000E
FF00FF
FF00FF
ENDCHAR
STARTCHAR 019C
ENCODING 412
SWIDTH 600 0
DWIDTH 30 0
BBX 30 28 2 0
BITMAP
3E0F81FC
3E0F83FC
06018060
0C030060
0C030060
0C0300E0
0C0300C0
0C0300C0
180600C0
180600C0
18060180
18060180
30060180
300C0180
300C0180
300C0300
300C0300
60180300
60180300
60180700
60180600
60180600
C0300600
C0700E00
C0F01C00
E1F87C00
7F9FEF80
7E0FCF80
ENDCHAR
STARTCHAR 019D
ENCODING 413
SWIDTH 600 0
DWIDTH 30 0
BBX 36 33 -3 -5
BITMAP
001FC03FF0
001FC03FF0
0003C00180
0003600380
0003600300
0003600300
0003300300
0006300300
0006300600
0006180600
0006180600
000E180600
000C0C0E00
000C0C0C00
000C0C0C00
000C060C00
0018060C00
0018061C00
0018031800
0018031800
0018031800
0030019800
003001B000
003001B000
003001F000
007000F000
006000F000
006000E000
00C0000000
00C0000000
4380000000
FF00000000
7E00000000
ENDCHAR
STARTCHAR 019E
ENCODING 414
SWIDTH 600 0
DWIDTH 30 0
BBX 24 30 2 -8
BITMAP
0F87F8
0F9FFE
01B806
01E007
01C003
038003
030003
030003
030007
060006
060006
060006
060006
06000E
0C000C
0C000C
0C000C
0C000C
1C0018
FF8018
FF8018
000018
000018
000030
000030
000030
000030
000070
0003FC
0003FC
ENDCHAR
STARTCHAR 019F
ENCODING 415
SWIDTH 600 0
DWIDTH 30 0
BBX 26 29 5 0
BITMAP
001FF800
007FFC00
00E00E00
01C00700
03000380
06000180
0C0001C0
180000C0
180000C0
300000C0
300000C0
600000C0
600000C0
7FFFFFC0
FFFFFFC0
C0000180
C0000180
C0000180
C0000300
C0000300
C0000600
E0000E00
60001C00
70003800
38007000
3C01E000
1E078000
0FFF0000
01F80000
ENDCHAR
STARTCHAR 01A0
ENCODING 416
SWIDTH 600 0
DWIDTH 30 0
BBX 29 37 5 -1
BITMAP
000000E0
000000F0
00000038
00000018
00000018
00000018
00000030
00000070
001FFFE0
007FFF80
00F00E00
01C00700
03000380
06000180
0C000180
180000C0
180000C0
300000C0
300000C0
600000C0
600000C0
600000C0
C00000C0
C0000180
C0000180
C0000180
C0000300
C0000300
C0000600
E0000E00
60001C00
70003800
38007000
3C01E000
1E078000
0FFF0000
01F80000
ENDCHAR
STARTCHAR 01A1
ENCODING 417
SWIDTH 600 0
DWIDTH 30 0
BBX 27 29 5 -1
BITMAP
00000180
000001C0
000000E0
00000060
00000060
000000E0
000001C0
007FFF80
01FFFE00
07807800
0E001C00
1C000C00
18000E00
30000600
70000600
60000600
60000600
C0000600
C0000600
C0000C00
C0000C00
C0001800
E0001800
60003000
7000E000
3801C000
1E078000
0FFE0000
03F80000
ENDCHAR
STARTCHAR 01A2
ENCODING 418
SWIDTH 600 0
DWIDTH 30 0
BBX 31 33 -1 -1
BITMAP
000001F8
000007FC
00001C1E
0000380E
003FF006
00FFF006
01C03806
03801C06
06000C0C
0C000E0C
0C00060C
1800060C
3800061C
30000618
30000618
60000618
60000618
60000638
60000C30
C0000C30
C0000C30
C0001830
C0001870
C0001860
C0003060
C0003060
E0006060
6000C0C0
7001C0C0
300380C0
3C0F07F0
1FFC07F0
07F00000
ENDCHAR
STARTCHAR 01A3
ENCODING 419
SWIDTH 600 0
DWIDTH 30 0
BBX 27 25 1 -1
BITMAP
00000F80
00003FC0
0000F0E0
01FFC060
03FF8060
07038060
0C018060
1801C0E0
3800C0C0
3000C0C0
6000C0C0
6000C0C0
6000C180
C000C180
C0018180
C0018180
C0018180
C0030300
C0030300
E0060300
600E0300
701C0700
38783FE0
1FE03FE0
0F800000
ENDCHAR
STARTCHAR 01A4
ENCODING 420
SWIDTH 600 0
DWIDTH 30 0
BBX 27 28 -1 0
BITMAP
07FFFE00
0FFFFF80
1C3003C0
387001C0
306000E0
30600060
38600060
1C600060
0CC00060
00C000C0
00C001C0
00C00180
01C00700
01801E00
01FFFC00
01FFE000
01800000
03800000
03000000
03000000
03000000
03000000
06000000
06000000
06000000
06000000
7FFE0000
FFFE0000
ENDCHAR
STARTCHAR 01A5
ENCODING 421
SWIDTH 600 0
DWIDTH 30 0
BBX 30 40 -3 -9
BITMAP
00001000
0000FF00
0003F000
00070000
000E0000
000C0000
00180000
00180000
00180000
00300000
0030FFC0
0031FFE0
00370070
007C0038
00780018
0070000C
0060000C
0060000C
00C0000C
00C0000C
00C0000C
00C00018
00C00018
01C00030
01E00070
01E000E0
01B003C0
01BC0F80
030FFE00
0307F000
03000000
03000000
07000000
06000000
06000000
06000000
06000000
0E000000
FFF00000
FFF00000
ENDCHAR
STARTCHAR 01A6
ENCODING 422
SWIDTH 600 0
DWIDTH 30 0
BBX 23 37 1 -9
BITMAP
03FF00
03FE00
006000
006000
006000
00C000
00C000
00FFE0
00FFF8
01803C
01800E
018006
018006
018006
03000C
03001C
0300F8
03FFE0
07FF80
0603C0
0601C0
0600E0
0600E0
0C0060
0C0060
0C0060
FFC060
FFC060
000060
000060
000060
000060
000070
000070
000070
00003C
00003C
ENDCHAR
STARTCHAR 01A7
ENCODING 423
SWIDTH 600 0
DWIDTH 30 0
BBX 23 29 5 0
BITMAP
063FF0
06FFF8
07C01C
07800E
0E0006
0E0006
0C0006
0C0006
00000E
00000C
000038
0000F0
000FE0
01FF00
07E000
1E0000
380000
700000
600000
600000
E00018
C00018
C00038
E00078
E000F8
7001F0
3C0FB0
1FFE30
07F000
ENDCHAR
STARTCHAR 01A8
ENCODING 424
SWIDTH 600 0
DWIDTH 30 0
BBX 21 22 5 0
BITMAP
067FE0
07FFF0
078078
0E0038
0C0018
0C0018
000038
000070
0003E0
00FFC0
0FFC00
1F0000
380000
700000
E00010
C00030
C00030
E00070
7001E0
7C07E0
1FFE60
07F800
ENDCHAR
STARTCHAR 01A9
ENCODING 425
SWIDTH 600 0
DWIDTH 30 0
BBX 26 29 2 0
BITMAP
01FFFFC0
01FFFFC0
03FFFFC0
03000180
01800180
01800180
00C00380
00C00300
00600300
00600000
00300000
00300000
00180000
00180000
00180000
00300000
00600000
00C00000
01800000
03801800
07001800
0E001800
0C003800
18003000
30003000
60003000
C0003000
FFFFE000
FFFFE000
ENDCHAR
STARTCHAR 01AA
ENCODING 426
SWIDTH 600 0
DWIDTH 30 0
BBX 15 36 7 -5
BITMAP
0600
3FC0
71E0
C0E0
C0F0
C0B0
C1B0
7F30
3C30
0060
0060
0060
0060
00E0
00C0
00C0
00C0
00C0
0180
0180
0180
0180
0380
0300
0300
0300
0300
0600
0600
0600
0600
0600
0700
0382
01FE
00FC
ENDCHAR
STARTCHAR 01AB
ENCODING 427
SWIDTH 600 0
DWIDTH 30 0
BBX 18 38 5 -10
BITMAP
030000
030000
070000
060000
060000
060000
060000
FFFFC0
FFFFC0
0C0000
0C0000
1C0000
180000
180000
180000
180000
380000
300000
300000
300000
300000
700000
600000
600000
600000
7000C0
3807C0
3FFEC0
0FF0C0
000180
000180
000180
000380
000300
000600
041C00
0FF800
07E000
ENDCHAR
STARTCHAR 01AC
ENCODING 428
SWIDTH 600 0
DWIDTH 30 0
BBX 26 28 3 0
BITMAP
0FFFFFC0
3FFFFFC0
700700C0
E00600C0
C0060180
C0060180
E0060180
F00C0000
700C0000
000C0000
000C0000
001C0000
00180000
00180000
00180000
00180000
00380000
00300000
00300000
00300000
00300000
00700000
00600000
00600000
00600000
00600000
3FFF8000
3FFF8000
ENDCHAR
STARTCHAR 01AD
ENCODING 429
SWIDTH 600 0
DWIDTH 30 0
BBX 18 32 4 -1
BITMAP
000200
003FC0
00FC00
01C000
038000
030000
070000
060000
060000
060000
FFFFC0
FFFFC0
0C0000
0C0000
0C0000
180000
180000
180000
180000
380000
300000
300000
300000
300000
700000
600000
600000
600000
7000C0
380FC0
3FFF00
0FF000
ENDCHAR
STARTCHAR 01AE
ENCODING 430
SWIDTH 600 0
DWIDTH 30 0
BBX 24 38 6 -10
BITMAP
3FFFFF
7FFFFF
601803
601803
601807
E03806
C03006
003000
003000
003000
007000
006000
006000
006000
006000
00C000
00C000
00C000
00C000
01C000
018000
018000
018000
018000
038000
030000
030000
030000
030000
070000
060000
060000
060000
060000
070000
038200
01FE00
00FC00
ENDCHAR
STARTCHAR 01AF
ENCODING 431
SWIDTH 600 0
DWIDTH 30 0
BBX 31 37 5 -1
BITMAP
00000038
0000003C
0000000E
00000006
00000006
00000006
0000000E
0000001C
7FE07FF8
7FE07FF0
0C000300
1C000700
18000600
18000600
18000600
18000600
38000C00
30000C00
30000C00
30000C00
30001C00
60001800
60001800
60001800
60001800
E0003800
C0003000
C0003000
C0003000
C0006000
C0006000
E000C000
60018000
70070000
3C1E0000
1FFC0000
07E00000
ENDCHAR
STARTCHAR 01B0
ENCODING 432
SWIDTH 600 0
DWIDTH 30 0
BBX 27 29 5 -1
BITMAP
00000180
000001C0
000000E0
00000060
00000060
000000E0
000001C0
FC01FF80
FC01FF00
1C001800
18001800
18001800
18001800
18003800
30003000
30003000
30003000
30003000
30007000
60006000
60006000
60006000
6000E000
6001C000
6003C000
700EC000
383CF800
3FF0F000
0FC00000
ENDCHAR
STARTCHAR 01B1
ENCODING 433
SWIDTH 600 0
DWIDTH 30 0
BBX 27 29 3 0
BITMAP
0FFCFFE0
0FFCFFE0
1FFCFFE0
180CC0C0
1818C0C0
181980C0
181980C0
303981C0
01F9F000
03E0F800
07003C00
0C000C00
18000E00
30000600
30000600
60000600
60000600
C0000600
C0000600
C0000C00
C0000C00
C0001C00
C0001800
E0003000
60007000
7000E000
3C03C000
1FFF0000
07FC0000
ENDCHAR
STARTCHAR 01B2
ENCODING 434
SWIDTH 600 0
DWIDTH 30 0
BBX 25 28 5 0
BITMAP
7FC01F80
FFC01F80
0C001800
0C001800
0C001800
18003800
18003000
18003000
18003000
18003000
30006000
30006000
30006000
30006000
30006000
6000C000
6000C000
6000C000
6000C000
E001C000
C0018000
C0018000
C0018000
C0030000
E0070000
700E0000
7FFC0000
3FF00000
ENDCHAR
STARTCHAR 01B3
ENCODING 435
SWIDTH 600 0
DWIDTH 30 0
BBX 29 28 1 0
BITMAP
0FF807F8
3FF007F8
718000C0
E1C00180
C0C00300
C0E00600
E0600E00
70701C00
70303800
00387000
00186000
001CC000
001D8000
000F0000
000F0000
00060000
000E0000
000C0000
000C0000
000C0000
000C0000
001C0000
00180000
00180000
00180000
00180000
0FFFE000
0FFFE000
ENDCHAR
STARTCHAR 01B4
ENCODING 436
SWIDTH 600 0
DWIDTH 30 0
BBX 35 37 -1 -9
BITMAP
00000001C0
00000001C0
00000000E0
0000000060
0000000060
00000000E0
00000001C0
03FC01FF80
03FC01FF00
00C0001000
00C0002000
00E0006000
006000C000
0060008000
0070018000
0030030000
0030060000
0030040000
00380C0000
0018180000
0018100000
001C300000
000C600000
000CC00000
000CC00000
000F800000
0007000000
0006000000
0006000000
000C000000
0018000000
0018000000
0030000000
0060000000
00C0000000
FFFC000000
FFFC000000
ENDCHAR
STARTCHAR 01B5
ENCODING 437
SWIDTH 600 0
DWIDTH 30 0
BBX 24 28 2 0
BITMAP
01FFFF
01FFFF
030003
030006
03000C
030018
060038
060070
0600E0
0001C0
000380
000700
03FFF8
03FFF0
003800
003000
006000
00C000
01800C
03000C
060018
0E0018
1C0018
380018
700018
600030
FFFFF0
FFFFF0
ENDCHAR
STARTCHAR 01B6
ENCODING 438
SWIDTH 600 0
DWIDTH 30 0
BBX 22 21 4 0
BITMAP
0FFFFC
0FFFFC
0C0038
0C0070
1C00E0
1801C0
000300
000600
000C00
0FFFC0
0FFFC0
00E000
01C000
038000
070000
0E0060
180060
300060
600060
FFFFE0
FFFFC0
ENDCHAR
STARTCHAR 01B7
ENCODING 439
SWIDTH 600 0
DWIDTH 30 0
BBX 22 29 3 -1
BITMAP
0FFFFC
0FFFFC
0000C0
000380
000700
000C00
003800
007000
00FF80
03FFE0
07C0F0
060070
000038
000018
000018
000018
000018
000018
000018
000030
000030
000060
000060
0000C0
C001C0
E00380
780F00
3FFC00
07F000
ENDCHAR
STARTCHAR 01B8
ENCODING 440
SWIDTH 600 0
DWIDTH 30 0
BBX 25 29 3 -1
BITMAP
03FFFF80
03FFFF00
00700000
00380000
001C0000
000E0000
00070000
00030000
00FD8000
03FFC000
0F03E000
1C006000
18000000
30000000
60000000
60000000
60000000
C0000000
C0000000
C0000000
C0000000
C0000000
C0000000
E0006000
6000E000
7003C000
3C0F0000
1FFC0000
07F00000
ENDCHAR
STARTCHAR 01B9
ENCODING 441
SWIDTH 600 0
DWIDTH 30 0
BBX 19 29 4 -8
BITMAP
1FFFE0
1FFFE0
030000
018000
01C000
00E000
007000
003800
01FC00
07FC00
0E0E00
1C0600
180000
300000
600000
600000
600000
C00000
C00000
C00000
C00000
C00000
C00000
E00600
E00E00
701C00
787800
3FE000
0F8000
ENDCHAR
STARTCHAR 01BA
ENCODING 442
SWIDTH 600 0
DWIDTH 30 0
BBX 23 31 2 -10
BITMAP
01FFFE
01FFFE
000070
0000E0
000180
000700
000E00
001800
007F80
00FFE0
01C070
038030
000030
000030
000030
000060
000060
0000C0
0001C0
000780
03FE00
1FF800
3C0000
700000
600000
C00000
C00180
C00380
F00F00
7FFC00
1FE000
ENDCHAR
STARTCHAR 01BB
ENCODING 443
SWIDTH 600 0
DWIDTH 30 0
BBX 23 31 2 0
BITMAP
000100
001FF0
007FF8
00E01C
01800C
03000E
060006
060006
000006
000006
000004
00000C
000018
000030
000060
0000C0
00FFF8
01FFF8
000E00
001C00
003800
00E000
01C000
038000
070000
1C0000
380030
700030
C00030
FFFFE0
FFFFE0
ENDCHAR
STARTCHAR 01BC
ENCODING 444
SWIDTH 600 0
DWIDTH 30 0
BBX 23 29 3 -1
BITMAP
0FFFFE
0FFFFE
018000
018000
018000
030000
030000
030000
031F80
07FFE0
07C0F0
060070
000038
000018
000018
000018
000018
000018
000018
000030
000030
000060
000060
0000C0
C001C0
E00380
780F00
3FFC00
07F000
ENDCHAR
STARTCHAR 01BD
ENCODING 445
SWIDTH 600 0
DWIDTH 30 0
BBX 19 22 4 -1
BITMAP
1FFFE0
1FFFE0
0C0000
0C0000
1C0000
180000
180000
180000
1FF800
3FFC00
380E00
000700
000300
000300
000300
000300
000600
000600
C00C00
F03800
7FF000
1FC000
ENDCHAR
STARTCHAR 01BE
ENCODING 446
SWIDTH 600 0
DWIDTH 30 0
BBX 21 28 4 0
BITMAP
01FFF8
01FFF8
000600
000E00
000C00
000C00
000C00
000C00
07FFF0
07FFF0
001800
001800
003800
003E00
000F00
000380
0001C0
0000E0
000060
000060
000060
000060
6000C0
6001C0
600180
F00700
7FFE00
1FF800
ENDCHAR
STARTCHAR 01BF
ENCODING 447
SWIDTH 600 0
DWIDTH 30 0
BBX 31 31 -2 -9
BITMAP
00000FF8
03F07FFC
03F1F00E
00378006
003E0006
007C0006
0070000C
0060000C
00600018
00C00038
00C00070
00C000E0
00C003C0
00C00700
01800E00
01803800
01807000
0181C000
03838000
030F0000
031C0000
03780000
03E00000
07C00000
07000000
06000000
06000000
06000000
0C000000
FFF00000
FFF00000
ENDCHAR
STARTCHAR 01C0
ENCODING 448
SWIDTH 600 0
DWIDTH 30 0
BBX 9 36 10 -6
BITMAP
0180
0180
0180
0180
0180
0300
0300
0300
0300
0600
0600
0600
0600
0600
0C00
0C00
0C00
0C00
0C00
1800
1800
1800
1800
3000
3000
3000
3000
3000
6000
6000
6000
6000
6000
C000
C000
C000
ENDCHAR
STARTCHAR 01C1
ENCODING 449
SWIDTH 600 0
DWIDTH 30 0
BBX 16 36 7 -6
BITMAP
0183
0183
0186
0186
0186
0306
030E
030C
030C
060C
060C
0618
0618
0618
0C18
0C18
0C30
0C30
0C30
1830
1870
1860
1860
3060
3060
30C0
30C0
30C0
60C0
60C0
6180
6180
6180
C180
C180
C300
ENDCHAR
STARTCHAR 01C2
ENCODING 450
SWIDTH 600 0
DWIDTH 30 0
BBX 27 35 2 -5
BITMAP
0000C000
0000C000
00018000
00018000
00018000
00018000
00030000
00030000
00030000
00030000
00030000
3FFFFFE0
3FFFFFC0
00060000
00060000
00060000
000C0000
000C0000
7FFFFF80
FFFFFF80
00180000
00180000
00180000
00180000
00180000
00300000
00300000
00300000
00300000
00300000
00600000
00600000
00600000
00600000
00C00000
ENDCHAR
STARTCHAR 01C3
ENCODING 451
SWIDTH 600 0
DWIDTH 30 0
BBX 11 32 12 -1
BITMAP
00E0
01E0
01E0
01E0
01C0
01C0
03C0
03C0
0380
0380
0380
0700
0700
0700
0700
0600
0600
0E00
0C00
0C00
0000
0000
0000
0000
0000
0000
0000
7800
FC00
FC00
FC00
7800
ENDCHAR
STARTCHAR 01C4
ENCODING 452
SWIDTH 600 0
DWIDTH 30 0
BBX 35 37 -3 0
BITMAP
0000018060
000001C0C0
000000E380
0000007700
0000003E00
0000003800
0000001000
0000000000
0000000000
03FE03FF80
03FF03FF00
00C3830300
00C1870700
0181C60600
0180C60C00
0180C60C00
0180C61800
0180C43000
0300C03000
0300C06000
030080E000
030080C000
0701818000
0601818000
0601830000
0601060000
0601060000
0E030C1800
0C02181800
0C02181800
0C06303000
0C0C303000
180C603000
1818C03000
1870C03000
7FE0FFE000
FF81FFE000
ENDCHAR
STARTCHAR 01C5
ENCODING 453
SWIDTH 600 0
DWIDTH 30 0
BBX 33 31 -2 0
BITMAP
0000030180
0000030380
0000038600
03FE01CC00
03FF00F800
01C3807000
0181802000
0181C00000
0180C00000
0180C00000
0380CFFE00
0300CFFC00
0300CC1C00
0300D83800
0301983000
0601987000
060180E000
060100C000
060101C000
0E03038000
0C03070000
0C02060000
0C020E0000
0C061C0000
1C04180000
180C383000
1818703000
1838E03000
1870C03000
FFE1FFE000
FF81FFE000
ENDCHAR
STARTCHAR 01C6
ENCODING 454
SWIDTH 600 0
DWIDTH 30 0
BBX 31 32 -1 -1
BITMAP
00000C02
001F8E0E
001F861C
00030738
000303E0
000301C0
00030080
00070000
00060000
00060000
07E63FF8
0FF63FF8
0C3C7070
181C6070
381C60E0
301C61C0
301C0180
70180380
60180700
60180E00
60180C00
40381C00
C0303800
C0303000
C0707000
C070E040
C061C0C0
C0E180C0
C1E380C0
E37FFFC0
7F7FFFC0
3C000000
ENDCHAR
STARTCHAR 01C7
ENCODING 455
SWIDTH 600 0
DWIDTH 30 0
BBX 34 29 -2 -1
BITMAP
07FE01FFC0
07FC03FFC0
00C0000C00
00C0000C00
00C0000C00
01C0000C00
0180001800
0180001800
0180001800
0180001800
0380003800
0300003000
0300003000
0300003000
0300003000
0600007000
0600C06000
0618C06000
0619806000
0E19806000
0C1980C000
0C1980C000
0C3180C000
0C3380C000
1C33818000
1831818000
FFF1C70000
FFE0FE0000
0000780000
ENDCHAR
STARTCHAR 01C8
ENCODING 456
SWIDTH 600 0
DWIDTH 30 0
BBX 33 40 -1 -9
BITMAP
0000000180
0000000180
0000000180
03FFF00180
03FFF00180
0018000000
0018000000
0018000000
0018000000
0038000000
003000FE00
003000FE00
0030000600
0030000600
0070000400
0060000C00
0060000C00
0060000C00
0060000800
00E0000800
00C0181800
00C0181800
00C0301800
00C0301000
0180301000
0180301000
0180303000
0180602000
0380602000
FFFFE02000
FFFFE02000
0000006000
0000004000
0000004000
000000C000
0000008000
0000018000
0000070000
003FFE0000
003FF80000
ENDCHAR
STARTCHAR 01C9
ENCODING 457
SWIDTH 600 0
DWIDTH 30 0
BBX 24 40 4 -9
BITMAP
000007
01F807
01F807
003007
003006
003000
003000
007000
006000
006000
0063FC
0063FC
00E01C
00C018
00C018
00C038
00C038
01C038
018030
018030
018070
018070
030060
030060
030060
0300E0
0700E0
0600C0
0600C0
FFE0C0
FFE1C0
000180
000180
000180
000380
000300
000E00
001C00
FFF800
FFE000
ENDCHAR
STARTCHAR 01CA
ENCODING 458
SWIDTH 600 0
DWIDTH 30 0
BBX 35 29 -1 -1
BITMAP
0FC1FE1FE0
0FE1FE1FE0
01E0300700
01E0300600
01E0600600
01E0600600
0360600600
0360600C00
0360600C00
0370C00C00
0730C00C00
0630C00C00
0630C01800
0630801800
0631801800
0C31801800
0C318C3800
0C198C3000
0C1B0C3000
0C1B183000
181B183000
181B186000
181B186000
181E306000
381E30E000
300E30C000
FE0E31C000
FE0E3F8000
00001F0000
ENDCHAR
STARTCHAR 01CB
ENCODING 459
SWIDTH 600 0
DWIDTH 30 0
BBX 32 40 0 -9
BITMAP
00000003
00000003
00000003
07F07FE3
0FF0FFC3
00F00600
00F00600
00F00600
00F80E00
01980C00
01980DFC
01980DFC
01980C0C
039C180C
030C1808
030C1818
030C1818
030C1818
07063010
06063010
06063030
06063030
06067030
0E036020
0C036020
0C036020
0C036060
0C03C040
1801C040
FFC1C040
FFC1C040
000000C0
00000080
00000080
00000180
00000100
00000300
00000E00
007FFC00
007FF000
ENDCHAR
STARTCHAR 01CC
ENCODING 460
SWIDTH 600 0
DWIDTH 30 0
BBX 34 40 -1 -9
BITMAP
00000001C0
00000001C0
00000001C0
00000001C0
0000000180
0000000000
0000000000
0000000000
0000000000
0000000000
0F8FE0FF00
0F9FF0FF00
01B0380700
01E0380600
03C0180600
0380180E00
0300180E00
0300180E00
0300180C00
0600300C00
0600301C00
0600301C00
0600301800
0600701800
0C00601800
0C00603800
0C00603800
0C00603000
1C00E03000
FF87FC3000
FF87FC7000
0000006000
0000006000
0000006000
000000E000
000000C000
0000038000
0000070000
003FFE0000
003FF80000
ENDCHAR
STARTCHAR 01CD
ENCODING 461
SWIDTH 600 0
DWIDTH 30 0
BBX 29 39 1 0
BITMAP
00100080
001C0380
001E0700
000F1E00
0007B800
0003F000
0001C000
00008000
00000000
00000000
00000000
003FF800
003FFC00
0000EC00
0000CC00
00018C00
00018C00
00030C00
00070600
00060600
000E0600
000C0600
00180600
00180600
00300300
00700300
00600300
00E00300
00FFFF00
01FFFF80
03800180
03000180
07000180
06000180
0C000180
0C0001C0
180000C0
FFC01FF8
FFC03FF8
ENDCHAR
STARTCHAR 01CE
ENCODING 462
SWIDTH 600 0
DWIDTH 30 0
BBX 23 32 5 0
BITMAP
006006
00701E
003838
001CF0
000FC0
000780
000200
000000
000000
000000
00FFE0
03FFF0
020038
000018
000018
000018
000018
000018
00FF30
07FFF0
1F00F0
380030
700070
600060
C00060
C00060
C001E0
C003E0
E00EC0
703CFC
3FF0FC
1FC000
ENDCHAR
STARTCHAR 01CF
ENCODING 463
SWIDTH 600 0
DWIDTH 30 0
BBX 24 39 6 0
BITMAP
002003
007007
00381E
001C38
000E70
0007C0
000380
000100
000000
000000
000000
03FFFF
07FFFF
000600
000600
000600
000600
000E00
000C00
000C00
000C00
000C00
001C00
001800
001800
001800
001800
003800
003000
003000
003000
003000
006000
006000
006000
006000
00E000
FFFFE0
FFFFC0
ENDCHAR
STARTCHAR 01D0
ENCODING 464
SWIDTH 600 0
DWIDTH 30 0
BBX 22 31 5 1
BITMAP
00C00C
00E03C
007070
0039E0
001F80
000F00
000400
000000
000000
000000
03FE00
03FE00
000600
000600
000E00
000C00
000C00
000C00
000C00
001800
001800
001800
001800
001800
003000
003000
003000
003000
007000
FFFFF8
FFFFF0
ENDCHAR
STARTCHAR 01D1
ENCODING 465
SWIDTH 600 0
DWIDTH 30 0
BBX 26 40 5 -1
BITMAP
00100180
00380380
001C0F00
000E1C00
00073800
0003E000
0001C000
00008000
00000000
00000000
00000000
001FF800
007FFC00
00F00E00
01C00700
03000380
06000180
0C000180
180001C0
180000C0
300000C0
300000C0
600000C0
600000C0
600000C0
C00000C0
C0000180
C0000180
C0000180
C0000300
C0000300
C0000600
E0000E00
60001C00
70003800
38007000
3C00E000
1E07C000
0FFF0000
01F80000
ENDCHAR
STARTCHAR 01D2
ENCODING 466
SWIDTH 600 0
DWIDTH 30 0
BBX 23 32 6 0
BITMAP
00C00C
00E03C
007070
0039E0
001F80
000F00
000400
000000
000000
000000
007FC0
01FFF0
038078
0E001C
1C000C
18000E
300006
600006
600006
600006
C00006
C00006
C0000C
C0000C
C00018
E00038
600030
7000E0
3801C0
1E0780
0FFE00
03F800
ENDCHAR
STARTCHAR 01D3
ENCODING 467
SWIDTH 600 0
DWIDTH 30 0
BBX 27 40 7 -1
BITMAP
00400600
00E00E00
00703C00
00387000
001CE000
000F8000
00070000
00020000
00000000
00000000
00000000
7FE07FE0
7FE07FE0
0C000600
1C000600
18000600
18000600
18000E00
18000C00
38000C00
30000C00
30000C00
30001C00
30001800
60001800
60001800
60001800
60003800
E0003000
C0003000
C0003000
C0007000
C0006000
C000E000
E000C000
60018000
70070000
3C1E0000
1FFC0000
07E00000
ENDCHAR
STARTCHAR 01D4
ENCODING 468
SWIDTH 600 0
DWIDTH 30 0
BBX 22 32 6 0
BITMAP
018018
01C070
00E0E0
007380
003F00
001E00
000800
000000
000000
000000
FC01FC
FC01FC
1C000C
18000C
18001C
180018
180018
300018
300018
300030
300030
300030
600030
600070
600060
600060
6000E0
6003E0
7007E0
383CF8
3FF8F8
0FC000
ENDCHAR
STARTCHAR 01D5
ENCODING 469
SWIDTH 600 0
DWIDTH 30 0
BBX 27 41 7 -1
BITMAP
003FFF00
003FFF00
00000000
00000000
01C03800
03E07C00
03E07C00
03E07C00
01C03800
00000000
00000000
00000000
7FE07FE0
7FE07FE0
0C000600
1C000600
18000600
18000600
18000E00
18000C00
38000C00
30000C00
30000C00
30001C00
30001800
60001800
60001800
60001800
60003800
E0003000
C0003000
C0003000
C0007000
C0006000
C000E000
E000C000
60018000
70070000
3C1E0000
1FFC0000
07E00000
ENDCHAR
STARTCHAR 01D6
ENCODING 470
SWIDTH 600 0
DWIDTH 30 0
BBX 23 35 6 -1
BITMAP
007FFE
007FFE
000000
000000
01C038
03E07C
03E07C
03E07C
01C038
000000
000000
000000
000000
FC01FC
FC01FC
1C000C
18000C
18001C
180018
180018
300018
300018
300030
300030
300030
600030
600070
600060
600060
6000E0
6003E0
7007E0
383CF8
3FF8F8
0FC000
ENDCHAR
STARTCHAR 01D7
ENCODING 471
SWIDTH 600 0
DWIDTH 30 0
BBX 26 41 7 -1
BITMAP
00000400
00000C00
00003800
00007000
0000E000
00038000
00070000
01C43800
03E07C00
03E07C00
03E07C00
01C03800
00000000
00000000
7FE0FFC0
7FC0FFC0
18000600
18000600
18000E00
18000C00
38000C00
30000C00
30000C00
30001C00
30001800
70001800
60001800
60001800
60003000
E0003000
C0003000
C0003000
C0006000
C0006000
C000E000
E001C000
60038000
70070000
3C1E0000
1FFC0000
07E00000
ENDCHAR
STARTCHAR 01D8
ENCODING 472
SWIDTH 600 0
DWIDTH 30 0
BBX 24 39 6 -1
BITMAP
000007
00000E
00001C
000078
0000E0
0001C0
000300
000000
01C038
03E07C
03E07C
03E07C
01C038
000000
000000
000000
000000
FC01FC
FC01FC
1C000C
18000C
18001C
180018
180018
300018
300018
300030
300030
300030
600030
600070
600060
600060
6000E0
6003E0
7007E0
383CF8
3FF8F8
0FC000
ENDCHAR
STARTCHAR 01D9
ENCODING 473
SWIDTH 600 0
DWIDTH 30 0
BBX 26 41 7 -1
BITMAP
00600600
00700E00
00383C00
001C7000
000FE000
00078000
00030000
01C03800
03E07C00
03E07C00
03E07C00
01C03800
00000000
00000000
7FE0FFC0
7FC0FFC0
18000600
18000600
18000E00
18000C00
38000C00
30000C00
30000C00
30001C00
30001800
60001800
60001800
60001800
60003000
E0003000
C0003000
C0003000
C0006000
C0006000
C000E000
E001C000
60038000
70070000
3C1E0000
1FFC0000
07E00000
ENDCHAR
STARTCHAR 01DA
ENCODING 474
SWIDTH 600 0
DWIDTH 30 0
BBX 24 40 6 -1
BITMAP
002003
007007
00381E
001C38
000E70
0007C0
000380
000100
000000
01C038
03E07C
03E07C
03E07C
01C038
000000
000000
000000
000000
FC01FC
FC01FC
1C000C
18000C
18001C
180018
180018
300018
300018
300030
300030
300030
600030
600070
600060
600060
6000E0
6003E0
7007E0
383CF8
3FF8F8
0FC000
ENDCHAR
STARTCHAR 01DB
ENCODING 475
SWIDTH 600 0
DWIDTH 30 0
BBX 27 41 7 -1
BITMAP
00700000
00780000
00380000
001C0000
01CE3800
03E77C00
03E37C00
03E07C00
01C03800
00000000
00000000
00000000
7FE07FE0
7FE07FE0
0C000600
1C000600
18000600
18000600
18000E00
18000C00
38000C00
30000C00
30000C00
30001C00
30001800
60001800
60001800
60001800
60003800
E0003000
C0003000
C0003000
C0007000
C0006000
C000E000
E000C000
60018000
70070000
3C1E0000
1FFC0000
07E00000
ENDCHAR
STARTCHAR 01DC
ENCODING 476
SWIDTH 600 0
DWIDTH 30 0
BBX 22 41 6 0
BITMAP
00E000
007000
003800
001C00
000E00
000E00
000600
000000
000000
000000
01C038
03E07C
03E07C
03E07C
01C038
000000
000000
000000
000000
FC01FC
FC01FC
1C000C
18000C
18001C
180018
180018
300018
300018
300030
300030
300030
600030
600070
600060
600060
6000E0
6003E0
7007E0
383CF8
3FF8F8
0FC000
ENDCHAR
STARTCHAR 01DD
ENCODING 477
SWIDTH 600 0
DWIDTH 30 0
BBX 24 22 5 0
BITMAP
007F80
03FFF0
0F80F8
3C001C
30000E
000006
000007
000003
000003
000003
000003
FFFFFF
FFFFFF
C00006
C00006
C0000C
E0001C
600038
700070
3C01E0
1FFF80
07FE00
ENDCHAR
STARTCHAR 01DE
ENCODING 478
SWIDTH 600 0
DWIDTH 30 0
BBX 29 40 1 0
BITMAP
0000FFF0
0003FFF8
00000000
00000000
000700E0
000F81F0
000F81F0
000F81F0
000700E0
00000000
00000000
00000000
003FF800
003FFC00
0000EC00
0000CC00
00018C00
00018C00
00030C00
00070600
00060600
000E0600
000C0600
00180600
00180600
00300300
00700300
00600300
00E00300
00FFFF00
01FFFF80
03800180
03000180
07000180
06000180
0C000180
0C0001C0
180000C0
FFC01FF8
FFC03FF8
ENDCHAR
STARTCHAR 01DF
ENCODING 479
SWIDTH 600 0
DWIDTH 30 0
BBX 24 35 5 -1
BITMAP
003FFF
003FFF
000000
000000
00E01C
01F03E
01F03E
01F03E
00E01C
000000
000000
000000
000000
00FFE0
03FFF0
020038
000018
000018
000018
000018
000018
00FF30
07FFF0
1F00F0
380030
700070
600060
C00060
C00060
C001E0
C003E0
E00EC0
703CFC
3FF0FC
1FC000
ENDCHAR
STARTCHAR 01E0
ENCODING 480
SWIDTH 600 0
DWIDTH 30 0
BBX 29 40 1 0
BITMAP
0000FFF0
0003FFF8
0001FFE0
00000000
00001C00
00003C00
00007C00
00003C00
00003800
00000000
00000000
00000000
003FF800
003FFC00
0000EC00
0000CC00
00018C00
00018C00
00030C00
00070600
00060600
000E0600
000C0600
00180600
00180600
00300300
00700300
00600300
00E00300
00FFFF00
01FFFF80
03800180
03000180
07000180
06000180
0C000180
0C0001C0
180000C0
FFC01FF8
FFC03FF8
ENDCHAR
STARTCHAR 01E1
ENCODING 481
SWIDTH 600 0
DWIDTH 30 0
BBX 24 33 5 -1
BITMAP
003FFF
003FFF
000000
000380
0007C0
0007C0
000780
000700
000000
000000
000000
00FFE0
03FFF0
020038
000018
000018
000018
000018
000018
00FF30
07FFF0
1F00F0
380030
700070
600060
C00060
C00060
C001E0
C003E0
E00EC0
703CFC
3FF0FC
1FC000
ENDCHAR
STARTCHAR 01E2
ENCODING 482
SWIDTH 600 0
DWIDTH 30 0
BBX 33 33 1 0
BITMAP
00003FFC00
00007FFE00
00003FFC00
0000000000
0000000000
001FFFFF80
001FFFFF80
0001980180
0003180180
0003180380
0006180300
0006380300
000C300300
000C300000
0018300000
001830C000
003060C000
00307FC000
00607F8000
0060618000
00C0E18000
00C0C00000
01FFC00000
01FFC00000
0300C00000
0301C00000
0601800C00
0601800C00
0C01800C00
0C01801C00
1803001800
FF3FFFF800
FE3FFFF800
ENDCHAR
STARTCHAR 01E3
ENCODING 483
SWIDTH 600 0
DWIDTH 30 0
BBX 29 26 2 -1
BITMAP
000FFFE0
000FFFC0
00000000
00000000
01FE0FE0
03FF1FF0
0003B030
0001E038
0001C018
0001C018
00018018
00018018
01FF0018
0FFFFFF8
1E07FFF8
38030000
60030000
E0070000
C0070000
C0070000
C00F0000
C01F8060
E03D80E0
70EDC3C0
3FCCFF00
1F007C00
ENDCHAR
STARTCHAR 01E4
ENCODING 484
SWIDTH 600 0
DWIDTH 30 0
BBX 27 29 2 0
BITMAP
001FFC20
007FFF60
00F007E0
01C001E0
038000C0
060000C0
0E0000C0
1C000000
18000000
38000000
30000000
30000000
70000000
60000000
60000000
60000000
E007FFC0
C007FFC0
C0000600
C0000600
C0000600
C00FFF80
E00FFF80
60000C00
70000C00
38001C00
1F00F800
07FFE000
01FF0000
ENDCHAR
STARTCHAR 01E5
ENCODING 485
SWIDTH 600 0
DWIDTH 30 0
BBX 27 30 4 -8
BITMAP
00FF87E0
03FFC7E0
0700E600
0C007C00
18003C00
30001C00
70001C00
60001C00
E0001800
C0001800
C0001800
C0003800
C0003800
C0007000
E000F000
6001F000
7003B000
3C0F6000
1FFC6000
07F06000
00006000
00006000
0000C000
00FFF800
00FFF800
00038000
00070000
001E0000
3FF80000
3FE00000
ENDCHAR
STARTCHAR 01E6
ENCODING 486
SWIDTH 600 0
DWIDTH 30 0
BBX 27 40 5 -1
BITMAP
00080080
001C0180
000E0700
00070E00
0003BC00
0001F000
0000E000
00000000
00000000
00000000
00000000
001FFC20
007FFF60
00F007E0
03C001E0
070000C0
0E0000C0
0C0000C0
18000000
38000000
30000000
30000000
60000000
60000000
60000000
60000000
C0000000
C007FFC0
C007FFC0
C0000600
C0000600
C0000600
C0000E00
E0000C00
60000C00
70000C00
3C001C00
1F00F800
07FFE000
01FF0000
ENDCHAR
STARTCHAR 01E7
ENCODING 487
SWIDTH 600 0
DWIDTH 30 0
BBX 27 40 5 -8
BITMAP
01C01C00
00E03800
0070F000
0039C000
001F8000
000E0000
00040000
00000000
00000000
00000000
00FF87E0
03FFE7E0
0700E600
0C003600
18003E00
30001C00
70001C00
60001C00
60001C00
C0001800
C0001800
C0003800
C0003800
C0007800
E000F000
6001F000
7003B000
3C0F3000
1FFC7000
07F06000
00006000
00006000
00006000
0000C000
0000C000
00018000
00030000
000E0000
3FFC0000
3FF00000
ENDCHAR
STARTCHAR 01E8
ENCODING 488
SWIDTH 600 0
DWIDTH 30 0
BBX 31 39 2 0
BITMAP
00020020
00070060
000381C0
0001C380
0000EF00
00007C00
00003800
00000000
00000000
00000000
00000000
03FF81FE
03FF83FE
00300070
007000E0
00600180
00600700
00600E00
00603800
00C07000
00C0E000
00C38000
00C70000
01CF8000
01BBC000
01F0E000
01E07000
01803000
03803800
03001800
03001800
03001C00
03000C00
06000C00
06000C00
06000E00
06000600
7FF007E0
FFE007E0
ENDCHAR
STARTCHAR 01E9
ENCODING 489
SWIDTH 600 0
DWIDTH 30 0
BBX 27 39 3 0
BITMAP
00040020
000700E0
000781C0
0003C780
0001EE00
0000FC00
00007000
00002000
00000000
01F80000
03F00000
00300000
00300000
00300000
00700000
00600000
00600000
00600000
00607FC0
00C07FC0
00C03800
00C07000
00C0C000
00C38000
01870000
018C0000
01B80000
01F80000
03DC0000
038E0000
03070000
03038000
03038000
0601C000
0600E000
06007000
06003800
7E01FF00
FC01FF00
ENDCHAR
STARTCHAR 01EA
ENCODING 490
SWIDTH 600 0
DWIDTH 30 0
BBX 26 36 5 -7
BITMAP
001FF800
007FFC00
00E00E00
01C00700
03000380
06000180
0C0001C0
180000C0
380000C0
300000C0
700000C0
600000C0
600000C0
C00000C0
C00000C0
C0000180
C0000180
C0000180
C0000300
C0000700
C0000600
E0000C00
60001800
70003800
38007000
1C01C000
0F9F8000
07FE0000
00F00000
01800000
03000000
06000000
0C000000
0C000000
0FE00000
07C00000
ENDCHAR
STARTCHAR 01EB
ENCODING 491
SWIDTH 600 0
DWIDTH 30 0
BBX 23 29 6 -7
BITMAP
007FC0
01FFF0
078078
0E001C
1C000C
38000E
300006
600006
600006
C00006
C00006
C00006
C0000C
C0000C
C00018
E00030
600070
7000E0
3803C0
1F3F00
0FFC00
01C000
030000
0E0000
0C0000
180000
180000
1FC000
0F8000
ENDCHAR
STARTCHAR 01EC
ENCODING 492
SWIDTH 600 0
DWIDTH 30 0
BBX 26 41 5 -8
BITMAP
001FFE00
003FFF00
001FFE00
00000000
00000000
001FF800
007FFC00
00E00E00
01C00700
03000380
06000180
0C0001C0
180000C0
380000C0
300000C0
700000C0
600000C0
600000C0
C00000C0
C00000C0
C0000180
C0000180
C0000180
C0000300
C0000700
C0000600
E0000C00
60001800
70003800
38007000
1C01C000
0F9F8000
07FE0000
00F00000
01800000
03000000
06000000
0C000000
0C000000
0FE00000
07C00000
ENDCHAR
STARTCHAR 01ED
ENCODING 493
SWIDTH 600 0
DWIDTH 30 0
BBX 23 33 6 -8
BITMAP
01FFFC
01FFF8
000000
000000
007FC0
01FFF0
078078
0E001C
1C000C
38000E
300006
600006
600006
C00006
C00006
C00006
C0000C
C0000C
C00018
E00030
600070
7000E0
3803C0
1F3F00
0FFC00
01C000
030000
0E0000
0C0000
180000
180000
1FC000
0F8000
ENDCHAR
STARTCHAR 01EE
ENCODING 494
SWIDTH 600 0
DWIDTH 30 0
BBX 22 40 3 -1
BITMAP
00C004
00E01C
007038
0038F0
001DC0
000F80
000600
000400
000000
000000
000000
0FFFFC
0FFFFC
0000C0
000380
000700
000C00
003800
007000
00FF80
03FFE0
07C0F0
060070
000038
000018
000018
000018
000018
000018
000018
000030
000030
000060
000060
0000C0
C001C0
E00380
780F00
3FFC00
07F000
ENDCHAR
STARTCHAR 01EF
ENCODING 495
SWIDTH 600 0
DWIDTH 30 0
BBX 23 39 3 -7
BITMAP
00E00E
00701C
003870
001CE0
000F80
000700
000600
000000
000000
000000
03FFFC
03FFFC
0000E0
0001C0
000300
000E00
001C00
003000
00FE00
01FF00
038380
070180
0001C0
0000C0
0000C0
0000C0
0000C0
0000C0
0000C0
000180
000180
000380
000300
C00700
E00E00
701C00
3C3800
1FF000
07C000
ENDCHAR
STARTCHAR 01F0
ENCODING 496
SWIDTH 600 0
DWIDTH 30 0
BBX 24 43 4 -9
BITMAP
003003
003807
001C1C
000E38
0007F0
0003C0
000180
000000
000000
000000
000000
000000
000000
03FFFC
03FFFC
000018
000018
000018
000018
000038
000030
000030
000030
000030
000060
000060
000060
000060
0000E0
0000C0
0000C0
0000C0
0000C0
0001C0
000180
000180
000180
000300
000700
000E00
001C00
FFF800
FFE000
ENDCHAR
STARTCHAR 01F1
ENCODING 497
SWIDTH 600 0
DWIDTH 30 0
BBX 33 28 -2 0
BITMAP
03FE03FF80
03FF03FF00
00C3830300
00C1870700
0181C60600
0180C60C00
0180C61C00
0180C61800
0180C43000
0300C03000
0300C06000
030080E000
030080C000
0701818000
0601818000
0601830000
0601060000
0601060000
0E030C1800
0C02181800
0C02181800
0C06303000
0C0C303000
180C603000
1818C03000
1870C03000
7FE0FFE000
FF81FFE000
ENDCHAR
STARTCHAR 01F2
ENCODING 498
SWIDTH 600 0
DWIDTH 30 0
BBX 31 28 -2 0
BITMAP
03FE0000
03FF0000
00C38000
00C1C000
0181C000
0180C000
0180C000
0180CFFE
0180CFFE
0300CC1C
0300CC1C
03009C38
03009870
07018060
060180E0
060181C0
06010380
06010300
0E030700
0C020E00
0C020C00
0C061800
0C0C3810
180C7030
18186030
1870C030
7FE0FFF0
FF81FFF0
ENDCHAR
STARTCHAR 01F3
ENCODING 499
SWIDTH 600 0
DWIDTH 30 0
BBX 28 31 0 -1
BITMAP
003F0000
003F0000
00060000
00060000
00060000
00060000
00060000
000C0000
000C0000
07EC7FF0
0FEC7FF0
1C7C60E0
1838C0E0
3038C1C0
3038C380
30380300
60300700
60300E00
60300C00
60301C00
40303800
C0607000
C0606000
C060E000
C0E1C0C0
C0E18180
C1C38180
C1C70180
E7FFFF80
7EFFFF80
3C000000
ENDCHAR
STARTCHAR 01F4
ENCODING 500
SWIDTH 600 0
DWIDTH 30 0
BBX 27 40 5 -1
BITMAP
00000080
00000180
00000700
00000E00
00003C00
00007000
0000E000
00008000
00000000
00000000
00000000
001FFC20
007FFF60
00F007E0
03C001E0
070000C0
0E0000C0
0C0000C0
18000000
38000000
30000000
30000000
60000000
60000000
60000000
60000000
C0000000
C007FFC0
C007FFC0
C0000600
C0000600
C0000600
C0000E00
E0000C00
60000C00
70000C00
3C001C00
1F00F800
07FFE000
01FF0000
ENDCHAR
STARTCHAR 01F5
ENCODING 501
SWIDTH 600 0
DWIDTH 30 0
BBX 27 40 5 -8
BITMAP
00001C00
00003800
0000F000
0001C000
00038000
00060000
000C0000
00000000
00000000
00000000
00FF87E0
03FFE7E0
0700E600
0C003600
18003E00
30001C00
70001C00
60001C00
60001C00
C0001800
C0001800
C0003800
C0003800
C0007800
E000F000
6001F000
7003B000
3C0F3000
1FFC7000
07F06000
00006000
00006000
00006000
0000C000
0000C000
00018000
00030000
000E0000
3FFC0000
3FF00000
ENDCHAR
STARTCHAR 01F6
ENCODING 502
SWIDTH 600 0
DWIDTH 30 0
BBX 32 29 -2 -1
BITMAP
01FE3F80
01FC7F80
00600C00
00600C00
00600C00
00C00C00
00C01C00
00C0187F
00C0187F
01C01803
01801803
01803807
01FFF006
01FFF006
03803006
03003006
0300600E
0300600C
0300600C
0600600C
0600E00C
0600C01C
0600C018
0600C018
0C00C030
0C00E070
FFC070E0
FFC07FC0
00001F00
ENDCHAR
STARTCHAR 01F7
ENCODING 503
SWIDTH 600 0
DWIDTH 30 0
BBX 33 37 -3 -8
BITMAP
00FC0FFE00
00FC3FFF00
000CF00380
001BC00180
001F000180
001E000180
0018000300
0038000300
0030000700
0030000E00
0030001C00
0030003800
0060007000
006000E000
0060038000
0060070000
00600E0000
00C01C0000
00C0700000
00C0E00000
00C1C00000
0183800000
018E000000
019C000000
01B8000000
01F0000000
03C0000000
0380000000
0300000000
0300000000
0700000000
0600000000
0600000000
0600000000
0600000000
FFF8000000
FFF0000000
ENDCHAR
STARTCHAR 01F8
ENCODING 504
SWIDTH 600 0
DWIDTH 30 0
BBX 32 39 2 0
BITMAP
00040000
000E0000
00070000
00038000
0003C000
0001E000
0000E000
00004000
00000000
00000000
00000000
07F003FF
07F003FF
00780030
00D80030
00DC0030
00CC0030
00CC0030
00CE0060
01860060
01870060
01830060
01830060
030380C0
030180C0
030180C0
0300C0C0
0300C1C0
0600E180
06006180
06006180
06007180
06003300
0C003B00
0C001B00
0C001B00
0C001F00
FFC00E00
FFC00E00
ENDCHAR
STARTCHAR 01F9
ENCODING 505
SWIDTH 600 0
DWIDTH 30 0
BBX 24 31 3 1
BITMAP
003000
003800
001C00
000E00
000700
000380
000180
000000
000000
000000
07C7FC
0F8FFE
01B806
01F007
01C003
018003
030003
030003
030007
030006
070006
060006
060006
06000E
06000C
0E000C
0C000C
0C000C
0C0018
FF80FF
FF80FF
ENDCHAR
STARTCHAR 01FA
ENCODING 506
SWIDTH 600 0
DWIDTH 30 0
BBX 29 40 1 0
BITMAP
00000080
00000180
00000700
00000E00
00001800
00007000
0000E000
00008600
00003F80
00007180
0000C0C0
0000C0C0
0000C080
0000C180
00007F00
00003C00
00000000
001FF800
003FFC00
0000EC00
0000CC00
00018C00
00030E00
00030600
00060600
000C0600
001C0600
00180300
00300300
00600300
00E00300
00FFFF00
01FFFF80
03800180
03000180
06000180
0C0001C0
1C0000C0
7FC01FF0
FFC03FF8
ENDCHAR
STARTCHAR 01FB
ENCODING 507
SWIDTH 600 0
DWIDTH 30 0
BBX 24 41 5 -1
BITMAP
000003
000007
00000E
000038
000070
0001E0
000180
000000
0000C0
0007F0
000E30
001810
001810
001830
001830
000FE0
000780
000000
000000
00FFE0
07FFF0
000038
000018
000018
000018
000018
000018
01FF30
07FFF0
1F00F0
380030
700070
600060
C00060
C00060
C001E0
C003E0
E00EC0
703CFC
3FF0FC
1FC000
ENDCHAR
STARTCHAR 01FC
ENCODING 508
SWIDTH 600 0
DWIDTH 30 0
BBX 33 39 1 0
BITMAP
0000000200
0000000600
0000001C00
0000003800
0000007000
000001C000
0000038000
0000020000
0000000000
0000000000
0000000000
001FFFFF80
001FFFFF80
0001980180
0003180180
0003180380
0006180300
0006380300
000C300300
000C300000
0018300000
001830C000
003060C000
00307FC000
00607F8000
0060618000
00C0E18000
00C0C00000
01FFC00000
01FFC00000
0300C00000
0301C00000
0601800C00
0601800C00
0C01800C00
0C01801C00
1803001800
FF3FFFF800
FE3FFFF800
ENDCHAR
STARTCHAR 01FD
ENCODING 509
SWIDTH 600 0
DWIDTH 30 0
BBX 29 32 2 0
BITMAP
000000E0
000001C0
00000380
00000E00
00001C00
00003800
00006000
00000000
00000000
00000000
01FE0FE0
03FF1FF0
0003B030
0001E038
0001C018
0001C018
00018018
00018018
01FF0018
0FFFFFF8
1E07FFF8
38030000
60030000
E0070000
C0070000
C0070000
C00F0000
C01F8060
E03D80E0
70EDC3C0
3FCCFF00
1F007C00
ENDCHAR
STARTCHAR 01FE
ENCODING 510
SWIDTH 600 0
DWIDTH 30 0
BBX 33 41 2 -2
BITMAP
000000C000
0000038000
0000070000
00000E0000
0000380000
0000700000
0000E00000
0000000000
0000000000
0000000180
0000000300
0003FF0600
000FFF8C00
001E01D800
003800F000
0060007000
00C000F000
018001B000
0380033800
0300061800
06000C1800
0600181800
0C00301800
0C00601800
1C00C01800
1801801800
1803003000
1806003000
181C003000
1838006000
1870006000
18E000C000
1DC001C000
0F80038000
0F00070000
0F000E0000
1F801C0000
3BC0F80000
71FFE00000
E07F000000
C000000000
ENDCHAR
STARTCHAR 01FF
ENCODING 511
SWIDTH 600 0
DWIDTH 30 0
BBX 29 35 3 -2
BITMAP
00000300
00000700
00000E00
00003800
00007000
0000E000
00018000
00010000
00000000
00000000
00000018
00000038
000FF860
003FFEC0
00700F80
01C00380
03800780
03001DC0
060038C0
0C0060C0
0C00C0C0
1C0180C0
180700C0
180E00C0
181C0180
18300180
18600300
1CC00300
0F800600
0F001C00
0F003800
1FC0F000
31FFC000
607F0000
C0000000
ENDCHAR
STARTCHAR 0200
ENCODING 512
SWIDTH 600 0
DWIDTH 30 0
BBX 29 39 1 0
BITMAP
00383000
003C3800
001E1C00
000E0E00
00070700
00038380
00018180
00000000
00000000
00000000
00000000
003FF800
003FFC00
0000EC00
0000CC00
00018C00
00018C00
00030C00
00070600
00060600
000E0600
000C0600
00180600
00180600
00300300
00700300
00600300
00E00300
00FFFF00
01FFFF80
03800180
03000180
07000180
06000180
0C000180
0C0001C0
180000C0
FFC01FF8
FFC03FF8
ENDCHAR
STARTCHAR 0201
ENCODING 513
SWIDTH 600 0
DWIDTH 30 0
BBX 22 33 5 0
BITMAP
018380
01C1C0
00E0E0
007070
003838
001C38
000C18
000000
000000
000000
000000
00FFE0
03FFF0
020038
000018
000018
000018
000018
000018
00FF30
07FFF0
1F00F0
380030
700070
600060
C00060
C00060
C001E0
C003E0
E00EC0
703CFC
3FF0FC
1FC000
ENDCHAR
STARTCHAR 0202
ENCODING 514
SWIDTH 600 0
DWIDTH 30 0
BBX 29 38 1 0
BITMAP
00000C00
00007F80
0000FBE0
000180E0
00030060
00030060
00020060
00000000
00000000
00000000
003FF800
003FFC00
0000EC00
0000CC00
00018C00
00018C00
00030C00
00070600
00060600
000E0600
000C0600
00180600
00180600
00300300
00700300
00600300
00E00300
00FFFF00
01FFFF80
03800180
03000180
07000180
06000180
0C000180
0C0001C0
180000C0
FFC01FF8
FFC03FF8
ENDCHAR
STARTCHAR 0203
ENCODING 515
SWIDTH 600 0
DWIDTH 30 0
BBX 23 33 5 -1
BITMAP
0000C0
0007F8
000FBE
00180E
003006
003006
002006
000000
000000
000000
000000
00FFE0
03FFF0
020038
000018
000018
000018
000018
000018
00FF30
07FFF0
1F00F0
380030
700070
600060
C00060
C00060
C001E0
C003E0
E00EC0
703CFC
3FF0FC
1FC000
ENDCHAR
STARTCHAR 0204
ENCODING 516
SWIDTH 600 0
DWIDTH 30 0
BBX 29 40 2 0
BITMAP
00101000
001C3800
001C1C00
000E0E00
00070700
00038380
0001C180
00008080
00000000
00000000
00000000
00000000
03FFFFF8
03FFFFF8
00300030
00700030
00600030
00600030
00600070
00600060
00C00000
00C02000
00C06000
00C06000
01FFE000
01FFE000
0180C000
0180C000
0180C000
03800000
03000000
030000C0
030000C0
03000180
06000180
06000180
06000180
06000380
7FFFFF00
FFFFFF00
ENDCHAR
STARTCHAR 0205
ENCODING 517
SWIDTH 600 0
DWIDTH 30 0
BBX 24 33 5 0
BITMAP
070700
038700
01C380
00E1C0
0070E0
003870
003030
000000
000000
000000
000000
007FE0
01FFF8
07803C
0E000E
1C0006
380007
300003
600003
600003
FFFFFF
FFFFFF
C00000
C00000
C00000
C00000
E00000
600000
70000C
38003C
1F01F0
0FFFC0
01FE00
ENDCHAR
STARTCHAR 0206
ENCODING 518
SWIDTH 600 0
DWIDTH 30 0
BBX 29 37 2 0
BITMAP
00000C00
00007F80
0000FBE0
000180E0
00030060
00030060
00020060
00000000
00000000
03FFFFF8
03FFFFF8
00300030
00700030
00600030
00600030
00600070
00600060
00C00000
00C02000
00C06000
00C06000
01FFE000
01FFE000
0180C000
0180C000
0180C000
03800000
03000000
030000C0
030000C0
03000180
06000180
06000180
06000180
06000380
7FFFFF00
FFFFFF00
ENDCHAR
STARTCHAR 0207
ENCODING 519
SWIDTH 600 0
DWIDTH 30 0
BBX 24 33 5 -1
BITMAP
000180
000FF0
001F7C
00301C
00600C
00600C
00400C
000000
000000
000000
000000
007FE0
01FFF8
07803C
0E000E
1C0006
380007
300003
600003
600003
FFFFFF
FFFFFF
C00000
C00000
C00000
C00000
E00000
600000
70000C
38003C
1F01F0
0FFFC0
01FE00
ENDCHAR
STARTCHAR 0208
ENCODING 520
SWIDTH 600 0
DWIDTH 30 0
BBX 24 39 6 0
BITMAP
0060C0
0070E0
003870
003C38
001C1C
000E0E
000606
000000
000000
000000
000000
03FFFF
07FFFF
000600
000600
000600
000600
000E00
000C00
000C00
000C00
000C00
001C00
001800
001800
001800
001800
003800
003000
003000
003000
003000
006000
006000
006000
006000
00E000
FFFFE0
FFFFC0
ENDCHAR
STARTCHAR 0209
ENCODING 521
SWIDTH 600 0
DWIDTH 30 0
BBX 21 33 5 0
BITMAP
000200
030700
038380
01C1C0
00E1E0
0070E0
003870
001830
000000
000000
000000
000000
03FE00
03FE00
000600
000600
000E00
000C00
000C00
000C00
000C00
001800
001800
001800
001800
001800
003000
003000
003000
003000
007000
FFFFF8
FFFFF0
ENDCHAR
STARTCHAR 020A
ENCODING 522
SWIDTH 600 0
DWIDTH 30 0
BBX 24 38 6 0
BITMAP
0000C0
0007F8
000FBE
00180E
003006
003006
002006
000000
000000
000000
03FFFF
07FFFF
000600
000600
000600
000600
000E00
000C00
000C00
000C00
000C00
001C00
001800
001800
001800
001800
003800
003000
003000
003000
003000
006000
006000
006000
006000
00E000
FFFFE0
FFFFC0
ENDCHAR
STARTCHAR 020B
ENCODING 523
SWIDTH 600 0
DWIDTH 30 0
BBX 21 32 5 0
BITMAP
000300
001FE0
003EF8
006038
00C018
00C018
008018
000000
000000
000000
000000
03FE00
03FE00
000600
000600
000E00
000C00
000C00
000C00
000C00
001800
001800
001800
001800
001800
003000
003000
003000
003000
007000
FFFFF8
FFFFF0
ENDCHAR
STARTCHAR 020C
ENCODING 524
SWIDTH 600 0
DWIDTH 30 0
BBX 26 40 5 -1
BITMAP
01C18000
00E1C000
0070E000
00787000
003C3800
001C1C00
000C0C00
00000000
00000000
00000000
00000000
001FF800
007FFC00
00F00E00
01C00700
03000380
06000180
0C000180
180001C0
180000C0
300000C0
300000C0
600000C0
600000C0
600000C0
C00000C0
C0000180
C0000180
C0000180
C0000300
C0000300
C0000600
E0000E00
60001C00
70003800
38007000
3C00E000
1E07C000
0FFF0000
01F80000
ENDCHAR
STARTCHAR 020D
ENCODING 525
SWIDTH 600 0
DWIDTH 30 0
BBX 23 33 6 0
BITMAP
038300
01C380
00E1C0
0070E0
003870
003838
001818
000000
000000
000000
000000
007FC0
01FFF0
038078
0E001C
1C000C
18000E
300006
600006
600006
600006
C00006
C00006
C0000C
C0000C
C00018
E00038
600030
7000E0
3801C0
1E0780
0FFE00
03F800
ENDCHAR
STARTCHAR 020E
ENCODING 526
SWIDTH 600 0
DWIDTH 30 0
BBX 26 38 5 -1
BITMAP
00006000
0003FC00
0007DF00
000C0700
00180300
00180300
00100300
00000000
00000000
001FF800
007FFC00
00F00E00
01C00700
03000380
06000180
0C000180
180001C0
180000C0
300000C0
300000C0
600000C0
600000C0
600000C0
C00000C0
C0000180
C0000180
C0000180
C0000300
C0000300
C0000600
E0000E00
60001C00
70003800
38007000
3C00E000
1E07C000
0FFF0000
01F80000
ENDCHAR
STARTCHAR 020F
ENCODING 527
SWIDTH 600 0
DWIDTH 30 0
BBX 23 33 6 -1
BITMAP
000180
000FF0
001F7C
00301C
00600C
00600C
00400C
000000
000000
000000
000000
007FC0
01FFF0
038078
0E001C
1C000C
18000E
300006
600006
600006
600006
C00006
C00006
C0000C
C0000C
C00018
E00038
600030
7000E0
3801C0
1E0780
0FFE00
03F800
ENDCHAR
STARTCHAR 0210
ENCODING 528
SWIDTH 600 0
DWIDTH 30 0
BBX 27 39 2 0
BITMAP
00306000
00387000
001C3800
000E1C00
00070E00
00070700
00030300
00000000
00000000
00000000
00000000
03FFFE00
03FFFF80
003003C0
007001C0
006000E0
00600060
00600060
00600060
00C00060
00C000C0
00C00180
00C00700
01C01E00
01FFF800
01FFC000
0180F000
01803000
03803800
03001C00
03000C00
03000E00
03000600
06000600
06000700
06000300
06000380
7FF001E0
FFE001E0
ENDCHAR
STARTCHAR 0211
ENCODING 529
SWIDTH 600 0
DWIDTH 30 0
BBX 27 32 4 1
BITMAP
00183800
001C3C00
000E1C00
00070E00
00038700
0001C380
00008180
00000000
00000000
00000000
00000000
03F81FC0
03F87FE0
0031E0E0
00338000
00370000
003C0000
00780000
00700000
00600000
00600000
00600000
00C00000
00C00000
00C00000
00C00000
01C00000
01800000
01800000
01800000
7FFFE000
FFFFE000
ENDCHAR
STARTCHAR 0212
ENCODING 530
SWIDTH 600 0
DWIDTH 30 0
BBX 27 38 2 0
BITMAP
00003000
0001FE00
0003EF80
00060380
000C0180
000C0180
00080180
00000000
00000000
00000000
03FFFE00
03FFFF80
003003C0
007001C0
006000E0
00600060
00600060
00600060
00C00060
00C000C0
00C00180
00C00700
01C01E00
01FFF800
01FFC000
0180F000
01803000
03803800
03001C00
03000C00
03000E00
03000600
06000600
06000700
06000300
06000380
7FF001E0
FFE001E0
ENDCHAR
STARTCHAR 0213
ENCODING 531
SWIDTH 600 0
DWIDTH 30 0
BBX 27 32 4 0
BITMAP
00001800
0000FF00
0001F7C0
000301C0
000600C0
000600C0
000400C0
00000000
00000000
00000000
00000000
03F81FC0
03F87FE0
0031E0E0
00338000
00370000
003C0000
00780000
00700000
00600000
00600000
00600000
00C00000
00C00000
00C00000
00C00000
01C00000
01800000
01800000
01800000
7FFFE000
FFFFE000
ENDCHAR
STARTCHAR 0214
ENCODING 532
SWIDTH 600 0
DWIDTH 30 0
BBX 27 40 7 -1
BITMAP
01830000
01C38000
01E1C000
00E0E000
00707000
00383800
001C1800
00000000
00000000
00000000
00000000
7FE07FE0
7FE07FE0
0C000600
1C000600
18000600
18000600
18000E00
18000C00
38000C00
30000C00
30000C00
30001C00
30001800
60001800
60001800
60001800
60003800
E0003000
C0003000
C0003000
C0007000
C0006000
C000E000
E000C000
60018000
70070000
3C1E0000
1FFC0000
07E00000
ENDCHAR
STARTCHAR 0215
ENCODING 533
SWIDTH 600 0
DWIDTH 30 0
BBX 22 33 6 0
BITMAP
060E00
070700
038780
01C3C0
00E1C0
0070E0
002060
000000
000000
000000
000000
FC01FC
FC01FC
1C000C
18000C
18001C
180018
180018
300018
300018
300030
300030
300030
600030
600070
600060
600060
6000E0
6003E0
7007E0
383CF8
3FF8F8
0FC000
ENDCHAR
STARTCHAR 0216
ENCODING 534
SWIDTH 600 0
DWIDTH 30 0
BBX 27 38 7 -1
BITMAP
00030000
001FE000
003EF800
00603800
00C01800
00C01800
00801800
00000000
00000000
7FE07FE0
7FE07FE0
0C000600
1C000600
18000600
18000600
18000E00
18000C00
38000C00
30000C00
30000C00
30001C00
30001800
60001800
60001800
60001800
60003800
E0003000
C0003000
C0003000
C0007000
C0006000
C000E000
E000C000
60018000
70070000
3C1E0000
1FFC0000
07E00000
ENDCHAR
STARTCHAR 0217
ENCODING 535
SWIDTH 600 0
DWIDTH 30 0
BBX 22 33 6 -1
BITMAP
000300
001FE0
003EF8
006038
00C018
00C018
008018
000000
000000
000000
000000
FC01FC
FC01FC
1C000C
18000C
18001C
180018
180018
300018
300018
300030
300030
300030
600030
600070
600060
600060
6000E0
6003E0
7007E0
383CF8
3FF8F8
0FC000
ENDCHAR
STARTCHAR 0218
ENCODING 536
SWIDTH 600 0
DWIDTH 30 0
BBX 25 38 5 -9
BITMAP
001FF180
007FFD80
00E00F80
01C00780
03800380
03000300
06000300
06000300
06000000
06000000
07000000
03800000
01F80000
007F8000
0003F000
00007800
00001C00
00000C00
00000C00
00000C00
60000C00
60000C00
60001800
60003800
F0007000
D800E000
DE07C000
CFFF0000
03F80000
00000000
00000000
00380000
00700000
00600000
00E00000
00C00000
01800000
01000000
ENDCHAR
STARTCHAR 0219
ENCODING 537
SWIDTH 600 0
DWIDTH 30 0
BBX 23 31 5 -9
BITMAP
007FE6
00FFFE
01C03E
03000C
06000C
06000C
060000
070000
03E000
01FF80
003FE0
0000F0
000038
000018
200018
600018
600038
600030
F000E0
FE03C0
CFFF80
03FC00
000000
000000
003800
007000
006000
00E000
00C000
018000
010000
ENDCHAR
STARTCHAR 021A
ENCODING 538
SWIDTH 600 0
DWIDTH 30 0
BBX 24 38 8 -10
BITMAP
7FFFFF
7FFFFF
601C03
E01803
C01806
C01806
C01806
003000
003000
003000
003000
007000
006000
006000
006000
006000
00E000
00C000
00C000
00C000
00C000
01C000
018000
018000
018000
018000
FFFE00
FFFE00
000000
000000
000000
01C000
038000
030000
070000
060000
0C0000
080000
ENDCHAR
STARTCHAR 021B
ENCODING 539
SWIDTH 600 0
DWIDTH 30 0
BBX 18 38 7 -10
BITMAP
030000
030000
070000
060000
060000
060000
060000
FFFFC0
FFFFC0
0C0000
0C0000
1C0000
180000
180000
180000
180000
380000
300000
300000
300000
300000
700000
600000
600000
600000
7000C0
380FC0
1FFF00
0FF000
000000
000000
00E000
01C000
018000
038000
030000
060000
040000
ENDCHAR
STARTCHAR 021C
ENCODING 540
SWIDTH 600 0
DWIDTH 30 0
BBX 22 29 4 0
BITMAP
047FE0
0DFFF0
0F8038
0F001C
1C000C
1C000C
18000C
18000C
00001C
000018
000030
0000E0
0003C0
000FC0
001FF0
007870
00E038
000018
000018
000018
000030
000030
000060
0000E0
0001C0
000F00
07FE00
FFF000
F80000
ENDCHAR
STARTCHAR 021D
ENCODING 541
SWIDTH 600 0
DWIDTH 30 0
BBX 19 27 7 -5
BITMAP
11FF80
1FFFC0
3C01E0
380060
300060
300060
0000E0
0001C0
000780
003E00
00FF80
03E3C0
0F80C0
1E00C0
0000C0
0000C0
000180
000380
000700
001E00
007800
01F000
07C000
0F0000
3C0000
F00000
C00000
ENDCHAR
STARTCHAR 021E
ENCODING 542
SWIDTH 600 0
DWIDTH 30 0
BBX 29 39 3 0
BITMAP
00040020
000E00E0
000701C0
00038700
0001CE00
0000FC00
00007000
00002000
00000000
00000000
00000000
01FE07F8
03FE07F8
006000C0
00E000C0
00C000C0
00C000C0
00C001C0
00C00180
01C00180
01800180
01800180
01800300
01FFFF00
03FFFF00
03000300
03000700
03000600
03000600
06000600
06000600
06000E00
06000C00
0E000C00
0C000C00
0C000C00
0C001C00
FFC1FF80
FF81FF80
ENDCHAR
STARTCHAR 021F
ENCODING 543
SWIDTH 600 0
DWIDTH 30 0
BBX 27 40 3 0
BITMAP
00060060
000701E0
00038380
0001C700
0000FC00
00007800
00003000
00000000
00000000
00000000
07F00000
07E00000
00600000
00600000
00600000
00E00000
00C00000
00C00000
00C04000
00C7F800
018FFE00
01B80E00
01F00700
01C00300
03800300
03000300
03000300
03000700
03000700
07000700
06000700
06000600
06000E00
06000E00
0C000E00
0C000C00
0C000C00
0C001C00
FF80FF80
FF80FF80
ENDCHAR
STARTCHAR 0220
ENCODING 544
SWIDTH 600 0
DWIDTH 30 0
BBX 27 37 2 -8
BITMAP
03E1FF00
03E7FF80
00FE03C0
00F800C0
00F000E0
00C00060
00C00060
01C00060
01800060
01800060
01800060
01800060
03000060
030000C0
030000C0
030000C0
030000C0
06000180
06000180
06000180
06000180
0E000300
0C000300
0C000300
0C000300
0C000600
FF800600
FF800600
00000600
00000C00
00000C00
00000C00
00000C00
00001800
00001800
0000FF80
0000FF80
ENDCHAR
STARTCHAR 0224
ENCODING 548
SWIDTH 600 0
DWIDTH 30 0
BBX 24 38 3 -10
BITMAP
01FFFF
01FFFF
018003
030006
03000C
03001C
030038
070070
0600E0
0001C0
000380
000700
000600
000C00
001800
003000
006000
00C000
01800C
03000C
07001C
0E0018
1C0018
380018
700018
600038
FFFFF0
FFFFF0
000030
000030
000060
000060
000060
0000C0
000180
010700
03FE00
00F800
ENDCHAR
STARTCHAR 0225
ENCODING 549
SWIDTH 600 0
DWIDTH 30 0
BBX 22 31 5 -10
BITMAP
0FFFFC
0FFFFC
0C0038
0C0070
0C00E0
1801C0
000300
000600
000C00
001800
007000
00E000
01C000
038000
070000
0E0020
1C0060
300060
600060
FFFFE0
FFFFC0
0000C0
0000C0
0000C0
0001C0
000180
000380
000700
060E00
07FC00
03F000
ENDCHAR
STARTCHAR 0226
ENCODING 550
SWIDTH 600 0
DWIDTH 30 0
BBX 29 36 1 0
BITMAP
00001C00
00003C00
00007C00
00003C00
00003800
00000000
00000000
00000000
003FF800
003FFC00
0000EC00
0000CC00
00018C00
00018C00
00030C00
00070600
00060600
000E0600
000C0600
00180600
00180600
00300300
00700300
00600300
00E00300
00FFFF00
01FFFF80
03800180
03000180
07000180
06000180
0C000180
0C0001C0
180000C0
FFC01FF8
FFC03FF8
ENDCHAR
STARTCHAR 0227
ENCODING 551
SWIDTH 600 0
DWIDTH 30 0
BBX 22 30 5 -1
BITMAP
000380
0007C0
0007C0
000780
000700
000000
000000
000000
00FFE0
03FFF0
020038
000018
000018
000018
000018
000018
00FF30
07FFF0
1F00F0
380030
700070
600060
C00060
C00060
C001E0
C003E0
E00EC0
703CFC
3FF0FC
1FC000
ENDCHAR
STARTCHAR 0228
ENCODING 552
SWIDTH 600 0
DWIDTH 30 0
BBX 29 36 2 -8
BITMAP
03FFFFF8
03FFFFF8
00300030
00700030
00600030
00600030
00600070
00600060
00C00000
00C02000
00C06000
00C06000
01FFE000
01FFE000
0180C000
0180C000
0180C000
03800000
03000000
03000080
030000C0
03000180
06000180
06000180
06000180
06000380
FFFFFF00
FFFFFF00
00300000
00700000
00780000
007C0000
000C0000
031C0000
03F80000
01F00000
ENDCHAR
STARTCHAR 0229
ENCODING 553
SWIDTH 600 0
DWIDTH 30 0
BBX 23 30 5 -8
BITMAP
007FE0
01FFF0
078038
0E001C
1C000C
38000E
300006
600006
600006
FFFFFE
FFFFFE
C00000
C00000
C00000
C00000
E00000
600000
700018
380078
1F03F0
07FF80
00FC00
018000
018000
01C000
01F000
003000
0C7000
0FE000
07C000
ENDCHAR
STARTCHAR 022A
ENCODING 554
SWIDTH 600 0
DWIDTH 30 0
BBX 26 41 5 -1
BITMAP
000FFFC0
001FFFC0
00000000
00000000
001C0380
003E07C0
003E07C0
003E07C0
001C0380
00000000
00000000
00000000
001FF800
007FFC00
00F00E00
01C00700
03000380
06000180
0C000180
180001C0
180000C0
300000C0
300000C0
600000C0
600000C0
600000C0
C00000C0
C0000180
C0000180
C0000180
C0000300
C0000300
C0000600
E0000E00
60001C00
70003800
38007000
3C00E000
1E07C000
0FFF0000
01F80000
ENDCHAR
STARTCHAR 022B
ENCODING 555
SWIDTH 600 0
DWIDTH 30 0
BBX 24 35 6 -1
BITMAP
007FFF
007FFE
000000
000000
01C038
03E07C
03E07C
03E07C
01C038
000000
000000
000000
000000
007FC0
01FFF0
038078
0E001C
1C000C
18000E
300006
600006
600006
600006
C00006
C00006
C0000C
C0000C
C00018
E00038
600030
7000E0
3801C0
1E0780
0FFE00
03F800
ENDCHAR
STARTCHAR 022C
ENCODING 556
SWIDTH 600 0
DWIDTH 30 0
BBX 26 41 5 -1
BITMAP
000FFF80
001FFF80
00000000
00000000
00000000
000F8180
003FE380
0071FF00
00603C00
00000000
00000000
00000000
001FF800
007FFC00
00F00E00
01C00700
03000380
06000180
0C000180
180001C0
180000C0
300000C0
300000C0
600000C0
600000C0
600000C0
C00000C0
C0000180
C0000180
C0000180
C0000300
C0000300
C0000600
E0000E00
60001C00
70003800
38007000
3C00E000
1E07C000
0FFF0000
01F80000
ENDCHAR
STARTCHAR 022D
ENCODING 557
SWIDTH 600 0
DWIDTH 30 0
BBX 24 35 6 -1
BITMAP
003FFF
003FFF
000000
000000
000000
003E06
00FF8E
01C7FC
0180F0
000000
000000
000000
000000
007FC0
01FFF0
038078
0E001C
1C000C
18000E
300006
600006
600006
600006
C00006
C00006
C0000C
C0000C
C00018
E00038
600030
7000E0
3801C0
1E0780
0FFE00
03F800
ENDCHAR
STARTCHAR 022E
ENCODING 558
SWIDTH 600 0
DWIDTH 30 0
BBX 26 37 5 -1
BITMAP
0001E000
0003E000
0003E000
0003E000
00018000
00000000
00000000
00000000
001FF800
007FFC00
00F00E00
01C00700
03000380
06000180
0C000180
180001C0
180000C0
300000C0
300000C0
600000C0
600000C0
600000C0
C00000C0
C0000180
C0000180
C0000180
C0000300
C0000300
C0000600
E0000E00
60001C00
70003800
38007000
3C00E000
1E07C000
0FFF0000
01F80000
ENDCHAR
STARTCHAR 022F
ENCODING 559
SWIDTH 600 0
DWIDTH 30 0
BBX 23 30 6 -1
BITMAP
000700
000F80
000F80
000F00
000E00
000000
000000
000000
007FC0
01FFF0
038078
0E001C
1C000C
18000E
300006
600006
600006
600006
C00006
C00006
C0000C
C0000C
C00018
E00038
600030
7000E0
3801C0
1E0780
0FFE00
03F800
ENDCHAR
STARTCHAR 0230
ENCODING 560
SWIDTH 600 0
DWIDTH 30 0
BBX 26 41 5 -1
BITMAP
0007FF80
001FFFC0
000FFF00
00000000
0001E000
0003E000
0003E000
0003E000
00018000
00000000
00000000
00000000
001FF800
007FFC00
00F00E00
01C00700
03000380
06000180
0C000180
180001C0
180000C0
300000C0
300000C0
600000C0
600000C0
600000C0
C00000C0
C0000180
C0000180
C0000180
C0000300
C0000300
C0000600
E0000E00
60001C00
70003800
38007000
3C00E000
1E07C000
0FFF0000
01F80000
ENDCHAR
STARTCHAR 0231
ENCODING 561
SWIDTH 600 0
DWIDTH 30 0
BBX 23 33 6 -1
BITMAP
007FFE
007FFE
000000
000700
000F80
000F80
000F00
000E00
000000
000000
000000
007FC0
01FFF0
038078
0E001C
1C000C
18000E
300006
600006
600006
600006
C00006
C00006
C0000C
C0000C
C00018
E00038
600030
7000E0
3801C0
1E0780
0FFE00
03F800
ENDCHAR
STARTCHAR 0232
ENCODING 562
SWIDTH 600 0
DWIDTH 30 0
BBX 25 33 8 0
BITMAP
00FFF000
01FFF800
00FFF000
00000000
00000000
7F807F80
FF007F80
18000C00
1C001800
0C003000
0E007000
0600E000
0701C000
03018000
03830000
01860000
018C0000
01D80000
00F00000
00F00000
00600000
00E00000
00C00000
00C00000
00C00000
00C00000
01C00000
01800000
01800000
01800000
01800000
FFFE0000
FFFE0000
ENDCHAR
STARTCHAR 0233
ENCODING 563
SWIDTH 600 0
DWIDTH 30 0
BBX 31 34 1 -9
BITMAP
000FFFE0
000FFFC0
00000000
00000000
03FC01FE
03FC01FC
00C00030
00C00060
00E00060
006000C0
00600180
00700180
00300300
00300600
00300C00
00380C00
00181800
00183000
001C3000
000C6000
000CC000
000CC000
000F8000
00070000
00060000
00060000
000C0000
00180000
00180000
00300000
00600000
00C00000
FFFC0000
FFFC0000
ENDCHAR
STARTCHAR 0237
ENCODING 567
SWIDTH 600 0
DWIDTH 30 0
BBX 22 30 4 -9
BITMAP
03FFFC
03FFFC
000018
000018
000018
000018
000038
000030
000030
000030
000030
000060
000060
000060
000060
0000E0
0000C0
0000C0
0000C0
0000C0
0001C0
000180
000180
000180
000300
000700
000E00
001C00
FFF800
FFE000
ENDCHAR
STARTCHAR 0250
ENCODING 592
SWIDTH 600 0
DWIDTH 30 0
BBX 22 22 6 0
BITMAP
000FE0
FC3FF0
FCF038
1F801C
1F000C
1C000C
18000C
38000C
300018
300038
300070
3803E0
7FFF80
67FE00
600000
600000
600000
600000
600000
700100
3FFF00
1FFC00
ENDCHAR
STARTCHAR 0251
ENCODING 593
SWIDTH 600 0
DWIDTH 30 0
BBX 24 24 3 -1
BITMAP
000001
000003
00FF83
01FFE3
078073
0E003E
1C001E
18001E
30000E
60000E
60000C
60000C
C0000C
C0000C
C0001C
C00018
C00038
E00038
600078
7000F8
3803B0
3C0F3F
0FFC3F
03F000
ENDCHAR
STARTCHAR 0252
ENCODING 594
SWIDTH 600 0
DWIDTH 30 0
BBX 24 23 4 -1
BITMAP
000FC0
FC3FF0
FCF07C
0DC01C
1F000E
1E0006
1C0007
1C0003
180003
380003
300003
300003
300006
300006
700006
70000C
780018
780038
7C0070
CE01E0
C7FF80
C3FF00
C00000
ENDCHAR
STARTCHAR 0253
ENCODING 595
SWIDTH 600 0
DWIDTH 30 0
BBX 28 32 -2 -1
BITMAP
00004000
0003FC00
000FC000
001C0000
00380000
00300000
00600000
00600000
00600000
00600000
00C1FF00
00C7FF80
00CC01C0
00F800E0
01B00060
01E00070
01C00030
01800030
01800030
03000030
03000030
03000030
03000060
03000060
070000C0
070000C0
07800180
07800700
0EC00E00
FC703C00
FC3FF800
000FC000
ENDCHAR
STARTCHAR 0254
ENCODING 596
SWIDTH 600 0
DWIDTH 30 0
BBX 24 22 3 0
BITMAP
047FE0
0FFFF8
0FC01C
0F000E
0E0006
0C0007
180003
000003
000003
000003
000003
000003
000006
000006
00000C
00000C
C00018
E00030
7000F0
3E03C0
1FFF80
03FC00
ENDCHAR
STARTCHAR 0255
ENCODING 597
SWIDTH 600 0
DWIDTH 30 0
BBX 23 27 5 -5
BITMAP
007FC6
01FFF6
07003E
0E001E
18000C
38000C
30000C
600000
600000
E00000
C001E0
C007F0
C00E38
C00C18
C01818
E01818
601818
701830
383870
3E33E0
1FFF80
03FC00
003000
007000
006000
006000
006000
ENDCHAR
STARTCHAR 0256
ENCODING 598
SWIDTH 600 0
DWIDTH 30 0
BBX 27 40 3 -10
BITMAP
00000FC0
00000FC0
00000080
00000180
00000180
00000180
00000180
00000300
00000300
007F8300
01FFE300
07807300
0E003600
1C001E00
38001E00
30000E00
70000E00
60000C00
E0000C00
C0000C00
C0000C00
C0001800
C0001800
C0003800
C0003800
60007800
7000F000
3803B000
3C0F3000
0FFC3000
03F03000
00006000
00006000
00006000
00006000
00006000
00007000
00003820
00001FE0
00000FC0
ENDCHAR
STARTCHAR 0257
ENCODING 599
SWIDTH 600 0
DWIDTH 30 0
BBX 36 31 2 0
BITMAP
0000000FF0
0000003FF0
0000007000
000000E000
000000C000
0000018000
0000018000
0000018000
0000018000
007FC30000
01FFE30000
0780730000
0E003B0000
1C001F0000
38001E0000
30000E0000
60000E0000
60000E0000
E0000E0000
C0000C0000
C0000C0000
C0001C0000
C0001C0000
C000380000
E000380000
6000780000
7000D80000
3803980000
3C0F3F0000
0FFC3F0000
03F0000000
ENDCHAR
STARTCHAR 0258
ENCODING 600
SWIDTH 600 0
DWIDTH 30 0
BBX 24 22 2 0
BITMAP
003FE0
01FFF8
03C03C
07000E
0C0006
180007
380003
300003
600003
7FFFFF
7FFFFF
000006
000006
00000E
00000C
000018
000038
C00070
E001E0
7C0780
3FFF00
07F800
ENDCHAR
STARTCHAR 0259
ENCODING 601
SWIDTH 600 0
DWIDTH 30 0
BBX 23 22 3 0
BITMAP
01FFC0
07FFF0
1E0078
38001C
00000C
00000E
000006
000006
000006
000006
FFFFFE
FFFFFE
C0000C
C0000C
C0001C
E00018
600030
700060
3801C0
1E0780
0FFE00
03F800
ENDCHAR
STARTCHAR 025A
ENCODING 602
SWIDTH 600 0
DWIDTH 30 0
BBX 32 22 3 0
BITMAP
01FFC000
0FFFE000
1E007800
38003800
20001DC0
00000FC0
00001FC0
00007EE0
0001F660
0007C67F
001F063E
00780600
03E00E00
0F800C00
3E001C00
F0001800
E0003800
60007000
7000E000
3C078000
1FFF0000
03F80000
ENDCHAR
STARTCHAR 025B
ENCODING 603
SWIDTH 600 0
DWIDTH 30 0
BBX 22 22 4 0
BITMAP
00FFCC
03FFFC
07003C
0C0018
180018
180018
180000
1C0000
0F0000
07FF00
0FFF00
3E0000
780000
600000
E00000
C00030
C00030
E00070
F001E0
7807E0
3FFE60
0FF000
ENDCHAR
STARTCHAR 025C
ENCODING 604
SWIDTH 600 0
DWIDTH 30 0
BBX 22 22 3 0
BITMAP
067FE0
06FFF8
07803C
07000C
0E000C
0C000C
00001C
000038
0000F0
00FFE0
00FFE0
0000F0
000038
000018
000018
600018
600038
E00030
F000E0
FC03C0
DFFF80
03FC00
ENDCHAR
STARTCHAR 025D
ENCODING 605
SWIDTH 600 0
DWIDTH 30 0
BBX 31 22 5 0
BITMAP
067FE000
06FFF980
07803FC0
07000FC0
0E000CC0
0C000CE0
00001C7E
0000383C
0000F000
00FFE000
00FFE000
0000F000
00003800
00001800
20001800
60001800
60003800
60003000
F000F000
FC03C000
CFFF8000
03FC0000
ENDCHAR
STARTCHAR 025E
ENCODING 606
SWIDTH 600 0
DWIDTH 30 0
BBX 21 22 6 0
BITMAP
00FFE0
03FFF0
078078
0E0018
1C0018
380018
300038
700070
6001E0
61FFC0
E1FFC0
E001E0
E00070
E00070
E00030
E00030
E00030
E00060
7001E0
7C0780
1FFF00
07F800
ENDCHAR
STARTCHAR 025F
ENCODING 607
SWIDTH 600 0
DWIDTH 30 0
BBX 22 30 4 -9
BITMAP
01FFFC
03FFFC
00001C
000018
000018
000018
000018
000038
000030
000030
000030
000030
000060
000060
000060
000060
000060
0000C0
0000C0
00FFFC
00FFFC
0001C0
000180
000180
000380
000300
000600
001C00
FFF800
FFE000
ENDCHAR
STARTCHAR 0260
ENCODING 608
SWIDTH 600 0
DWIDTH 30 0
BBX 35 40 3 -9
BITMAP
0000000200
0000001FE0
0000007E00
000000E000
000001C000
0000018000
0000030000
0000030000
0000070000
0000060000
00FF860000
03FFC60000
0700E60000
0C003E0000
18003C0000
30001C0000
70001C0000
60001C0000
6000180000
C000180000
C000180000
C000180000
C000380000
C000700000
E000700000
6001F00000
7003B00000
3C0F700000
1FFC600000
07F0600000
0000600000
0000600000
0000C00000
0000C00000
0001C00000
0001800000
0007000000
000E000000
3FFC000000
3FF0000000
ENDCHAR
STARTCHAR 0261
ENCODING 609
SWIDTH 600 0
DWIDTH 30 0
BBX 27 30 5 -8
BITMAP
00FF87E0
03FFE7E0
0700E600
0C003600
18003E00
30001C00
70001C00
60001C00
60001C00
C0001800
C0001800
C0003800
C0003800
C0007800
E000F000
6001F000
7003B000
3C0F3000
1FFC7000
07F06000
00006000
00006000
00006000
0000C000
0000C000
00018000
00030000
000E0000
3FFC0000
3FF00000
ENDCHAR
STARTCHAR 0262
ENCODING 610
SWIDTH 600 0
DWIDTH 30 0
BBX 23 21 4 1
BITMAP
007FE6
01FFFE
07803E
0E000C
1C000C
380000
300000
700000
600000
600000
600000
C00000
C01FFC
C01FFC
C00030
C00030
E00030
600060
780060
1FFFE0
0FFF80
ENDCHAR
STARTCHAR 0263
ENCODING 611
SWIDTH 600 0
DWIDTH 30 0
BBX 25 31 6 -10
BITMAP
FF007F80
FF007F80
30000E00
30000C00
30001800
38003000
18007000
18006000
1800C000
0C01C000
0C018000
0C030000
0C070000
06060000
060C0000
061C0000
06180000
03300000
03600000
03E00000
03C00000
01800000
03C00000
07C00000
06C00000
0CC00000
1CC00000
18C00000
19C00000
1F800000
0F000000
ENDCHAR
STARTCHAR 0264
ENCODING 612
SWIDTH 600 0
DWIDTH 30 0
BBX 26 22 4 -1
BITMAP
7F807EC0
7FE1FFC0
E0F78180
C03E0180
C0180180
C03C0180
006C0000
00EE0000
00C60000
01860000
01860000
03060000
03060000
03060000
06060000
06060000
060C0000
060C0000
061C0000
07380000
03F00000
01E00000
ENDCHAR
STARTCHAR 0265
ENCODING 613
SWIDTH 600 0
DWIDTH 30 0
BBX 25 30 5 -9
BITMAP
FF80FF80
FF80FF80
0C001800
0C001800
18001800
18003800
18003000
18003000
38003000
30003000
30006000
30006000
30006000
70006000
60006000
6000C000
6001C000
6007C000
300EC000
3FF9C000
1FF18000
00018000
00018000
00018000
00038000
00030000
00030000
00030000
0003F000
0007E000
ENDCHAR
STARTCHAR 0266
ENCODING 614
SWIDTH 600 0
DWIDTH 30 0
BBX 25 30 0 1
BITMAP
0007F800
001FF800
00380000
00700000
00600000
00C00000
00C00000
00C00000
01C00000
0187F800
019FFE00
01B80E00
01E00700
03C00300
03800300
03000300
03000300
03000700
06000600
06000600
06000600
06000600
0E000E00
0C000C00
0C000C00
0C000C00
0C000C00
1C001800
FF80FF80
FF80FF80
ENDCHAR
STARTCHAR 0267
ENCODING 615
SWIDTH 600 0
DWIDTH 30 0
BBX 24 41 1 -10
BITMAP
000040
0007F8
001FF8
003800
007000
006000
00E000
00C000
00C000
00C000
0187F8
019FFE
01B80E
01E007
03C003
038003
030003
030003
030007
070006
060006
060006
060006
06000C
0C000C
0C000C
0C000C
0C000C
1C0018
FF8018
FF8018
000018
000018
000030
000030
000030
000060
0000C0
0043C0
00FF00
007C00
ENDCHAR
STARTCHAR 0268
ENCODING 616
SWIDTH 600 0
DWIDTH 30 0
BBX 22 31 2 0
BITMAP
000380
000380
000380
000700
000700
000000
000000
000000
000000
000000
03FE00
07FE00
000E00
000C00
000C00
000C00
000C00
001C00
001800
3FFFFC
3FFFFC
001800
003000
003000
003000
003000
003000
006000
006000
FFFFF0
FFFFF0
ENDCHAR
STARTCHAR 0269
ENCODING 617
SWIDTH 600 0
DWIDTH 30 0
BBX 12 22 11 0
BITMAP
7C00
FC00
7C00
1800
1800
1800
1800
1800
3000
3000
3000
3000
7000
6000
6000
6000
6000
6000
6000
7070
3FE0
3F80
ENDCHAR
STARTCHAR 026A
ENCODING 618
SWIDTH 600 0
DWIDTH 30 0
BBX 20 21 5 0
BITMAP
0FFFF0
0FFFF0
001800
003800
003000
003000
003000
003000
007000
006000
006000
006000
006000
00C000
00C000
00C000
00C000
01C000
018000
FFFF00
FFFF00
ENDCHAR
STARTCHAR 026B
ENCODING 619
SWIDTH 600 0
DWIDTH 30 0
BBX 23 30 2 0
BITMAP
00FF80
00FF80
000180
000300
000300
000300
000300
000700
000600
000600
000600
000600
000E00
01EC00
07FC02
0E3C0E
180E1C
301FF8
001BE0
001800
001800
001800
003000
003000
003000
003000
007000
006000
FFFFF0
FFFFF0
ENDCHAR
STARTCHAR 026C
ENCODING 620
SWIDTH 600 0
DWIDTH 30 0
BBX 23 30 2 0
BITMAP
00FF80
00FF80
000180
000300
000300
000300
000300
000300
00FE00
01FE00
038E00
070600
060E00
060C00
070C00
03FFFE
01FFFC
001800
001800
001800
001800
001800
003000
003000
003000
003000
007000
006000
FFFFF0
FFFFF0
ENDCHAR
STARTCHAR 026D
ENCODING 621
SWIDTH 600 0
DWIDTH 30 0
BBX 11 40 10 -10
BITMAP
FFC0
FFC0
00C0
0180
0180
0180
0180
0100
0300
0300
0300
0300
0600
0600
0600
0600
0600
0C00
0C00
0C00
0C00
0800
1800
1800
1800
1800
3000
3000
3000
3000
3000
6000
6000
6000
6000
6000
7000
3820
1FE0
0FC0
ENDCHAR
STARTCHAR 026E
ENCODING 622
SWIDTH 600 0
DWIDTH 30 0
BBX 31 38 -1 -8
BITMAP
00FF0000
00FF0000
00030000
00030000
00070000
00060000
00060000
00060000
00060000
000FFFFE
000FFFFE
000C0070
000C00E0
000C0180
00180700
00180E00
00181800
00187F00
0038FF80
0031C1C0
003380C0
003000E0
00300060
00700060
00600060
00600060
00600060
00600060
FFFFC0C0
FFFFC0C0
000000C0
00000180
00100380
00380300
001C0600
001E1C00
0007F800
0003E000
ENDCHAR
STARTCHAR 026F
ENCODING 623
SWIDTH 600 0
DWIDTH 30 0
BBX 30 21 2 0
BITMAP
F81F03FC
F81F03FC
180300C0
180300C0
180600C0
300600C0
300600C0
30060180
30060180
300C0180
600C0180
600C0300
600C0300
600C0300
E0180300
C0180300
C0380600
C0780E00
E0D83E00
7F9FF7C0
7F0FC780
ENDCHAR
STARTCHAR 0270
ENCODING 624
SWIDTH 600 0
DWIDTH 30 0
BBX 30 30 3 -9
BITMAP
781F03FC
F81F03F8
180300C0
180300C0
180600C0
300600C0
30060180
30060180
300C0180
300C0180
600C0180
600C0300
600C0300
60180300
C0180300
C0180700
C0380E00
C0781E00
E0D83E00
7F9FF600
7F0FCC00
00000C00
00000C00
00000C00
00000C00
00001800
00001800
00001800
00001F00
00001E00
ENDCHAR
STARTCHAR 0271
ENCODING 625
SWIDTH 600 0
DWIDTH 30 0
BBX 29 31 0 -9
BITMAP
0F9F87F0
0FBFCFF0
03E0DC38
03C0F018
0380E018
0300C018
0600C018
0600C030
0600C030
06018030
06018030
0C018030
0C018060
0C030060
0C030060
0C030060
180300C0
180300C0
180600C0
FF07C0C0
FE07C0C0
00000180
00000180
00000180
00000180
00000300
00000300
00000600
00021C00
0007F800
0003E000
ENDCHAR
STARTCHAR 0272
ENCODING 626
SWIDTH 600 0
DWIDTH 30 0
BBX 33 32 -6 -10
BITMAP
0000004000
000F87FC00
000F9FFE00
0001B80E00
0001E00700
0001C00300
0003800300
0003000300
0003000300
0003000700
0007000600
0006000600
0006000600
0006000600
0006000E00
000E000C00
000C000C00
000C000C00
000C000C00
000C001800
001800FF80
001800FF80
0018000000
0018000000
0038000000
0030000000
0030000000
0060000000
00E0000000
C3C0000000
FF00000000
7C00000000
ENDCHAR
STARTCHAR 0273
ENCODING 627
SWIDTH 600 0
DWIDTH 30 0
BBX 28 32 2 -10
BITMAP
00004000
0F87FC00
0F9FFE00
01B80E00
01E00700
01C00300
03800300
03000300
03000300
03000600
07000600
06000600
06000600
06000600
06000C00
0E000C00
0C000C00
0C000C00
0C001800
0C001800
FF801800
FF801800
00001800
00003000
00003000
00003000
00003000
00003000
00003800
00001C10
00000FF0
000007E0
ENDCHAR
STARTCHAR 0274
ENCODING 628
SWIDTH 600 0
DWIDTH 30 0
BBX 26 21 2 0
BITMAP
1F803FC0
1FC03FC0
03C00300
03E00700
07600600
06700600
06300600
06380600
06180C00
0C1C0C00
0C0C0C00
0C0E0C00
0C061C00
0C071800
18031800
18039800
18019800
1801F800
3000F000
FF007000
FF007000
ENDCHAR
STARTCHAR 0275
ENCODING 629
SWIDTH 600 0
DWIDTH 30 0
BBX 24 22 3 0
BITMAP
007FE0
01FFF8
03C03C
07000E
0C0006
180007
300003
700003
600003
600003
FFFFFF
FFFFFF
C00006
C00006
C0000C
E0000C
600018
700070
3800E0
1E07C0
0FFF00
03F800
ENDCHAR
STARTCHAR 0276
ENCODING 630
SWIDTH 600 0
DWIDTH 30 0
BBX 31 21 0 0
BITMAP
003FFFFE
01FFFFFC
07C0600C
0E00E00C
1C00C00C
3000C018
3000C018
6000C318
6001C318
C001FF00
C001FE00
C0018600
C0018600
C0030000
C0030038
E0030030
70030030
38070030
1E060030
0FFFFFE0
01FFFFE0
ENDCHAR
STARTCHAR 0277
ENCODING 631
SWIDTH 600 0
DWIDTH 30 0
BBX 26 25 4 -1
BITMAP
00018000
003FF800
00FFFE00
03C00F00
07000380
0E000180
1C0001C0
180000C0
300000C0
300000C0
600400C0
600600C0
600C00C0
C00C0080
C00C0180
C00C0180
C01C0180
C0180300
C0180300
C0180600
E0380E00
707C1C00
78FE7800
3FCFF000
1F07C000
ENDCHAR
STARTCHAR 0278
ENCODING 632
SWIDTH 600 0
DWIDTH 30 0
BBX 23 40 5 -10
BITMAP
000180
000380
000300
000300
000300
000700
000600
000600
000600
01FFF0
07FFFC
0E0C1E
1C0C0E
180C06
300C06
301C06
301806
701806
60180E
60380C
60300C
60300C
E0301C
C03018
C07018
C06038
E06030
7060E0
7FFFC0
1FFF00
00C000
00C000
00C000
01C000
018000
018000
018000
018000
038000
030000
ENDCHAR
STARTCHAR 0279
ENCODING 633
SWIDTH 600 0
DWIDTH 30 0
BBX 27 22 0 -1
BITMAP
007FFFE0
00FFFFE0
00003000
00003000
00003000
00003000
00007000
00006000
00006000
00006000
00006000
0000E000
0000C000
0000C000
0001C000
0007C000
000F8000
003D8000
E0718000
7BE1FC00
7F81FC00
0C000000
ENDCHAR
STARTCHAR 027A
ENCODING 634
SWIDTH 600 0
DWIDTH 30 0
BBX 28 31 6 -1
BITMAP
003FFFF0
003FFFF0
00000C00
00000C00
00000C00
00001800
00001800
00001800
00001800
00001800
00003000
00003000
00003000
00003000
00007000
00006000
00006000
00006000
00006000
0000E000
0000C000
0000C000
0000C000
0003C000
00078000
000F8000
00398000
E0718000
F3C3F800
7F83F800
18000000
ENDCHAR
STARTCHAR 027B
ENCODING 635
SWIDTH 600 0
DWIDTH 30 0
BBX 26 31 2 -10
BITMAP
00FFFFC0
00FFFFC0
00003000
00007000
00006000
00006000
00006000
00006000
0000C000
0000C000
0000C000
0000C000
0001C000
00018000
00038000
000F8000
001D8000
007B8000
C0E30000
FFC30000
7F030000
00030000
00060000
00060000
00060000
00060000
00060000
00070000
00038200
0001FE00
0000FC00
ENDCHAR
STARTCHAR 027C
ENCODING 636
SWIDTH 600 0
DWIDTH 30 0
BBX 29 30 1 -8
BITMAP
01FC0FE0
01FC1FF0
000C7038
000CE010
001F8000
001F0000
001E0000
00180000
00180000
00380000
00300000
00300000
00300000
00300000
00600000
00600000
00600000
00600000
00600000
00C00000
00C00000
00C00000
00C00000
01C00000
01800000
01800000
01800000
01800000
FFFFE000
FFFFC000
ENDCHAR
STARTCHAR 027D
ENCODING 637
SWIDTH 600 0
DWIDTH 30 0
BBX 22 31 7 -9
BITMAP
FF03F8
FF0FFC
031C0C
067000
06E000
07C000
070000
060000
0C0000
0C0000
0C0000
0C0000
1C0000
180000
180000
180000
180000
300000
300000
300000
300000
300000
600000
600000
600000
600000
600000
700000
382000
1FE000
0FC000
ENDCHAR
STARTCHAR 027E
ENCODING 638
SWIDTH 600 0
DWIDTH 30 0
BBX 26 21 2 0
BITMAP
0001FFC0
0007FFC0
000F0000
001C0000
00380000
00300000
00600000
00600000
00600000
00600000
00C00000
00C00000
00C00000
00C00000
01C00000
01800000
01800000
01800000
01800000
FFFFE000
FFFFE000
ENDCHAR
STARTCHAR 027F
ENCODING 639
SWIDTH 600 0
DWIDTH 30 0
BBX 18 31 3 -10
BITMAP
1FFC00
1FFE00
000700
000380
000180
000180
000180
000180
000180
000180
000180
000380
000300
000300
000300
000300
000700
000600
000600
000600
000600
000E00
000C00
000C00
000C00
000C00
001C00
001800
001800
FFFFC0
FFFFC0
ENDCHAR
STARTCHAR 0280
ENCODING 640
SWIDTH 600 0
DWIDTH 30 0
BBX 24 21 1 0
BITMAP
0FFFE0
0FFFF8
01803C
01800E
018006
038006
030006
03000C
030038
0300F0
07FFC0
07FF00
060380
0601C0
0600E0
0C0070
0C0030
0C0038
0C0018
FFC01F
FFC00F
ENDCHAR
STARTCHAR 0281
ENCODING 641
SWIDTH 600 0
DWIDTH 30 0
BBX 27 21 5 0
BITMAP
07FC01E0
0FFC01E0
01C00300
01800600
01800E00
01801C00
01803800
0380F000
0301C000
03FF0000
03FFC000
0300F000
07003000
06001800
06001800
06001800
06003800
0E007000
0C01E000
7FFF8000
FFFE0000
ENDCHAR
STARTCHAR 0282
ENCODING 642
SWIDTH 600 0
DWIDTH 30 0
BBX 24 31 3 -9
BITMAP
003FF3
00FFFF
01C01F
030006
070006
060006
060000
070000
03F000
01FFC0
000FF0
000078
00001C
00000C
30000C
30000C
30001C
700038
780070
7E01E0
67FFC0
61FE00
C00000
C00000
C00000
C00000
C00000
E00000
704000
3FE000
1F8000
ENDCHAR
STARTCHAR 0283
ENCODING 643
SWIDTH 600 0
DWIDTH 30 0
BBX 28 36 1 -5
BITMAP
00000080
00000FF0
00001FF0
00003000
00006000
0000C000
0000C000
00018000
00018000
00018000
00018000
00030000
00030000
00030000
00030000
00070000
00060000
00060000
00060000
00060000
000E0000
000C0000
000C0000
000C0000
000C0000
00180000
00180000
00180000
00180000
00380000
00300000
00700000
00E00000
41C00000
FF800000
7E000000
ENDCHAR
STARTCHAR 0284
ENCODING 644
SWIDTH 600 0
DWIDTH 30 0
BBX 28 36 1 -5
BITMAP
00000080
00000FF0
00001FF0
00007000
00006000
0000C000
0001C000
00018000
00018000
00018000
00038000
00030000
00030000
00030000
00030000
00070000
00060000
00060000
00060000
00060000
000C0000
000C0000
000C0000
000C0000
001C0000
00180000
00180000
00180000
00180000
0FFFE000
0FFFC000
00600000
00E00000
C1C00000
FF800000
7E000000
ENDCHAR
STARTCHAR 0285
ENCODING 645
SWIDTH 600 0
DWIDTH 30 0
BBX 14 36 8 -5
BITMAP
0800
FF00
7F80
0180
01C0
00C0
00C0
00C0
00C0
00C0
0180
0180
0180
0180
0180
0180
0300
0300
0300
0300
0300
0600
0600
0600
0600
0600
0600
0C00
0C00
0C00
0C00
0C00
0E00
0704
03FC
01F8
ENDCHAR
STARTCHAR 0286
ENCODING 646
SWIDTH 600 0
DWIDTH 30 0
BBX 28 36 1 -5
BITMAP
00000080
00000FF0
00001FF0
00003800
00006000
0000C000
0000C000
0001C000
00018000
00018000
00018000
00018000
00030000
00030000
00030000
00030000
00070000
00060000
00060000
00060000
00060000
000E0000
000C0000
000C0000
000C0000
000C0000
06180000
3F980000
71980000
60D80000
C0F00000
C0F00000
C1E00000
C3C00000
7F800000
3E000000
ENDCHAR
STARTCHAR 0287
ENCODING 647
SWIDTH 600 0
DWIDTH 30 0
BBX 18 29 2 -1
BITMAP
07FE00
7FFF00
F00380
800180
000180
000180
000180
000180
000300
000300
000300
000300
000700
000600
000600
000600
000600
000E00
000C00
000C00
FFFFC0
FFFF80
001800
001800
001800
001800
003800
003000
003000
ENDCHAR
STARTCHAR 0288
ENCODING 648
SWIDTH 600 0
DWIDTH 30 0
BBX 20 38 4 -10
BITMAP
018000
018000
018000
038000
030000
030000
030000
FFFFF0
FFFFF0
060000
060000
060000
060000
0E0000
0C0000
0C0000
0C0000
0C0000
180000
180000
180000
180000
380000
300000
300000
300000
300000
700000
600000
600000
600000
600000
C00000
C00000
E00380
701F80
7FFE00
1FE000
ENDCHAR
STARTCHAR 0289
ENCODING 649
SWIDTH 600 0
DWIDTH 30 0
BBX 25 22 3 -1
BITMAP
7E00FE00
7E00FE00
06000600
06000E00
06000C00
0C000C00
FFFFFF80
FFFFFF80
0C001C00
1C001800
18001800
18001800
18001800
18003000
30003000
30003000
3000F000
3001F000
3807E000
1C1E7C00
1FF87C00
07E00000
ENDCHAR
STARTCHAR 028A
ENCODING 650
SWIDTH 600 0
DWIDTH 30 0
BBX 22 24 4 -1
BITMAP
7FCFF8
7FCFF8
03CF00
0FCFC0
1E01E0
380070
300030
700038
600018
E0001C
C0000C
C0000C
C0000C
C0000C
C0000C
C0000C
E0000C
600018
600018
300030
380070
1E01E0
0FFFC0
01FF00
ENDCHAR
STARTCHAR 028B
ENCODING 651
SWIDTH 600 0
DWIDTH 30 0
BBX 24 27 1 0
BITMAP
00000C
00000E
000006
000003
000003
000003
FFC003
FFC003
0C0006
0C0006
06000E
06000C
03000C
030018
038018
018030
01C030
00C070
00C060
006060
0060C0
0030C0
003180
003980
001B80
001F00
000F00
ENDCHAR
STARTCHAR 028C
ENCODING 652
SWIDTH 600 0
DWIDTH 30 0
BBX 27 21 -3 0
BITMAP
0000F000
0001F000
0001B000
00033000
00063800
00061800
000C1800
001C1800
00181C00
00300C00
00700C00
00600C00
00C00E00
00C00600
01800600
03000600
03000600
06000700
0C000300
7FC07FE0
FFC07FE0
ENDCHAR
STARTCHAR 028D
ENCODING 653
SWIDTH 600 0
DWIDTH 30 0
BBX 27 21 -3 0
BITMAP
001C0380
003C0380
003C0780
007C0780
006C0D80
006C1D80
00CC1980
00CC3980
01863180
01866180
03866180
0306C180
0306C180
06078180
06078180
0C070180
0C000180
1C000180
18000180
7F001FE0
FF001FE0
ENDCHAR
STARTCHAR 028E
ENCODING 654
SWIDTH 600 0
DWIDTH 30 0
BBX 31 30 -2 0
BITMAP
00007FFE
00007FFE
00000600
00000C00
00001800
00001800
00003000
00006000
0000C000
0000C000
0001C000
0003E000
00036000
00066000
000C6000
00187000
00183000
00303000
00603800
00601800
00C01800
01801800
01801C00
03000C00
06000C00
0E000E00
0C000600
18000600
7F007F80
FF007F80
ENDCHAR
STARTCHAR 028F
ENCODING 655
SWIDTH 600 0
DWIDTH 30 0
BBX 22 21 6 0
BITMAP
FF03FC
FF03FC
180060
1C00C0
0C0180
0C0300
0E0600
060E00
071C00
033800
03B000
01E000
01C000
01C000
018000
018000
018000
018000
030000
FFFC00
FFFC00
ENDCHAR
STARTCHAR 0290
ENCODING 656
SWIDTH 600 0
DWIDTH 30 0
BBX 26 31 5 -10
BITMAP
0FFFFC00
0FFFFC00
0C001800
0C007000
0C00E000
1801C000
00038000
00070000
000E0000
00180000
00300000
00600000
01C00000
03800000
07000000
0E003000
1C003000
30006000
60006000
FFFFE000
FFFFE000
00006000
0000C000
0000C000
0000C000
0000C000
0000C000
0000E000
00007040
00003FC0
00001F80
ENDCHAR
STARTCHAR 0291
ENCODING 657
SWIDTH 600 0
DWIDTH 30 0
BBX 22 25 4 -4
BITMAP
07FFFC
07FFFC
0E0018
0C0070
0C00E0
0C01C0
000380
000700
000E00
001C00
003800
0061E0
00C3F0
018738
030618
0E0C18
1C0C18
380C30
700C70
FFFFE0
FFFF80
001800
001800
003000
003000
ENDCHAR
STARTCHAR 0292
ENCODING 658
SWIDTH 600 0
DWIDTH 30 0
BBX 22 29 3 -8
BITMAP
03FFFC
03FFFC
0000E0
0001C0
000300
000E00
001C00
003000
00FE00
01FF00
038380
070180
0001C0
0000C0
0000C0
0000C0
0000C0
0000C0
0000C0
000180
000180
000380
000300
C00700
E00E00
701C00
3C3800
1FF000
07C000
ENDCHAR
STARTCHAR 0293
ENCODING 659
SWIDTH 600 0
DWIDTH 30 0
BBX 20 31 6 -10
BITMAP
0FFFF0
0FFFF0
000380
000700
000C00
003800
006000
00C000
01F000
07FC00
0E0E00
0C0600
000700
000300
000300
000300
000300
000300
000300
000600
000600
1E0E00
3F0C00
739800
C1B800
C1F000
C1E000
E3C000
7FE000
7C6000
006000
ENDCHAR
STARTCHAR 0294
ENCODING 660
SWIDTH 600 0
DWIDTH 30 0
BBX 21 28 5 1
BITMAP
00FFC0
03FFE0
078070
0C0038
0C0018
0C0018
0C0018
000018
000038
000030
000060
0001C0
000780
001E00
007800
006000
00E000
00C000
00C000
00C000
00C000
018000
018000
018000
018000
038000
FFFE00
FFFE00
ENDCHAR
STARTCHAR 0295
ENCODING 661
SWIDTH 600 0
DWIDTH 30 0
BBX 21 28 6 1
BITMAP
00FFC0
03FFF0
070078
0C0038
180030
180030
300000
300000
300000
300000
380000
1C0000
0E0000
078000
03E000
00E000
00C000
00C000
00C000
00C000
01C000
018000
018000
018000
018000
030000
FFFC00
FFFC00
ENDCHAR
STARTCHAR 0296
ENCODING 662
SWIDTH 600 0
DWIDTH 30 0
BBX 21 28 10 0
BITMAP
01FFF8
01FFF8
000600
000C00
000C00
000C00
000C00
000C00
001800
001800
001800
001800
003800
003E00
000F00
000380
0001C0
0000E0
000060
000060
000060
000060
6000C0
6000C0
600180
F00700
7FFE00
1FF800
ENDCHAR
STARTCHAR 0297
ENCODING 663
SWIDTH 600 0
DWIDTH 30 0
BBX 27 38 2 -9
BITMAP
000FFC20
003FFE60
007807E0
00E001E0
01C001E0
038000C0
070000C0
060000C0
0E000000
0C000000
1C000000
18000000
18000000
18000000
38000000
30000000
30000000
30000000
30000000
70000000
60000000
60000000
60000000
60000000
C0000000
C0000000
C0000000
C0000000
C0000000
C0000000
E0000000
60000C00
70001800
30007000
3C00E000
1F03C000
07FF0000
01F80000
ENDCHAR
STARTCHAR 0298
ENCODING 664
SWIDTH 600 0
DWIDTH 30 0
BBX 23 22 6 0
BITMAP
007FC0
01FFF0
038078
0E001C
1C000C
18000E
300006
600006
600006
603C06
C07C06
C07C06
C0780C
C0000C
C00018
E00038
600030
7000E0
3801C0
1E0780
0FFE00
03F800
ENDCHAR
STARTCHAR 0299
ENCODING 665
SWIDTH 600 0
DWIDTH 30 0
BBX 23 21 2 0
BITMAP
0FFFF0
0FFFFC
01801E
018006
030006
030006
030006
03000C
070038
07FFE0
07FFF0
06003C
06000E
0E0006
0C0006
0C0006
0C000E
0C001C
180038
FFFFF0
FFFFC0
ENDCHAR
STARTCHAR 029A
ENCODING 666
SWIDTH 600 0
DWIDTH 30 0
BBX 22 22 6 0
BITMAP
00FFE0
01FFF0
038038
06001C
0C001C
0C000C
0C000C
0E000C
07800C
03FF0C
07FF0C
1E0018
380018
700018
E00030
C00030
C00060
E000C0
F001C0
7C0F00
3FFE00
07F000
ENDCHAR
STARTCHAR 029B
ENCODING 667
SWIDTH 600 0
DWIDTH 30 0
BBX 30 25 3 0
BITMAP
000000F0
000001F8
0000039C
0000070C
007FE60C
01FFF600
07801C00
0E000C00
1C000C00
38000000
30000000
60000000
60000000
60000000
60000000
C0000000
C01FFC00
C01FFC00
C0003000
C0003000
E0006000
60006000
78006000
1FFFE000
0FFF0000
ENDCHAR
STARTCHAR 029C
ENCODING 668
SWIDTH 600 0
DWIDTH 30 0
BBX 25 21 2 0
BITMAP
07F83F80
07F07F80
01800600
01800C00
03800C00
03000C00
03000C00
03001C00
03001800
07FFF800
07FFF800
06001800
06003800
06003000
0C003000
0C003000
0C003000
0C007000
0C006000
FF83FC00
FF03FC00
ENDCHAR
STARTCHAR 029D
ENCODING 669
SWIDTH 600 0
DWIDTH 30 0
BBX 22 40 3 -9
BITMAP
00001C
00001C
000038
000038
000038
000000
000000
000000
000000
000000
01FFFC
03FFFC
00001C
000018
000018
000018
000018
000030
000030
000030
000030
000070
000060
000060
000060
000060
0000E0
0000C0
0000C0
0000C0
0000C0
000180
000180
000180
000380
000300
000600
001C00
FFF800
FFE000
ENDCHAR
STARTCHAR 029E
ENCODING 670
SWIDTH 600 0
DWIDTH 30 0
BBX 26 30 4 -9
BITMAP
3FE00FC0
3FE00FC0
03001800
03801800
01C01800
00E01800
00701800
00303000
00383000
001C3000
000EF000
0007F000
00036000
000E6000
001C6000
00706000
00E0C000
01C0C000
0700C000
7F80C000
FF80C000
00018000
00018000
00018000
00018000
00018000
00030000
00030000
0003F000
0003F000
ENDCHAR
STARTCHAR 029F
ENCODING 671
SWIDTH 600 0
DWIDTH 30 0
BBX 22 21 3 0
BITMAP
0FFF00
0FFF00
006000
00C000
00C000
00C000
00C000
01C000
018000
018000
018000
018000
038000
03000C
03000C
03001C
030018
070018
060018
FFFFF8
FFFFF8
ENDCHAR
STARTCHAR 02A0
ENCODING 672
SWIDTH 600 0
DWIDTH 30 0
BBX 36 40 3 -9
BITMAP
0000000100
0000000FF0
0000003FF0
0000007000
000000E000
000001C000
0000018000
0000018000
0000038000
0000030000
00FFC30000
03FFE30000
0700730000
0E003F0000
18001E0000
30000E0000
70000E0000
60000E0000
60000C0000
C0000C0000
C0000C0000
C0000C0000
C0001C0000
C000380000
E000780000
6000F80000
7801D80000
3C0FB80000
1FFE300000
07F0300000
0000300000
0000300000
0000600000
0000600000
0000600000
0000600000
0000E00000
0000C00000
003FFC0000
003FFC0000
ENDCHAR
STARTCHAR 02A1
ENCODING 673
SWIDTH 600 0
DWIDTH 30 0
BBX 21 28 5 1
BITMAP
00FFC0
03FFE0
078070
0C0038
0C0018
0C0018
0C0018
000018
000038
000030
000060
0001C0
000780
001E00
007800
006000
00C000
00C000
7FFF80
7FFF80
00C000
018000
018000
018000
018000
038000
FFFE00
FFFE00
ENDCHAR
STARTCHAR 02A2
ENCODING 674
SWIDTH 600 0
DWIDTH 30 0
BBX 21 28 6 1
BITMAP
00FFC0
03FFF0
070078
0C0038
180030
180030
300000
300000
300000
300000
380000
1C0000
0E0000
078000
03E000
00E000
00C000
00C000
7FFF00
7FFF00
01C000
018000
018000
018000
018000
038000
FFFC00
FFFC00
ENDCHAR
STARTCHAR 02A3
ENCODING 675
SWIDTH 600 0
DWIDTH 30 0
BBX 28 31 4 -1
BITMAP
001F8000
001F8000
00018000
00018000
00018000
00030000
00030000
00030000
00030000
03F7FFF0
07F7FFF0
0C3E0060
181E00E0
181E01C0
300C0380
300C0300
600C0700
600C0E00
600C0C00
C0181C00
C0183800
C0187000
C0186000
C038E000
C031C0C0
C0718180
C0F38180
E1F70180
63FFFF80
7F7FFF80
3E000000
ENDCHAR
STARTCHAR 02A4
ENCODING 676
SWIDTH 600 0
DWIDTH 30 0
BBX 30 38 3 -8
BITMAP
000FC000
001F8000
00018000
00018000
00018000
00038000
00030000
00030000
00030000
03F3FFFC
07FFFFF8
0C3E00E0
181E01C0
181E0380
301E0700
300C0C00
600C3800
600C7000
601CFE00
601DFF00
C01B8380
C01B0180
C01801C0
C03800C0
C03800C0
C07000C0
C07000C0
E0F000C0
63FE0180
7F7C0180
3E000180
00000300
00400700
00E00E00
00701C00
00383800
001FF000
000FC000
ENDCHAR
STARTCHAR 02A5
ENCODING 677
SWIDTH 600 0
DWIDTH 30 0
BBX 29 34 2 -4
BITMAP
000FC000
000FC000
0001C000
00018000
00018000
00018000
00018000
00030000
00030000
03F3FFF8
07FBFFF8
0C3B0070
181E00E0
180E00E0
300E01C0
300E0380
600E0300
600C0700
600C0E00
E00C1C00
C01C1C00
C01839F0
C01873F8
C038E638
C038EC18
C079CC18
C0739C38
E0F31870
63FFFFE0
7FFFFF80
3E001800
00003000
00003000
00003000
ENDCHAR
STARTCHAR 02A6
ENCODING 678
SWIDTH 600 0
DWIDTH 30 0
BBX 27 29 5 -1
BITMAP
01800000
03800000
03000000
03000000
03000000
03000000
06000000
FFE1FF60
FFE7FFE0
060E01E0
0E0C00C0
0C1C00C0
0C1800C0
0C180000
0C1C0000
1C0F8000
1807F800
18007F00
18000780
18000380
30000180
30000180
30000180
30000380
30000300
38000700
1C001E00
0FFFF800
07FFE000
ENDCHAR
STARTCHAR 02A7
ENCODING 679
SWIDTH 600 0
DWIDTH 30 0
BBX 30 32 2 -1
BITMAP
00000020
000003FC
00000FFC
01801C00
01803800
01803000
03006000
03006000
03006000
03006000
FFFC6000
FFFC6000
0600E000
0600C000
0600C000
0E00C000
0C00C000
0C00C000
0C00C000
0C00C000
1800C000
1801C000
18018000
18018000
30018000
30018000
30038000
30030000
38060000
1C1C0000
0FF80000
07E00000
ENDCHAR
STARTCHAR 02A8
ENCODING 680
SWIDTH 600 0
DWIDTH 30 0
BBX 28 34 5 -7
BITMAP
03800000
03000000
03000000
03000000
06000000
06000000
06000000
FF81FF30
FF83FFB0
0C0701F0
0C0C00F0
0C180060
0C380060
1C300060
18700000
18600000
18600000
18E00000
38C00F80
30C03FC0
30C071C0
30C060C0
30C0C0C0
60C0C0C0
60E0C180
7060C380
3FFDFF00
1FFFFC00
00038000
00018000
00038000
00030000
00030000
00030000
ENDCHAR
STARTCHAR 02A9
ENCODING 681
SWIDTH 600 0
DWIDTH 30 0
BBX 31 40 1 -10
BITMAP
0000FFC0
0003FFE0
000F0000
001C0000
00180000
00300000
00300000
00300000
00300000
07FFC7F8
07FFCFFC
0061F80E
0061F006
0061E006
00C18006
00C18006
00C38006
00C3000E
01C3000C
0183000C
0183000C
0186000C
01860018
03860018
03060018
030E0018
030C0018
030C0030
FFFF8030
FFFF8030
00000030
00000070
00000060
00000060
000000E0
000000C0
000001C0
00004380
0000FF00
00007C00
ENDCHAR
STARTCHAR 02AA
ENCODING 682
SWIDTH 600 0
DWIDTH 30 0
BBX 32 30 1 0
BITMAP
00FF0000
00FE0000
00060000
00060000
00060000
000E0000
000C0000
000C0000
000C0000
000C1FF3
00187FFF
0018E01F
0018C00E
00198006
00398006
0031C000
0031F800
0030FFC0
00301FF0
007001F8
0060003C
0060000C
0060000C
0060000C
00C0000C
00C00018
00C00038
00C000F0
FFFFFFC0
FFFFFF00
ENDCHAR
STARTCHAR 02AB
ENCODING 683
SWIDTH 600 0
DWIDTH 30 0
BBX 30 30 2 0
BITMAP
00FF0000
00FF0000
00030000
00060000
00060000
00060000
00060000
000E0000
000C0000
000FFFFC
000FFFF8
000C0038
001C0070
001800E0
001801C0
00180380
00180700
00300E00
00301C00
00303800
00307000
0070E000
0061C000
00618000
00630060
00660060
00EC0060
00D80060
FFFFFFC0
FFFFFFC0
ENDCHAR
STARTCHAR 02AC
ENCODING 684
SWIDTH 600 0
DWIDTH 30 0
BBX 32 40 5 0
BITMAP
07F800FF
07F800FF
01800018
01800018
01800030
0180C030
0181E060
0181E060
0183E0C0
018770C0
01863180
018E3180
009C3300
00D83B00
00F01E00
00F01E00
00E01C00
00000000
00000000
00000000
00000000
00000000
FF001FE0
FF001FE0
30000300
30000300
30000600
30100600
303C0C00
303C0C00
107C1800
186E1800
18E63000
19C63000
19867000
1B876000
1F03E000
1E03C000
1E03C000
1C038000
ENDCHAR
STARTCHAR 02AD
ENCODING 685
SWIDTH 600 0
DWIDTH 30 0
BBX 28 28 4 0
BITMAP
07FFFFF0
07FFFFF0
06000030
06000030
06000060
0E000060
0C000060
0C000060
00000000
00000000
00000000
00000000
00000000
00000000
00000000
00000000
00000000
00000000
00000000
00000000
7FFFFF00
7FFFFF00
60000300
60000600
C0000600
C0000600
C0000600
C0000E00
ENDCHAR
STARTCHAR 02AE
ENCODING 686
SWIDTH 600 0
DWIDTH 30 0
BBX 24 40 7 -9
BITMAP
080000
FE0000
FF0000
030000
030000
030000
030000
030000
030000
060000
0601FF
0601FF
060030
060030
0C0030
0C0030
0C0070
0C0060
1C0060
180060
180060
1800C0
1800C0
3800C0
3000C0
3001C0
300380
300780
180D80
1FF980
0FF380
000300
000300
000300
000300
000600
000600
000600
0007E0
0007C0
ENDCHAR
STARTCHAR 02AF
ENCODING 687
SWIDTH 600 0
DWIDTH 30 0
BBX 24 41 7 -10
BITMAP
080000
FE0000
FF0000
030000
030000
030000
030000
030000
030000
070000
0601FF
0603FF
060030
060030
0C0030
0C0070
0C0060
0C0060
1C0060
180060
1800C0
1800C0
1800C0
3800C0
3000C0
300180
300380
300780
180D80
1FFB80
0FF300
000300
000300
000300
000600
000600
000600
000600
000700
0003F8
0001F0
ENDCHAR
ENDFONT
